<svg width="47" height="47" viewBox="0 0 47 47" fill="none" xmlns="http://www.w3.org/2000/svg">
<path d="M6 18.5L1 23.5L6 28.5L11 23.5L6 18.5Z" stroke="black" stroke-width="1.5" stroke-linecap="round" stroke-linejoin="round"/>
<path d="M23.5 18.5L18.5 23.5L23.5 28.5L28.5 23.5L23.5 18.5Z" stroke="black" stroke-width="1.5" stroke-linecap="round" stroke-linejoin="round"/>
<path d="M41 18.5L36 23.5L41 28.5L46 23.5L41 18.5Z" stroke="black" stroke-width="1.5" stroke-linecap="round" stroke-linejoin="round"/>
<path d="M23.5 36L14.5 27L9.5 32L23.5 46L37.5 32L32.5 27L23.5 36Z" stroke="black" stroke-width="1.5" stroke-linecap="round" stroke-linejoin="round"/>
<path d="M23.5 11L14.5 20L9.5 15L23.5 1L37.5 15L32.5 20L23.5 11Z" stroke="black" stroke-width="1.5" stroke-linecap="round" stroke-linejoin="round"/>
</svg>
