<svg width="47" height="27" viewBox="0 0 47 27" fill="none" xmlns="http://www.w3.org/2000/svg">
<path d="M23.5 18C26 18 26 17 26 15C26 13 21 14 21 12C21 10 21 9 23.5 9M23.5 18C21 18 21 17 21 16M23.5 18V19M23.5 9C26 9 26 10 26 11M23.5 9V8M1 1V26H46V1H1ZM6 3H41C41 3 41 4 42 5.5C43 7 44 7 44 7V20C44 20 43 20.3395 42 21.5C41 22.6605 41 24 41 24H6C6 24 6 22.67 5 21.5C4 20.33 3 20 3 20V7C3 7 4 6.5 5 5.5C6 4.5 6 3 6 3ZM16 13C16 17 19 21 23.5 21C28 21 31 17 31 13C31 9 28 5.5 23.5 5.5C19 5.5 16 9 16 13Z" stroke="black" stroke-width="1.5"/>
</svg>
