<svg width="29" height="36" viewBox="0 0 29 36" fill="none" xmlns="http://www.w3.org/2000/svg">
<path d="M23.95 35V35.75C24.3642 35.75 24.7 35.4142 24.7 35H23.95ZM19.9 15.4752H19.15C19.15 15.651 19.2117 15.8212 19.3244 15.9561L19.9 15.4752ZM19.9 6.72277H20.65C20.65 6.30856 20.3142 5.97277 19.9 5.97277V6.72277ZM5.05 35H4.3C4.3 35.4142 4.63579 35.75 5.05 35.75V35ZM5.05 17.495V16.745H4.3V17.495H5.05ZM9.1 15.4752L9.67556 15.9561C9.78826 15.8212 9.85 15.651 9.85 15.4752H9.1ZM9.1 6.72277V5.97277C8.68579 5.97277 8.35 6.30856 8.35 6.72277H9.1ZM0.394245 31.3519C0.424549 31.765 0.784003 32.0753 1.19711 32.045C1.61021 32.0147 1.92053 31.6553 1.89022 31.2422L0.394245 31.3519ZM27.1027 31.5774C27.0716 31.9904 27.3812 32.3505 27.7943 32.3815C28.2073 32.4126 28.5674 32.103 28.5984 31.6899L27.1027 31.5774ZM11.8 10.7624V10.0124H11.05V10.7624H11.8ZM17.2 10.7624H17.95V10.0124H17.2V10.7624ZM17.2 15.4752V16.2252H17.95V15.4752H17.2ZM11.8 15.4752H11.05V16.2252H11.8V15.4752ZM24.7 35V17.495H23.2V35H24.7ZM23.95 17.495C23.95 16.745 23.9503 16.745 23.9506 16.745C23.9507 16.745 23.951 16.745 23.9511 16.745C23.9515 16.7451 23.9518 16.7451 23.9521 16.7451C23.9526 16.7451 23.9531 16.7451 23.9533 16.7451C23.9539 16.7451 23.9539 16.7451 23.9534 16.7451C23.9523 16.745 23.9492 16.745 23.9439 16.7448C23.9334 16.7446 23.9148 16.7439 23.8887 16.7424C23.8364 16.7393 23.7547 16.7329 23.6492 16.7195C23.4376 16.6926 23.1342 16.6378 22.7831 16.5272C22.0808 16.306 21.205 15.8675 20.4756 14.9944L19.3244 15.9561C20.2825 17.1028 21.4317 17.6742 22.3325 17.9579C22.7829 18.0998 23.1756 18.1713 23.4598 18.2075C23.6021 18.2256 23.7182 18.235 23.8017 18.2398C23.8435 18.2423 23.8772 18.2436 23.9022 18.2443C23.9147 18.2446 23.925 18.2448 23.9329 18.2449C23.9369 18.245 23.9404 18.245 23.9432 18.245C23.9446 18.245 23.9459 18.245 23.9471 18.245C23.9476 18.245 23.9481 18.245 23.9486 18.245C23.9489 18.245 23.9492 18.245 23.9493 18.245C23.9497 18.245 23.95 18.245 23.95 17.495ZM19.15 6.72277V15.4752H20.65V6.72277H19.15ZM5.8 35V17.495H4.3V35H5.8ZM5.05 17.495C5.05 18.245 5.05032 18.245 5.05065 18.245C5.05078 18.245 5.05112 18.245 5.05136 18.245C5.05186 18.245 5.05238 18.245 5.05295 18.245C5.05408 18.245 5.05536 18.245 5.05678 18.245C5.05962 18.245 5.06305 18.245 5.06705 18.2449C5.07505 18.2448 5.08533 18.2446 5.09781 18.2443C5.12276 18.2436 5.15652 18.2423 5.19831 18.2398C5.28185 18.235 5.39788 18.2256 5.54024 18.2075C5.82435 18.1713 6.21705 18.0998 6.66751 17.9579C7.56828 17.6742 8.71753 17.1028 9.67556 15.9561L8.52444 14.9944C7.79497 15.8675 6.91922 16.306 6.21687 16.5272C5.86576 16.6378 5.56237 16.6926 5.35077 16.7195C5.24528 16.7329 5.16356 16.7393 5.11131 16.7424C5.08521 16.7439 5.06656 16.7446 5.05608 16.7448C5.05084 16.745 5.04765 16.745 5.04661 16.7451C5.04608 16.7451 5.0461 16.7451 5.04666 16.7451C5.04694 16.7451 5.04736 16.7451 5.04791 16.7451C5.04819 16.7451 5.0485 16.7451 5.04885 16.745C5.04903 16.745 5.04931 16.745 5.0494 16.745C5.0497 16.745 5.05 16.745 5.05 17.495ZM8.35 6.72277V15.4752H9.85V6.72277H8.35ZM5.05 35.75H23.95V34.25H5.05V35.75ZM4.85473 17.495C4.85473 16.745 4.85364 16.745 4.85254 16.7451C4.85214 16.7451 4.85101 16.7451 4.85022 16.7451C4.84864 16.7451 4.84698 16.7451 4.84524 16.7451C4.84177 16.7451 4.83799 16.7452 4.8339 16.7453C4.82573 16.7455 4.81635 16.7458 4.80579 16.7463C4.78469 16.7473 4.75888 16.749 4.72872 16.752C4.66841 16.7579 4.59061 16.7687 4.49822 16.7883C4.3131 16.8275 4.07044 16.9018 3.79426 17.0412C3.2354 17.3233 2.57472 17.8545 1.9789 18.8291C0.80246 20.7535 -0.116174 24.3941 0.394245 31.3519L1.89022 31.2422C1.38814 24.398 2.32576 21.1376 3.2587 19.6115C3.71756 18.8609 4.17486 18.5294 4.47029 18.3802C4.62126 18.304 4.73983 18.2704 4.80915 18.2557C4.84399 18.2483 4.86671 18.2457 4.87512 18.2448C4.87932 18.2444 4.87992 18.2445 4.87663 18.2446C4.87498 18.2447 4.87236 18.2448 4.86873 18.2449C4.86691 18.2449 4.86484 18.245 4.86251 18.245C4.86134 18.245 4.86011 18.245 4.85882 18.245C4.85817 18.245 4.85715 18.245 4.85682 18.245C4.85579 18.245 4.85473 18.245 4.85473 17.495ZM23.95 17.495C23.95 18.245 23.949 18.245 23.948 18.245C23.9477 18.245 23.9467 18.245 23.946 18.245C23.9448 18.245 23.9436 18.245 23.9425 18.245C23.9403 18.245 23.9383 18.2449 23.9366 18.2449C23.9332 18.2448 23.9309 18.2447 23.9297 18.2447C23.9271 18.2446 23.9287 18.2446 23.9341 18.2451C23.9449 18.2461 23.9708 18.2492 24.0095 18.2572C24.0866 18.2731 24.2153 18.3089 24.3778 18.3889C24.6962 18.5456 25.1804 18.8898 25.6638 19.6608C26.6455 21.2266 27.6301 24.5672 27.1027 31.5774L28.5984 31.6899C29.1348 24.5615 28.1691 20.8328 26.9346 18.864C26.3099 17.8676 25.6194 17.3282 25.0403 17.0431C24.754 16.9021 24.5032 16.8275 24.313 16.7882C24.218 16.7686 24.1383 16.7578 24.0769 16.7519C24.0462 16.749 24.02 16.7473 23.9987 16.7463C23.9881 16.7458 23.9787 16.7455 23.9706 16.7453C23.9665 16.7452 23.9628 16.7451 23.9593 16.7451C23.9576 16.7451 23.956 16.7451 23.9544 16.7451C23.9536 16.7451 23.9525 16.7451 23.9521 16.7451C23.9511 16.745 23.95 16.745 23.95 17.495ZM11.8 11.5124H17.2V10.0124H11.8V11.5124ZM16.45 10.7624V15.4752H17.95V10.7624H16.45ZM17.2 14.7252H11.8V16.2252H17.2V14.7252ZM12.55 15.4752V10.7624H11.05V15.4752H12.55ZM6.7375 33.0569H9.4375V31.5569H6.7375V33.0569ZM11.4625 33.0569H21.5875V31.5569H11.4625V33.0569ZM9.1 7.47277H11.8V5.97277H9.1V7.47277ZM11.8 6.72277C12.5487 6.67862 12.5487 6.67879 12.5487 6.67894C12.5487 6.67896 12.5487 6.67909 12.5487 6.67913C12.5487 6.67922 12.5487 6.67922 12.5487 6.67913C12.5487 6.67897 12.5487 6.67846 12.5486 6.67761C12.5486 6.67593 12.5484 6.67291 12.5482 6.66859C12.5477 6.65996 12.5471 6.64617 12.5463 6.62757C12.5448 6.59034 12.5428 6.53393 12.5413 6.46108C12.5382 6.31521 12.5369 6.10445 12.5444 5.85069C12.5595 5.33948 12.6096 4.67094 12.7455 4.013C12.8836 3.3438 13.0976 2.74993 13.4004 2.33922C13.6819 1.95735 14.0215 1.75 14.5 1.75V0.25C13.4597 0.25 12.7025 0.757993 12.193 1.44915C11.7047 2.11146 11.4336 2.94828 11.2764 3.70977C11.1169 4.48253 11.0616 5.24468 11.0451 5.80648C11.0367 6.08923 11.0381 6.32557 11.0416 6.49267C11.0434 6.5763 11.0457 6.64283 11.0476 6.68944C11.0486 6.71275 11.0494 6.73109 11.0501 6.74412C11.0504 6.75063 11.0507 6.75582 11.0509 6.75963C11.051 6.76154 11.0511 6.76311 11.0512 6.76432C11.0512 6.76493 11.0512 6.76545 11.0512 6.76589C11.0513 6.76611 11.0513 6.76637 11.0513 6.76647C11.0513 6.76671 11.0513 6.76693 11.8 6.72277ZM11.8 7.47277H17.2V5.97277H11.8V7.47277ZM17.2 7.47277H19.9V5.97277H17.2V7.47277ZM14.5 1C14.5 1.75 14.4992 1.75 14.4985 1.75C14.4982 1.75 14.4975 1.75 14.497 1.74999C14.496 1.74999 14.4951 1.74998 14.4942 1.74998C14.4925 1.74996 14.4908 1.74994 14.4893 1.74992C14.4864 1.74987 14.484 1.7498 14.4821 1.74974C14.4784 1.74961 14.4769 1.74949 14.4775 1.74953C14.4786 1.74961 14.4877 1.7503 14.5037 1.75273C14.5359 1.7576 14.5948 1.76931 14.6721 1.79659C14.8233 1.85 15.0562 1.96692 15.3045 2.23007C15.799 2.75409 16.45 3.96649 16.45 6.72277H17.95C17.95 3.75628 17.251 2.10729 16.3955 1.20062C15.9688 0.748431 15.5267 0.507672 15.1717 0.382246C14.9958 0.320112 14.8438 0.287114 14.7283 0.269628C14.6705 0.260878 14.6216 0.255978 14.5832 0.253262C14.5639 0.251903 14.5473 0.251088 14.5334 0.250613C14.5264 0.250375 14.5201 0.250222 14.5146 0.250128C14.5118 0.250081 14.5092 0.250049 14.5068 0.250029C14.5055 0.250019 14.5044 0.250011 14.5032 0.250007C14.5027 0.250005 14.5019 0.250002 14.5016 0.250002C14.5008 0.25 14.5 0.25 14.5 1Z" fill="white"/>
</svg>
