<svg width="48" height="48" viewBox="0 0 48 48" fill="none" xmlns="http://www.w3.org/2000/svg">
<path d="M29.5 29.5C29.5 28.6446 29.7987 27.9982 30.25 27.561C28.8546 26.2091 26 26.8554 26 29.5C26 32.1446 28.8546 32.7909 30.25 31.439C29.7987 31.0018 29.5 30.3554 29.5 29.5Z" fill="#D9D9D9"/>
<path d="M31 2L31.5087 1.4489L31 0.979319L30.4913 1.4489L31 2ZM46 15.8462L46.5087 16.3973L47.1057 15.8462L46.5087 15.2951L46 15.8462ZM4.24129 19.9104C3.93692 20.1914 3.91794 20.6659 4.1989 20.9702C4.47985 21.2746 4.95434 21.2936 5.25871 21.0126L4.24129 19.9104ZM25.2587 2.5511C25.5631 2.27015 25.5821 1.79566 25.3011 1.49129C25.0201 1.18692 24.5457 1.16794 24.2413 1.4489L25.2587 2.5511ZM28.5 20.4615L27.9913 21.0126L27.9913 21.0126L28.5 20.4615ZM1 22.7692V22.0192C0.585786 22.0192 0.25 22.355 0.25 22.7692H1ZM1 47H0.25C0.25 47.4142 0.585786 47.75 1 47.75L1 47ZM42.25 47V47.75C42.6642 47.75 43 47.4142 43 47H42.25ZM42.25 22.7692H43C43 22.355 42.6642 22.0192 42.25 22.0192V22.7692ZM5.5 36.25C5.08579 36.25 4.75 36.5858 4.75 37C4.75 37.4142 5.08579 37.75 5.5 37.75V36.25ZM36 37.75C36.4142 37.75 36.75 37.4142 36.75 37C36.75 36.5858 36.4142 36.25 36 36.25V37.75ZM11 41.25C10.5858 41.25 10.25 41.5858 10.25 42C10.25 42.4142 10.5858 42.75 11 42.75V41.25ZM31 42.75C31.4142 42.75 31.75 42.4142 31.75 42C31.75 41.5858 31.4142 41.25 31 41.25V42.75ZM6 32H5.25C5.25 32.4142 5.58579 32.75 6 32.75V32ZM16 32V32.75C16.4142 32.75 16.75 32.4142 16.75 32H16ZM16 27H16.75C16.75 26.5858 16.4142 26.25 16 26.25V27ZM6 27V26.25C5.58579 26.25 5.25 26.5858 5.25 27H6ZM9.00871 23.3203L31.5087 2.5511L30.4913 1.4489L7.99129 22.2181L9.00871 23.3203ZM30.4913 2.5511L45.4913 16.3973L46.5087 15.2951L31.5087 1.4489L30.4913 2.5511ZM45.4913 15.2951L37.9913 22.2181L39.0087 23.3203L46.5087 16.3973L45.4913 15.2951ZM38.5 22.0192H8.5V23.5192H38.5V22.0192ZM5.25871 21.0126L25.2587 2.5511L24.2413 1.4489L4.24129 19.9104L5.25871 21.0126ZM26.026 6.7351C27.8263 8.20312 29.3096 9.08701 30.8563 8.94035C32.3852 8.79539 33.721 7.6624 35.2982 5.97342L34.2018 4.94966C32.591 6.67465 31.6099 7.36217 30.7148 7.44705C29.8375 7.53022 28.7898 7.05328 26.974 5.57259L26.026 6.7351ZM40.8946 11.2496C39.5878 13.0366 38.8523 14.4572 38.7932 15.9808C38.7346 17.4902 39.3481 18.9604 40.3384 20.8148L41.6616 20.1082C40.6752 18.2611 40.2505 17.108 40.292 16.039C40.333 14.9841 40.8359 13.8709 42.1054 12.135L40.8946 11.2496ZM17.9501 23.0382C19.562 18.8421 24.5842 17.8676 27.9913 21.0126L29.0087 19.9104C24.9158 16.1324 18.5862 17.1992 16.5499 22.5003L17.9501 23.0382ZM28.5 20.4615C27.9913 21.0126 27.9912 21.0125 27.991 21.0124C27.991 21.0124 27.9909 21.0123 27.9908 21.0122C27.9907 21.0121 27.9905 21.012 27.9904 21.0119C27.9902 21.0117 27.9901 21.0115 27.99 21.0115C27.9899 21.0114 27.9901 21.0115 27.9905 21.0119C27.9914 21.0127 27.9934 21.0146 27.9964 21.0175C28.0024 21.0233 28.0126 21.0331 28.0263 21.0466C28.0538 21.0738 28.0951 21.1157 28.1457 21.1702C28.2477 21.28 28.383 21.4363 28.517 21.6218C28.8051 22.0207 29 22.4359 29 22.7692H30.5C30.5 21.9488 30.0699 21.2101 29.733 20.7436C29.5545 20.4964 29.3773 20.2921 29.2449 20.1495C29.1783 20.0778 29.122 20.0206 29.0811 19.9801C29.0606 19.9599 29.044 19.9438 29.0317 19.9321C29.0256 19.9262 29.0205 19.9215 29.0167 19.9179C29.0147 19.916 29.0131 19.9145 29.0118 19.9133C29.0111 19.9127 29.0105 19.9121 29.01 19.9116C29.0098 19.9114 29.0095 19.9112 29.0093 19.911C29.0092 19.9109 29.009 19.9107 29.009 19.9107C29.0088 19.9106 29.0087 19.9104 28.5 20.4615ZM8.5 22.0192H1V23.5192H8.5V22.0192ZM0.25 22.7692V47H1.75V22.7692H0.25ZM1 47.75H42.25V46.25H1V47.75ZM43 47V22.7692H41.5V47H43ZM42.25 22.0192H38.5V23.5192H42.25V22.0192ZM5.5 37.75H36V36.25H5.5V37.75ZM11 42.75H31V41.25H11V42.75ZM6 32.75H16V31.25H6V32.75ZM16.75 32V27H15.25V32H16.75ZM16 26.25H6V27.75H16V26.25ZM5.25 30V30.5H6.75V30H5.25ZM5.25 30.5V32H6.75V30.5H5.25ZM5.25 27V30.5H6.75V27H5.25ZM29.7281 27.0223C29.1193 27.6122 28.75 28.4584 28.75 29.5H30.25C30.25 28.8307 30.4781 28.3843 30.7719 28.0996L29.7281 27.0223ZM28.75 29.5C28.75 30.5416 29.1193 31.3878 29.7281 31.9777L30.7719 30.9004C30.4781 30.6157 30.25 30.1693 30.25 29.5H28.75ZM29.7281 31.9777C30.6507 32.8715 32.0221 33.0852 33.1547 32.673C34.3366 32.2429 35.25 31.1403 35.25 29.5H33.75C33.75 30.5043 33.2361 31.0471 32.6418 31.2634C31.9983 31.4976 31.2447 31.3585 30.7719 30.9004L29.7281 31.9777ZM25.25 29.5C25.25 31.1403 26.1634 32.2429 27.3453 32.673C28.4779 33.0852 29.8493 32.8715 30.7719 31.9777L29.7281 30.9004C29.2553 31.3585 28.5017 31.4976 27.8582 31.2634C27.2639 31.0471 26.75 30.5043 26.75 29.5H25.25ZM30.7719 28.0996C31.2447 27.6415 31.9983 27.5024 32.6418 27.7366C33.2361 27.9529 33.75 28.4957 33.75 29.5H35.25C35.25 27.8597 34.3366 26.7571 33.1547 26.327C32.0221 25.9148 30.6507 26.1285 29.7281 27.0223L30.7719 28.0996ZM26.75 29.5C26.75 28.4957 27.2639 27.9529 27.8582 27.7366C28.5017 27.5024 29.2553 27.6415 29.7281 28.0996L30.7719 27.0223C29.8493 26.1285 28.4779 25.9148 27.3453 26.327C26.1634 26.7571 25.25 27.8597 25.25 29.5H26.75Z" fill="black"/>
</svg>
