<svg width="150" height="123" viewBox="0 0 150 123" fill="none" xmlns="http://www.w3.org/2000/svg">
<path d="M118 111H140.428M15 111H36.4541H15ZM2.12793 111H9H2.12793ZM145.128 111H148H145.128Z" stroke="#919191" stroke-width="2.5" stroke-linecap="round" stroke-linejoin="round"/>
<path d="M49 6.30273L60.0996 18.7559M101.1 6.30273L90 18.7559L101.1 6.30273ZM75 2V18.7559V2Z" stroke="#919191" stroke-width="2.5" stroke-linecap="round" stroke-linejoin="round"/>
<path fill-rule="evenodd" clip-rule="evenodd" d="M43.7976 34H106.404L100.798 42.4098L108.273 48.0164H41.9287L50.3385 42.4098L43.7976 34Z" fill="#EBEBEB"/>
<path fill-rule="evenodd" clip-rule="evenodd" d="M44.5852 87.006V52.6453C44.5852 51.2296 45.7454 50.082 47.1767 50.082L108.153 114.164C108.153 116.052 106.642 117.582 104.778 117.582H47.9601C46.0962 117.582 44.5852 116.052 44.5852 114.164V101.395V97.9301V87.006ZM44.5852 94.4247V90.5765Z" fill="#EBEBEB"/>
<path d="M41 87.4631V49.8853C41 48.337 42.2705 47.082 43.8377 47.082H108.761C109.782 47.082 110.609 47.9187 110.609 48.9508V117.164C110.609 119.228 108.954 120.902 106.913 120.902H44.6956C42.6546 120.902 41 119.228 41 117.164V103.199V99.4098M41 95.5763V91.3678" stroke="#919191" stroke-width="2.5" stroke-linecap="round"/>
<path d="M42.8631 47.082V35.8689C42.8631 34.8367 43.614 34 44.5403 34L106.596 34C107.522 34 108.273 34.8367 108.273 35.8689V47.082" stroke="#919191" stroke-width="2.5"/>
<path d="M60.1499 66.7049C61.9561 66.7049 63.4204 65.2407 63.4204 63.4344C63.4204 61.6282 61.9561 60.1639 60.1499 60.1639C58.3436 60.1639 56.8794 61.6282 56.8794 63.4344C56.8794 65.2407 58.3436 66.7049 60.1499 66.7049Z" fill="#E8F0FE" stroke="#919191" stroke-width="2.5" stroke-linecap="round"/>
<path d="M90.9861 66.7049C92.7923 66.7049 94.2566 65.2407 94.2566 63.4344C94.2566 61.6282 92.7923 60.1639 90.9861 60.1639C89.1798 60.1639 87.7156 61.6282 87.7156 63.4344C87.7156 65.2407 89.1798 66.7049 90.9861 66.7049Z" fill="#E8F0FE" stroke="#919191" stroke-width="2.5" stroke-linecap="round"/>
<path d="M90.5188 66.7049C90.5188 74.962 83.8251 81.6557 75.568 81.6557C67.3109 81.6557 60.6172 74.962 60.6172 66.7049" stroke="#919191" stroke-width="2.5" stroke-linecap="round"/>
<path d="M43.8545 34.9315L50.4329 41.4251C50.8259 41.8131 50.8301 42.4463 50.4421 42.8393C50.3749 42.9073 50.2984 42.9654 50.2148 43.0117L42.863 47.082" stroke="#919191" stroke-width="2.5" stroke-linecap="round"/>
<path d="M107.44 34.9992L101.145 41.4197C100.758 41.814 100.765 42.4472 101.159 42.8338C101.225 42.8984 101.299 42.9535 101.38 42.9977L108.867 47.082" stroke="#919191" stroke-width="2.5" stroke-linecap="round"/>
</svg>
