<svg width="28" height="34" viewBox="0 0 28 34" fill="none" xmlns="http://www.w3.org/2000/svg">
<path d="M5.39437 33H4.64437C4.64437 33.4142 4.98015 33.75 5.39437 33.75V33ZM19.3099 33V33.75C19.7241 33.75 20.0599 33.4142 20.0599 33H19.3099ZM19.3099 8.19101H20.0599V7.56648L19.4457 7.45341L19.3099 8.19101ZM11.9859 4.59551H11.2359V4.79786L11.3377 4.97276L11.9859 4.59551ZM16.0141 4.59551V5.34551H16.7641V4.59551H16.0141ZM18.2113 1L18.9285 0.780843C18.8322 0.465439 18.5411 0.25 18.2113 0.25V1ZM22.6056 4.59551L22.6056 5.34551L22.6056 5.34551L22.6056 4.59551ZM27 25.4494L27.596 25.9047L27.75 25.7031V25.4494H27ZM22.9718 10.7079L22.8273 9.97192L22.2218 10.0908V10.7079H22.9718ZM25.1334 4.95506L25.3492 4.23677L25.3492 4.23677L25.1334 4.95506ZM22.9718 32.2809V33.0309C23.386 33.0309 23.7218 32.6951 23.7218 32.2809H22.9718ZM5.39437 10.7079H6.14437V10.3178L5.82501 10.0938L5.39437 10.7079ZM9.78873 1V0.25C9.37452 0.25 9.03873 0.585786 9.03873 1L9.78873 1ZM5.39437 4.59551V3.84551H5.34202L5.29019 3.85278L5.39437 4.59551ZM1 6.75281L0.265092 6.60311L0.25 6.6772V6.75281H1ZM1 25.4494H0.25V25.8815L0.623824 26.0983L1 25.4494ZM10.8873 22.9326V22.1826C10.4731 22.1826 10.1373 22.5184 10.1373 22.9326H10.8873ZM12.3521 22.9326H13.1021C13.1021 22.5184 12.7663 22.1826 12.3521 22.1826V22.9326ZM12.3521 24.7303V25.4803C12.7663 25.4803 13.1021 25.1446 13.1021 24.7303H12.3521ZM10.8873 24.7303H10.1373C10.1373 25.1446 10.4731 25.4803 10.8873 25.4803V24.7303ZM10.8873 19.3371H10.1373C10.1373 19.7513 10.4731 20.0871 10.8873 20.0871V19.3371ZM10.8873 17.5393V16.7893C10.4731 16.7893 10.1373 17.1251 10.1373 17.5393H10.8873ZM12.3521 17.5393H13.1021C13.1021 17.1251 12.7663 16.7893 12.3521 16.7893V17.5393ZM12.3521 19.3371V20.0871C12.7663 20.0871 13.1021 19.7513 13.1021 19.3371H12.3521ZM10.8873 14.3034H10.1373C10.1373 14.7176 10.4731 15.0534 10.8873 15.0534V14.3034ZM10.8873 12.5056V11.7556C10.4731 11.7556 10.1373 12.0914 10.1373 12.5056H10.8873ZM12.3521 12.5056H13.1021C13.1021 12.0914 12.7663 11.7556 12.3521 11.7556V12.5056ZM12.3521 14.3034V15.0534C12.7663 15.0534 13.1021 14.7176 13.1021 14.3034H12.3521ZM15.2817 12.5056V11.7556C14.8675 11.7556 14.5317 12.0914 14.5317 12.5056H15.2817ZM16.7465 12.5056H17.4965C17.4965 12.0914 17.1607 11.7556 16.7465 11.7556V12.5056ZM16.7465 14.3034V15.0534C17.1607 15.0534 17.4965 14.7176 17.4965 14.3034H16.7465ZM15.2817 14.3034H14.5317C14.5317 14.7176 14.8675 15.0534 15.2817 15.0534V14.3034ZM15.2817 17.5393V16.7893C14.8675 16.7893 14.5317 17.1251 14.5317 17.5393H15.2817ZM16.7465 17.5393H17.4965C17.4965 17.1251 17.1607 16.7893 16.7465 16.7893V17.5393ZM16.7465 19.3371V20.0871C17.1607 20.0871 17.4965 19.7513 17.4965 19.3371H16.7465ZM15.2817 19.3371H14.5317C14.5317 19.7513 14.8675 20.0871 15.2817 20.0871V19.3371ZM15.2817 22.9326V22.1826C14.8675 22.1826 14.5317 22.5184 14.5317 22.9326H15.2817ZM16.7465 22.9326H17.4965C17.4965 22.5184 17.1607 22.1826 16.7465 22.1826V22.9326ZM16.7465 24.7303V25.4803C17.1607 25.4803 17.4965 25.1446 17.4965 24.7303H16.7465ZM15.2817 24.7303H14.5317C14.5317 25.1446 14.8675 25.4803 15.2817 25.4803V24.7303ZM5.39437 33.75H19.3099V32.25H5.39437V33.75ZM19.3099 8.19101C19.4457 7.45341 19.4458 7.45343 19.4459 7.45344C19.4459 7.45344 19.4459 7.45346 19.4459 7.45346C19.4459 7.45346 19.4458 7.45344 19.4457 7.45341C19.4453 7.45334 19.4446 7.45321 19.4436 7.45302C19.4415 7.45263 19.438 7.45197 19.4332 7.45106C19.4236 7.44922 19.4086 7.44634 19.3885 7.44239C19.3484 7.4345 19.2881 7.42237 19.2101 7.40591C19.054 7.37297 18.8275 7.32281 18.5503 7.25477C17.9946 7.11838 17.2417 6.91167 16.4478 6.6302C15.6508 6.34761 14.832 5.99646 14.1353 5.57669C13.4286 5.15088 12.9094 4.6912 12.6341 4.21825L11.3377 4.97276C11.7948 5.75824 12.5574 6.37721 13.3612 6.86151C14.175 7.35185 15.0957 7.74228 15.9466 8.04396C16.8006 8.34675 17.604 8.56701 18.1927 8.71152C18.4877 8.78393 18.7303 8.8377 18.9004 8.87359C18.9855 8.89154 19.0525 8.90504 19.0989 8.91417C19.1221 8.91874 19.1402 8.92222 19.1528 8.92462C19.1591 8.92583 19.1641 8.92676 19.1677 8.92742C19.1694 8.92776 19.1709 8.92802 19.1719 8.92822C19.1725 8.92832 19.1729 8.9284 19.1733 8.92847C19.1734 8.9285 19.1736 8.92854 19.1737 8.92855C19.1739 8.92859 19.1741 8.92862 19.3099 8.19101ZM12.7359 4.59551V1H11.2359V4.59551H12.7359ZM11.9859 1.75H16.0141V0.25H11.9859V1.75ZM15.2641 1V4.59551H16.7641V1H15.2641ZM16.0141 3.84551H11.9859V5.34551H16.0141V3.84551ZM16.0141 1.75H18.2113V0.25H16.0141V1.75ZM18.2113 1C17.494 1.21916 17.4941 1.21947 17.4942 1.21979C17.4942 1.21991 17.4943 1.22025 17.4944 1.2205C17.4946 1.221 17.4947 1.22156 17.4949 1.22218C17.4953 1.2234 17.4958 1.22485 17.4963 1.22652C17.4973 1.22986 17.4987 1.23406 17.5003 1.23911C17.5035 1.24921 17.5079 1.26268 17.5135 1.27932C17.5247 1.31258 17.5407 1.35853 17.5617 1.41538C17.6039 1.52894 17.6667 1.68679 17.7526 1.87428C17.9236 2.2473 18.1908 2.7481 18.5765 3.25302C19.3485 4.26359 20.6444 5.34551 22.6056 5.34551V3.84551C21.2711 3.84551 20.3698 3.12967 19.7685 2.34248C19.4676 1.94853 19.2542 1.55045 19.1162 1.24932C19.0477 1.09973 18.9989 0.976682 18.9681 0.893607C18.9527 0.852141 18.9419 0.820851 18.9353 0.801439C18.9321 0.79174 18.9299 0.785028 18.9288 0.781519C18.9282 0.779765 18.9279 0.778813 18.9279 0.778691C18.9279 0.77863 18.9279 0.778776 18.928 0.779134C18.9281 0.779312 18.9281 0.779544 18.9282 0.779829C18.9283 0.779971 18.9283 0.780225 18.9284 0.780296C18.9284 0.780562 18.9285 0.780843 18.2113 1ZM27 6.75281C26.25 6.75281 26.25 6.75285 26.25 6.75292C26.25 6.753 26.25 6.75311 26.25 6.75326C26.25 6.75341 26.25 6.7536 26.25 6.75382C26.25 6.75405 26.25 6.75431 26.25 6.75461C26.25 6.75491 26.25 6.75524 26.25 6.75562C26.25 6.75599 26.25 6.7564 26.25 6.75685C26.25 6.7573 26.25 6.75778 26.25 6.7583C26.25 6.75883 26.25 6.75938 26.25 6.75998C26.25 6.76058 26.25 6.76121 26.25 6.76188C26.25 6.76255 26.25 6.76325 26.25 6.76399C26.25 6.76474 26.25 6.76552 26.25 6.76633C26.25 6.76715 26.25 6.768 26.25 6.76889C26.25 6.76978 26.25 6.7707 26.25 6.77166C26.25 6.77262 26.25 6.77362 26.25 6.77465C26.25 6.77569 26.25 6.77676 26.25 6.77786C26.25 6.77897 26.25 6.78011 26.25 6.78129C26.25 6.78247 26.25 6.78368 26.25 6.78493C26.25 6.78618 26.25 6.78747 26.25 6.78879C26.25 6.79011 26.25 6.79147 26.25 6.79286C26.25 6.79426 26.25 6.79569 26.25 6.79715C26.25 6.79862 26.25 6.80012 26.25 6.80165C26.25 6.80319 26.25 6.80476 26.25 6.80637C26.25 6.80797 26.25 6.80962 26.25 6.81129C26.25 6.81297 26.25 6.81468 26.25 6.81643C26.25 6.81818 26.25 6.81996 26.25 6.82178C26.25 6.8236 26.25 6.82545 26.25 6.82734C26.25 6.82923 26.25 6.83115 26.25 6.83311C26.25 6.83507 26.25 6.83706 26.25 6.83909C26.25 6.84112 26.25 6.84318 26.25 6.84528C26.25 6.84738 26.25 6.84951 26.25 6.85168C26.25 6.85385 26.25 6.85605 26.25 6.85828C26.25 6.86052 26.25 6.86279 26.25 6.8651C26.25 6.8674 26.25 6.86974 26.25 6.87212C26.25 6.87449 26.25 6.8769 26.25 6.87934C26.25 6.88178 26.25 6.88426 26.25 6.88677C26.25 6.88928 26.25 6.89183 26.25 6.89441C26.25 6.89699 26.25 6.8996 26.25 6.90225C26.25 6.90489 26.25 6.90757 26.25 6.91029C26.25 6.913 26.25 6.91575 26.25 6.91853C26.25 6.92132 26.25 6.92413 26.25 6.92698C26.25 6.92983 26.25 6.93271 26.25 6.93563C26.25 6.93855 26.25 6.9415 26.25 6.94448C26.25 6.94747 26.25 6.95048 26.25 6.95353C26.25 6.95658 26.25 6.95967 26.25 6.96278C26.25 6.9659 26.25 6.96905 26.25 6.97223C26.25 6.97542 26.25 6.97863 26.25 6.98188C26.25 6.98513 26.25 6.98842 26.25 6.99173C26.25 6.99505 26.25 6.9984 26.25 7.00178C26.25 7.00516 26.25 7.00857 26.25 7.01202C26.25 7.01546 26.25 7.01894 26.25 7.02246C26.25 7.02597 26.25 7.02951 26.25 7.03309C26.25 7.03667 26.25 7.04028 26.25 7.04392C26.25 7.04756 26.25 7.05124 26.25 7.05494C26.25 7.05865 26.25 7.06239 26.25 7.06616C26.25 7.06993 26.25 7.07374 26.25 7.07757C26.25 7.08141 26.25 7.08528 26.25 7.08918C26.25 7.09308 26.25 7.09701 26.25 7.10097C26.25 7.10494 26.25 7.10893 26.25 7.11296C26.25 7.11699 26.25 7.12105 26.25 7.12514C26.25 7.12923 26.25 7.13335 26.25 7.13751C26.25 7.14166 26.25 7.14585 26.25 7.15006C26.25 7.15428 26.25 7.15853 26.25 7.16281C26.25 7.16709 26.25 7.17141 26.25 7.17575C26.25 7.18009 26.25 7.18447 26.25 7.18887C26.25 7.19328 26.25 7.19772 26.25 7.20218C26.25 7.20665 26.25 7.21115 26.25 7.21568C26.25 7.22021 26.25 7.22477 26.25 7.22937C26.25 7.23396 26.25 7.23858 26.25 7.24324C26.25 7.24789 26.25 7.25258 26.25 7.25729C26.25 7.26201 26.25 7.26675 26.25 7.27153C26.25 7.27631 26.25 7.28112 26.25 7.28595C26.25 7.29079 26.25 7.29566 26.25 7.30056C26.25 7.30546 26.25 7.31039 26.25 7.31535C26.25 7.32031 26.25 7.3253 26.25 7.33032C26.25 7.33534 26.25 7.34039 26.25 7.34547C26.25 7.35055 26.25 7.35566 26.25 7.3608C26.25 7.36595 26.25 7.37112 26.25 7.37632C26.25 7.38152 26.25 7.38675 26.25 7.39201C26.25 7.39727 26.25 7.40256 26.25 7.40788C26.25 7.4132 26.25 7.41855 26.25 7.42393C26.25 7.42931 26.25 7.43472 26.25 7.44016C26.25 7.4456 26.25 7.45107 26.25 7.45656C26.25 7.46206 26.25 7.46759 26.25 7.47315C26.25 7.4787 26.25 7.48429 26.25 7.4899C26.25 7.49552 26.25 7.50116 26.25 7.50684C26.25 7.51251 26.25 7.51821 26.25 7.52394C26.25 7.52968 26.25 7.53544 26.25 7.54123C26.25 7.54702 26.25 7.55283 26.25 7.55868C26.25 7.56453 26.25 7.5704 26.25 7.57631C26.25 7.58221 26.25 7.58815 26.25 7.59411C26.25 7.60007 26.25 7.60606 26.25 7.61208C26.25 7.6181 26.25 7.62415 26.25 7.63023C26.25 7.6363 26.25 7.64241 26.25 7.64854C26.25 7.65467 26.25 7.66083 26.25 7.66702C26.25 7.67321 26.25 7.67943 26.25 7.68568C26.25 7.69192 26.25 7.6982 26.25 7.7045C26.25 7.7108 26.25 7.71713 26.25 7.72349C26.25 7.72985 26.25 7.73624 26.25 7.74265C26.25 7.74906 26.25 7.7555 26.25 7.76197C26.25 7.76844 26.25 7.77494 26.25 7.78147C26.25 7.78799 26.25 7.79454 26.25 7.80112C26.25 7.8077 26.25 7.81431 26.25 7.82095C26.25 7.82758 26.25 7.83424 26.25 7.84093C26.25 7.84762 26.25 7.85434 26.25 7.86108C26.25 7.86783 26.25 7.8746 26.25 7.8814C26.25 7.8882 26.25 7.89502 26.25 7.90188C26.25 7.90873 26.25 7.91561 26.25 7.92251C26.25 7.92942 26.25 7.93636 26.25 7.94332C26.25 7.95028 26.25 7.95726 26.25 7.96428C26.25 7.97129 26.25 7.97833 26.25 7.9854C26.25 7.99247 26.25 7.99956 26.25 8.00668C26.25 8.0138 26.25 8.02095 26.25 8.02812C26.25 8.0353 26.25 8.0425 26.25 8.04972C26.25 8.05695 26.25 8.0642 26.25 8.07148C26.25 8.07876 26.25 8.08607 26.25 8.0934C26.25 8.10073 26.25 8.10809 26.25 8.11547C26.25 8.12285 26.25 8.13026 26.25 8.1377C26.25 8.14513 26.25 8.15259 26.25 8.16008C26.25 8.16757 26.25 8.17508 26.25 8.18262C26.25 8.19016 26.25 8.19772 26.25 8.20531C26.25 8.2129 26.25 8.22052 26.25 8.22816C26.25 8.2358 26.25 8.24347 26.25 8.25116C26.25 8.25885 26.25 8.26657 26.25 8.27431C26.25 8.28206 26.25 8.28983 26.25 8.29762C26.25 8.30541 26.25 8.31323 26.25 8.32108C26.25 8.32892 26.25 8.33679 26.25 8.34468C26.25 8.35258 26.25 8.3605 26.25 8.36844C26.25 8.37638 26.25 8.38435 26.25 8.39235C26.25 8.40034 26.25 8.40836 26.25 8.4164C26.25 8.42445 26.25 8.43251 26.25 8.44061C26.25 8.4487 26.25 8.45682 26.25 8.46496C26.25 8.4731 26.25 8.48127 26.25 8.48946C26.25 8.49765 26.25 8.50586 26.25 8.5141C26.25 8.52234 26.25 8.53061 26.25 8.5389C26.25 8.54718 26.25 8.5555 26.25 8.56383C26.25 8.57217 26.25 8.58053 26.25 8.58892C26.25 8.5973 26.25 8.60571 26.25 8.61414C26.25 8.62258 26.25 8.63103 26.25 8.63951C26.25 8.64799 26.25 8.6565 26.25 8.66503C26.25 8.67355 26.25 8.68211 26.25 8.69068C26.25 8.69926 26.25 8.70786 26.25 8.71648C26.25 8.7251 26.25 8.73375 26.25 8.74242C26.25 8.75109 26.25 8.75978 26.25 8.7685C26.25 8.77721 26.25 8.78595 26.25 8.79472C26.25 8.80348 26.25 8.81226 26.25 8.82107C26.25 8.82988 26.25 8.83872 26.25 8.84757C26.25 8.85643 26.25 8.86531 26.25 8.87421C26.25 8.88311 26.25 8.89203 26.25 8.90098C26.25 8.90993 26.25 8.9189 26.25 8.92789C26.25 8.93688 26.25 8.9459 26.25 8.95494C26.25 8.96398 26.25 8.97304 26.25 8.98212C26.25 8.9912 26.25 9.00031 26.25 9.00944C26.25 9.01857 26.25 9.02772 26.25 9.03689C26.25 9.04606 26.25 9.05526 26.25 9.06448C26.25 9.07369 26.25 9.08293 26.25 9.0922C26.25 9.10146 26.25 9.11074 26.25 9.12005C26.25 9.12936 26.25 9.13868 26.25 9.14803C26.25 9.15738 26.25 9.16676 26.25 9.17615C26.25 9.18554 26.25 9.19496 26.25 9.2044C26.25 9.21384 26.25 9.2233 26.25 9.23278C26.25 9.24226 26.25 9.25176 26.25 9.26128C26.25 9.27081 26.25 9.28035 26.25 9.28992C26.25 9.29949 26.25 9.30908 26.25 9.31869C26.25 9.3283 26.25 9.33793 26.25 9.34758C26.25 9.35723 26.25 9.36691 26.25 9.3766C26.25 9.3863 26.25 9.39601 26.25 9.40575C26.25 9.41549 26.25 9.42525 26.25 9.43502C26.25 9.4448 26.25 9.4546 26.25 9.46442C26.25 9.47424 26.25 9.48409 26.25 9.49395C26.25 9.50381 26.25 9.51369 26.25 9.5236C26.25 9.5335 26.25 9.54343 26.25 9.55337C26.25 9.56332 26.25 9.57328 26.25 9.58327C26.25 9.59325 26.25 9.60326 26.25 9.61329C26.25 9.62331 26.25 9.63336 26.25 9.64343C26.25 9.6535 26.25 9.66358 26.25 9.67369C26.25 9.6838 26.25 9.69393 26.25 9.70407C26.25 9.71422 26.25 9.72439 26.25 9.73458C26.25 9.74477 26.25 9.75497 26.25 9.7652C26.25 9.77543 26.25 9.78568 26.25 9.79594C26.25 9.80621 26.25 9.8165 26.25 9.8268C26.25 9.83711 26.25 9.84744 26.25 9.85778C26.25 9.86813 26.25 9.87849 26.25 9.88888C26.25 9.89926 26.25 9.90967 26.25 9.92009C26.25 9.93052 26.25 9.94096 26.25 9.95142C26.25 9.96188 26.25 9.97236 26.25 9.98286C26.25 9.99336 26.25 10.0039 26.25 10.0144C26.25 10.025 26.25 10.0355 26.25 10.0461C26.25 10.0567 26.25 10.0673 26.25 10.0779C26.25 10.0885 26.25 10.0991 26.25 10.1098C26.25 10.1204 26.25 10.1311 26.25 10.1418C26.25 10.1525 26.25 10.1632 26.25 10.1739C26.25 10.1846 26.25 10.1954 26.25 10.2062C26.25 10.2169 26.25 10.2277 26.25 10.2385C26.25 10.2493 26.25 10.2601 26.25 10.271C26.25 10.2818 26.25 10.2926 26.25 10.3035C26.25 10.3144 26.25 10.3253 26.25 10.3362C26.25 10.3471 26.25 10.358 26.25 10.369C26.25 10.3799 26.25 10.3909 26.25 10.4019C26.25 10.4129 26.25 10.4239 26.25 10.4349C26.25 10.4459 26.25 10.4569 26.25 10.468C26.25 10.479 26.25 10.4901 26.25 10.5012C26.25 10.5123 26.25 10.5234 26.25 10.5345C26.25 10.5456 26.25 10.5568 26.25 10.5679C26.25 10.5791 26.25 10.5902 26.25 10.6014C26.25 10.6126 26.25 10.6238 26.25 10.6351C26.25 10.6463 26.25 10.6575 26.25 10.6688C26.25 10.6801 26.25 10.6913 26.25 10.7026C26.25 10.7139 26.25 10.7252 26.25 10.7366C26.25 10.7479 26.25 10.7592 26.25 10.7706C26.25 10.782 26.25 10.7933 26.25 10.8047C26.25 10.8161 26.25 10.8275 26.25 10.839C26.25 10.8504 26.25 10.8618 26.25 10.8733C26.25 10.8848 26.25 10.8962 26.25 10.9077C26.25 10.9192 26.25 10.9307 26.25 10.9423C26.25 10.9538 26.25 10.9653 26.25 10.9769C26.25 10.9885 26.25 11 26.25 11.0116C26.25 11.0232 26.25 11.0348 26.25 11.0464C26.25 11.0581 26.25 11.0697 26.25 11.0814C26.25 11.093 26.25 11.1047 26.25 11.1164C26.25 11.1281 26.25 11.1398 26.25 11.1515C26.25 11.1632 26.25 11.1749 26.25 11.1867C26.25 11.1984 26.25 11.2102 26.25 11.222C26.25 11.2338 26.25 11.2456 26.25 11.2574C26.25 11.2692 26.25 11.281 26.25 11.2928C26.25 11.3047 26.25 11.3165 26.25 11.3284C26.25 11.3403 26.25 11.3522 26.25 11.3641C26.25 11.376 26.25 11.3879 26.25 11.3998C26.25 11.4118 26.25 11.4237 26.25 11.4357C26.25 11.4476 26.25 11.4596 26.25 11.4716C26.25 11.4836 26.25 11.4956 26.25 11.5076C26.25 11.5196 26.25 11.5317 26.25 11.5437C26.25 11.5558 26.25 11.5678 26.25 11.5799C26.25 11.592 26.25 11.6041 26.25 11.6162C26.25 11.6283 26.25 11.6404 26.25 11.6526C26.25 11.6647 26.25 11.6769 26.25 11.689C26.25 11.7012 26.25 11.7134 26.25 11.7256C26.25 11.7378 26.25 11.75 26.25 11.7622C26.25 11.7744 26.25 11.7866 26.25 11.7989C26.25 11.8111 26.25 11.8234 26.25 11.8357C26.25 11.848 26.25 11.8602 26.25 11.8726C26.25 11.8849 26.25 11.8972 26.25 11.9095C26.25 11.9218 26.25 11.9342 26.25 11.9465C26.25 11.9589 26.25 11.9713 26.25 11.9837C26.25 11.996 26.25 12.0084 26.25 12.0209C26.25 12.0333 26.25 12.0457 26.25 12.0581C26.25 12.0706 26.25 12.083 26.25 12.0955C26.25 12.1079 26.25 12.1204 26.25 12.1329C26.25 12.1454 26.25 12.1579 26.25 12.1704C26.25 12.1829 26.25 12.1955 26.25 12.208C26.25 12.2205 26.25 12.2331 26.25 12.2457C26.25 12.2582 26.25 12.2708 26.25 12.2834C26.25 12.296 26.25 12.3086 26.25 12.3212C26.25 12.3338 26.25 12.3465 26.25 12.3591C26.25 12.3718 26.25 12.3844 26.25 12.3971C26.25 12.4097 26.25 12.4224 26.25 12.4351C26.25 12.4478 26.25 12.4605 26.25 12.4732C26.25 12.4859 26.25 12.4987 26.25 12.5114C26.25 12.5241 26.25 12.5369 26.25 12.5497C26.25 12.5624 26.25 12.5752 26.25 12.588C26.25 12.6008 26.25 12.6136 26.25 12.6264C26.25 12.6392 26.25 12.652 26.25 12.6648C26.25 12.6777 26.25 12.6905 26.25 12.7034C26.25 12.7162 26.25 12.7291 26.25 12.742C26.25 12.7549 26.25 12.7678 26.25 12.7807C26.25 12.7936 26.25 12.8065 26.25 12.8194C26.25 12.8323 26.25 12.8453 26.25 12.8582C26.25 12.8711 26.25 12.8841 26.25 12.8971C26.25 12.91 26.25 12.923 26.25 12.936C26.25 12.949 26.25 12.962 26.25 12.975C26.25 12.988 26.25 13.001 26.25 13.0141C26.25 13.0271 26.25 13.0402 26.25 13.0532C26.25 13.0663 26.25 13.0793 26.25 13.0924C26.25 13.1055 26.25 13.1186 26.25 13.1317C26.25 13.1448 26.25 13.1579 26.25 13.171C26.25 13.1841 26.25 13.1972 26.25 13.2104C26.25 13.2235 26.25 13.2366 26.25 13.2498C26.25 13.263 26.25 13.2761 26.25 13.2893C26.25 13.3025 26.25 13.3157 26.25 13.3289C26.25 13.3421 26.25 13.3553 26.25 13.3685C26.25 13.3817 26.25 13.3949 26.25 13.4082C26.25 13.4214 26.25 13.4347 26.25 13.4479C26.25 13.4612 26.25 13.4744 26.25 13.4877C26.25 13.501 26.25 13.5143 26.25 13.5276C26.25 13.5408 26.25 13.5542 26.25 13.5675C26.25 13.5808 26.25 13.5941 26.25 13.6074C26.25 13.6208 26.25 13.6341 26.25 13.6474C26.25 13.6608 26.25 13.6742 26.25 13.6875C26.25 13.7009 26.25 13.7143 26.25 13.7276C26.25 13.741 26.25 13.7544 26.25 13.7678C26.25 13.7812 26.25 13.7946 26.25 13.8081C26.25 13.8215 26.25 13.8349 26.25 13.8483C26.25 13.8618 26.25 13.8752 26.25 13.8887C26.25 13.9021 26.25 13.9156 26.25 13.9291C26.25 13.9425 26.25 13.956 26.25 13.9695C26.25 13.983 26.25 13.9965 26.25 14.01C26.25 14.0235 26.25 14.037 26.25 14.0505C26.25 14.064 26.25 14.0776 26.25 14.0911C26.25 14.1046 26.25 14.1182 26.25 14.1317C26.25 14.1453 26.25 14.1588 26.25 14.1724C26.25 14.186 26.25 14.1996 26.25 14.2131C26.25 14.2267 26.25 14.2403 26.25 14.2539C26.25 14.2675 26.25 14.2811 26.25 14.2947C26.25 14.3083 26.25 14.322 26.25 14.3356C26.25 14.3492 26.25 14.3628 26.25 14.3765C26.25 14.3901 26.25 14.4038 26.25 14.4174C26.25 14.4311 26.25 14.4448 26.25 14.4584C26.25 14.4721 26.25 14.4858 26.25 14.4995C26.25 14.5131 26.25 14.5268 26.25 14.5405C26.25 14.5542 26.25 14.5679 26.25 14.5817C26.25 14.5954 26.25 14.6091 26.25 14.6228C26.25 14.6365 26.25 14.6503 26.25 14.664C26.25 14.6777 26.25 14.6915 26.25 14.7052C26.25 14.719 26.25 14.7328 26.25 14.7465C26.25 14.7603 26.25 14.7741 26.25 14.7878C26.25 14.8016 26.25 14.8154 26.25 14.8292C26.25 14.843 26.25 14.8568 26.25 14.8706C26.25 14.8844 26.25 14.8982 26.25 14.912C26.25 14.9258 26.25 14.9396 26.25 14.9535C26.25 14.9673 26.25 14.9811 26.25 14.9949C26.25 15.0088 26.25 15.0226 26.25 15.0365C26.25 15.0503 26.25 15.0642 26.25 15.078C26.25 15.0919 26.25 15.1058 26.25 15.1196C26.25 15.1335 26.25 15.1474 26.25 15.1613C26.25 15.1751 26.25 15.189 26.25 15.2029C26.25 15.2168 26.25 15.2307 26.25 15.2446C26.25 15.2585 26.25 15.2724 26.25 15.2863C26.25 15.3003 26.25 15.3142 26.25 15.3281C26.25 15.342 26.25 15.356 26.25 15.3699C26.25 15.3838 26.25 15.3978 26.25 15.4117C26.25 15.4256 26.25 15.4396 26.25 15.4535C26.25 15.4675 26.25 15.4814 26.25 15.4954C26.25 15.5094 26.25 15.5233 26.25 15.5373C26.25 15.5513 26.25 15.5653 26.25 15.5792C26.25 15.5932 26.25 15.6072 26.25 15.6212C26.25 15.6352 26.25 15.6492 26.25 15.6632C26.25 15.6772 26.25 15.6912 26.25 15.7052C26.25 15.7192 26.25 15.7332 26.25 15.7472C26.25 15.7612 26.25 15.7752 26.25 15.7892C26.25 15.8033 26.25 15.8173 26.25 15.8313C26.25 15.8453 26.25 15.8594 26.25 15.8734C26.25 15.8874 26.25 15.9015 26.25 15.9155C26.25 15.9296 26.25 15.9436 26.25 15.9577C26.25 15.9717 26.25 15.9858 26.25 15.9998C26.25 16.0139 26.25 16.0279 26.25 16.042C26.25 16.0561 26.25 16.0701 26.25 16.0842C26.25 16.0983 26.25 16.1123 26.25 16.1264C26.25 16.1405 26.25 16.1546 26.25 16.1686C26.25 16.1827 26.25 16.1968 26.25 16.2109C26.25 16.225 26.25 16.2391 26.25 16.2532C26.25 16.2673 26.25 16.2814 26.25 16.2955C26.25 16.3096 26.25 16.3237 26.25 16.3378C26.25 16.3519 26.25 16.366 26.25 16.3801C26.25 16.3942 26.25 16.4083 26.25 16.4224C26.25 16.4365 26.25 16.4506 26.25 16.4648C26.25 16.4789 26.25 16.493 26.25 16.5071C26.25 16.5213 26.25 16.5354 26.25 16.5495C26.25 16.5636 26.25 16.5778 26.25 16.5919C26.25 16.606 26.25 16.6202 26.25 16.6343C26.25 16.6484 26.25 16.6626 26.25 16.6767C26.25 16.6908 26.25 16.705 26.25 16.7191C26.25 16.7333 26.25 16.7474 26.25 16.7616C26.25 16.7757 26.25 16.7898 26.25 16.804C26.25 16.8181 26.25 16.8323 26.25 16.8464C26.25 16.8606 26.25 16.8747 26.25 16.8889C26.25 16.9031 26.25 16.9172 26.25 16.9314C26.25 16.9455 26.25 16.9597 26.25 16.9738C26.25 16.988 26.25 17.0022 26.25 17.0163C26.25 17.0305 26.25 17.0446 26.25 17.0588C26.25 17.073 26.25 17.0871 26.25 17.1013C26.25 17.1154 26.25 17.1296 26.25 17.1438C26.25 17.1579 26.25 17.1721 26.25 17.1863C26.25 17.2004 26.25 17.2146 26.25 17.2288C26.25 17.2429 26.25 17.2571 26.25 17.2713C26.25 17.2854 26.25 17.2996 26.25 17.3138C26.25 17.328 26.25 17.3421 26.25 17.3563C26.25 17.3705 26.25 17.3846 26.25 17.3988C26.25 17.413 26.25 17.4271 26.25 17.4413C26.25 17.4555 26.25 17.4697 26.25 17.4838C26.25 17.498 26.25 17.5122 26.25 17.5263C26.25 17.5405 26.25 17.5547 26.25 17.5688C26.25 17.583 26.25 17.5972 26.25 17.6113C26.25 17.6255 26.25 17.6397 26.25 17.6538C26.25 17.668 26.25 17.6822 26.25 17.6963C26.25 17.7105 26.25 17.7247 26.25 17.7388C26.25 17.753 26.25 17.7672 26.25 17.7813C26.25 17.7955 26.25 17.8097 26.25 17.8238C26.25 17.838 26.25 17.8521 26.25 17.8663C26.25 17.8805 26.25 17.8946 26.25 17.9088C26.25 17.9229 26.25 17.9371 26.25 17.9512C26.25 17.9654 26.25 17.9795 26.25 17.9937C26.25 18.0078 26.25 18.022 26.25 18.0361C26.25 18.0503 26.25 18.0644 26.25 18.0786C26.25 18.0927 26.25 18.1069 26.25 18.121C26.25 18.1352 26.25 18.1493 26.25 18.1634C26.25 18.1776 26.25 18.1917 26.25 18.2059C26.25 18.22 26.25 18.2341 26.25 18.2483C26.25 18.2624 26.25 18.2765 26.25 18.2907C26.25 18.3048 26.25 18.3189 26.25 18.333C26.25 18.3472 26.25 18.3613 26.25 18.3754C26.25 18.3895 26.25 18.4036 26.25 18.4178C26.25 18.4319 26.25 18.446 26.25 18.4601C26.25 18.4742 26.25 18.4883 26.25 18.5024C26.25 18.5165 26.25 18.5306 26.25 18.5447C26.25 18.5588 26.25 18.5729 26.25 18.587C26.25 18.6011 26.25 18.6152 26.25 18.6293C26.25 18.6434 26.25 18.6575 26.25 18.6716C26.25 18.6856 26.25 18.6997 26.25 18.7138C26.25 18.7279 26.25 18.742 26.25 18.756C26.25 18.7701 26.25 18.7842 26.25 18.7982C26.25 18.8123 26.25 18.8264 26.25 18.8404C26.25 18.8545 26.25 18.8685 26.25 18.8826C26.25 18.8966 26.25 18.9107 26.25 18.9247C26.25 18.9388 26.25 18.9528 26.25 18.9669C26.25 18.9809 26.25 18.9949 26.25 19.009C26.25 19.023 26.25 19.037 26.25 19.051C26.25 19.0651 26.25 19.0791 26.25 19.0931C26.25 19.1071 26.25 19.1211 26.25 19.1351C26.25 19.1491 26.25 19.1631 26.25 19.1771C26.25 19.1911 26.25 19.2051 26.25 19.2191C26.25 19.2331 26.25 19.2471 26.25 19.2611C26.25 19.2751 26.25 19.289 26.25 19.303C26.25 19.317 26.25 19.331 26.25 19.3449C26.25 19.3589 26.25 19.3729 26.25 19.3868C26.25 19.4008 26.25 19.4147 26.25 19.4287C26.25 19.4426 26.25 19.4565 26.25 19.4705C26.25 19.4844 26.25 19.4984 26.25 19.5123C26.25 19.5262 26.25 19.5401 26.25 19.554C26.25 19.568 26.25 19.5819 26.25 19.5958C26.25 19.6097 26.25 19.6236 26.25 19.6375C26.25 19.6514 26.25 19.6653 26.25 19.6792C26.25 19.693 26.25 19.7069 26.25 19.7208C26.25 19.7347 26.25 19.7485 26.25 19.7624C26.25 19.7763 26.25 19.7901 26.25 19.804C26.25 19.8178 26.25 19.8317 26.25 19.8455C26.25 19.8594 26.25 19.8732 26.25 19.887C26.25 19.9009 26.25 19.9147 26.25 19.9285C26.25 19.9423 26.25 19.9561 26.25 19.9699C26.25 19.9837 26.25 19.9975 26.25 20.0113C26.25 20.0251 26.25 20.0389 26.25 20.0527C26.25 20.0665 26.25 20.0803 26.25 20.094C26.25 20.1078 26.25 20.1216 26.25 20.1353C26.25 20.1491 26.25 20.1628 26.25 20.1766C26.25 20.1903 26.25 20.2041 26.25 20.2178C26.25 20.2315 26.25 20.2452 26.25 20.259C26.25 20.2727 26.25 20.2864 26.25 20.3001C26.25 20.3138 26.25 20.3275 26.25 20.3412C26.25 20.3549 26.25 20.3685 26.25 20.3822C26.25 20.3959 26.25 20.4096 26.25 20.4232C26.25 20.4369 26.25 20.4505 26.25 20.4642C26.25 20.4778 26.25 20.4915 26.25 20.5051C26.25 20.5187 26.25 20.5324 26.25 20.546C26.25 20.5596 26.25 20.5732 26.25 20.5868C26.25 20.6004 26.25 20.614 26.25 20.6276C26.25 20.6412 26.25 20.6548 26.25 20.6684C26.25 20.6819 26.25 20.6955 26.25 20.709C26.25 20.7226 26.25 20.7362 26.25 20.7497C26.25 20.7632 26.25 20.7768 26.25 20.7903C26.25 20.8038 26.25 20.8173 26.25 20.8308C26.25 20.8444 26.25 20.8579 26.25 20.8714C26.25 20.8848 26.25 20.8983 26.25 20.9118C26.25 20.9253 26.25 20.9387 26.25 20.9522C26.25 20.9657 26.25 20.9791 26.25 20.9926C26.25 21.006 26.25 21.0194 26.25 21.0329C26.25 21.0463 26.25 21.0597 26.25 21.0731C26.25 21.0865 26.25 21.0999 26.25 21.1133C26.25 21.1267 26.25 21.1401 26.25 21.1535C26.25 21.1668 26.25 21.1802 26.25 21.1936C26.25 21.2069 26.25 21.2203 26.25 21.2336C26.25 21.2469 26.25 21.2603 26.25 21.2736C26.25 21.2869 26.25 21.3002 26.25 21.3135C26.25 21.3268 26.25 21.3401 26.25 21.3534C26.25 21.3667 26.25 21.3799 26.25 21.3932C26.25 21.4065 26.25 21.4197 26.25 21.4329C26.25 21.4462 26.25 21.4594 26.25 21.4726C26.25 21.4859 26.25 21.4991 26.25 21.5123C26.25 21.5255 26.25 21.5387 26.25 21.5519C26.25 21.5651 26.25 21.5782 26.25 21.5914C26.25 21.6046 26.25 21.6177 26.25 21.6309C26.25 21.644 26.25 21.6571 26.25 21.6703C26.25 21.6834 26.25 21.6965 26.25 21.7096C26.25 21.7227 26.25 21.7358 26.25 21.7489C26.25 21.762 26.25 21.775 26.25 21.7881C26.25 21.8012 26.25 21.8142 26.25 21.8273C26.25 21.8403 26.25 21.8533 26.25 21.8663C26.25 21.8794 26.25 21.8924 26.25 21.9054C26.25 21.9184 26.25 21.9314 26.25 21.9443C26.25 21.9573 26.25 21.9703 26.25 21.9832C26.25 21.9962 26.25 22.0091 26.25 22.0221C26.25 22.035 26.25 22.0479 26.25 22.0608C26.25 22.0737 26.25 22.0866 26.25 22.0995C26.25 22.1124 26.25 22.1253 26.25 22.1381C26.25 22.151 26.25 22.1639 26.25 22.1767C26.25 22.1895 26.25 22.2024 26.25 22.2152C26.25 22.228 26.25 22.2408 26.25 22.2536C26.25 22.2664 26.25 22.2792 26.25 22.292C26.25 22.3047 26.25 22.3175 26.25 22.3302C26.25 22.343 26.25 22.3557 26.25 22.3685C26.25 22.3812 26.25 22.3939 26.25 22.4066C26.25 22.4193 26.25 22.432 26.25 22.4447C26.25 22.4573 26.25 22.47 26.25 22.4826C26.25 22.4953 26.25 22.5079 26.25 22.5206C26.25 22.5332 26.25 22.5458 26.25 22.5584C26.25 22.571 26.25 22.5836 26.25 22.5962C26.25 22.6087 26.25 22.6213 26.25 22.6339C26.25 22.6464 26.25 22.6589 26.25 22.6715C26.25 22.684 26.25 22.6965 26.25 22.709C26.25 22.7215 26.25 22.734 26.25 22.7465C26.25 22.7589 26.25 22.7714 26.25 22.7839C26.25 22.7963 26.25 22.8087 26.25 22.8212C26.25 22.8336 26.25 22.846 26.25 22.8584C26.25 22.8708 26.25 22.8832 26.25 22.8955C26.25 22.9079 26.25 22.9202 26.25 22.9326H27.75C27.75 22.9202 27.75 22.9079 27.75 22.8955C27.75 22.8832 27.75 22.8708 27.75 22.8584C27.75 22.846 27.75 22.8336 27.75 22.8212C27.75 22.8087 27.75 22.7963 27.75 22.7839C27.75 22.7714 27.75 22.7589 27.75 22.7465C27.75 22.734 27.75 22.7215 27.75 22.709C27.75 22.6965 27.75 22.684 27.75 22.6715C27.75 22.6589 27.75 22.6464 27.75 22.6339C27.75 22.6213 27.75 22.6087 27.75 22.5962C27.75 22.5836 27.75 22.571 27.75 22.5584C27.75 22.5458 27.75 22.5332 27.75 22.5206C27.75 22.5079 27.75 22.4953 27.75 22.4826C27.75 22.47 27.75 22.4573 27.75 22.4447C27.75 22.432 27.75 22.4193 27.75 22.4066C27.75 22.3939 27.75 22.3812 27.75 22.3685C27.75 22.3557 27.75 22.343 27.75 22.3302C27.75 22.3175 27.75 22.3047 27.75 22.292C27.75 22.2792 27.75 22.2664 27.75 22.2536C27.75 22.2408 27.75 22.228 27.75 22.2152C27.75 22.2024 27.75 22.1895 27.75 22.1767C27.75 22.1639 27.75 22.151 27.75 22.1381C27.75 22.1253 27.75 22.1124 27.75 22.0995C27.75 22.0866 27.75 22.0737 27.75 22.0608C27.75 22.0479 27.75 22.035 27.75 22.0221C27.75 22.0091 27.75 21.9962 27.75 21.9832C27.75 21.9703 27.75 21.9573 27.75 21.9443C27.75 21.9314 27.75 21.9184 27.75 21.9054C27.75 21.8924 27.75 21.8794 27.75 21.8663C27.75 21.8533 27.75 21.8403 27.75 21.8273C27.75 21.8142 27.75 21.8012 27.75 21.7881C27.75 21.775 27.75 21.762 27.75 21.7489C27.75 21.7358 27.75 21.7227 27.75 21.7096C27.75 21.6965 27.75 21.6834 27.75 21.6703C27.75 21.6571 27.75 21.644 27.75 21.6309C27.75 21.6177 27.75 21.6046 27.75 21.5914C27.75 21.5782 27.75 21.5651 27.75 21.5519C27.75 21.5387 27.75 21.5255 27.75 21.5123C27.75 21.4991 27.75 21.4859 27.75 21.4726C27.75 21.4594 27.75 21.4462 27.75 21.4329C27.75 21.4197 27.75 21.4065 27.75 21.3932C27.75 21.3799 27.75 21.3667 27.75 21.3534C27.75 21.3401 27.75 21.3268 27.75 21.3135C27.75 21.3002 27.75 21.2869 27.75 21.2736C27.75 21.2603 27.75 21.2469 27.75 21.2336C27.75 21.2203 27.75 21.2069 27.75 21.1936C27.75 21.1802 27.75 21.1668 27.75 21.1535C27.75 21.1401 27.75 21.1267 27.75 21.1133C27.75 21.0999 27.75 21.0865 27.75 21.0731C27.75 21.0597 27.75 21.0463 27.75 21.0329C27.75 21.0194 27.75 21.006 27.75 20.9926C27.75 20.9791 27.75 20.9657 27.75 20.9522C27.75 20.9387 27.75 20.9253 27.75 20.9118C27.75 20.8983 27.75 20.8848 27.75 20.8714C27.75 20.8579 27.75 20.8444 27.75 20.8308C27.75 20.8173 27.75 20.8038 27.75 20.7903C27.75 20.7768 27.75 20.7632 27.75 20.7497C27.75 20.7362 27.75 20.7226 27.75 20.709C27.75 20.6955 27.75 20.6819 27.75 20.6684C27.75 20.6548 27.75 20.6412 27.75 20.6276C27.75 20.614 27.75 20.6004 27.75 20.5868C27.75 20.5732 27.75 20.5596 27.75 20.546C27.75 20.5324 27.75 20.5187 27.75 20.5051C27.75 20.4915 27.75 20.4778 27.75 20.4642C27.75 20.4505 27.75 20.4369 27.75 20.4232C27.75 20.4096 27.75 20.3959 27.75 20.3822C27.75 20.3685 27.75 20.3549 27.75 20.3412C27.75 20.3275 27.75 20.3138 27.75 20.3001C27.75 20.2864 27.75 20.2727 27.75 20.259C27.75 20.2452 27.75 20.2315 27.75 20.2178C27.75 20.2041 27.75 20.1903 27.75 20.1766C27.75 20.1628 27.75 20.1491 27.75 20.1353C27.75 20.1216 27.75 20.1078 27.75 20.094C27.75 20.0803 27.75 20.0665 27.75 20.0527C27.75 20.0389 27.75 20.0251 27.75 20.0113C27.75 19.9975 27.75 19.9837 27.75 19.9699C27.75 19.9561 27.75 19.9423 27.75 19.9285C27.75 19.9147 27.75 19.9009 27.75 19.887C27.75 19.8732 27.75 19.8594 27.75 19.8455C27.75 19.8317 27.75 19.8178 27.75 19.804C27.75 19.7901 27.75 19.7763 27.75 19.7624C27.75 19.7485 27.75 19.7347 27.75 19.7208C27.75 19.7069 27.75 19.693 27.75 19.6792C27.75 19.6653 27.75 19.6514 27.75 19.6375C27.75 19.6236 27.75 19.6097 27.75 19.5958C27.75 19.5819 27.75 19.568 27.75 19.554C27.75 19.5401 27.75 19.5262 27.75 19.5123C27.75 19.4984 27.75 19.4844 27.75 19.4705C27.75 19.4565 27.75 19.4426 27.75 19.4287C27.75 19.4147 27.75 19.4008 27.75 19.3868C27.75 19.3729 27.75 19.3589 27.75 19.3449C27.75 19.331 27.75 19.317 27.75 19.303C27.75 19.289 27.75 19.2751 27.75 19.2611C27.75 19.2471 27.75 19.2331 27.75 19.2191C27.75 19.2051 27.75 19.1911 27.75 19.1771C27.75 19.1631 27.75 19.1491 27.75 19.1351C27.75 19.1211 27.75 19.1071 27.75 19.0931C27.75 19.0791 27.75 19.0651 27.75 19.051C27.75 19.037 27.75 19.023 27.75 19.009C27.75 18.9949 27.75 18.9809 27.75 18.9669C27.75 18.9528 27.75 18.9388 27.75 18.9247C27.75 18.9107 27.75 18.8966 27.75 18.8826C27.75 18.8685 27.75 18.8545 27.75 18.8404C27.75 18.8264 27.75 18.8123 27.75 18.7982C27.75 18.7842 27.75 18.7701 27.75 18.756C27.75 18.742 27.75 18.7279 27.75 18.7138C27.75 18.6997 27.75 18.6856 27.75 18.6716C27.75 18.6575 27.75 18.6434 27.75 18.6293C27.75 18.6152 27.75 18.6011 27.75 18.587C27.75 18.5729 27.75 18.5588 27.75 18.5447C27.75 18.5306 27.75 18.5165 27.75 18.5024C27.75 18.4883 27.75 18.4742 27.75 18.4601C27.75 18.446 27.75 18.4319 27.75 18.4178C27.75 18.4036 27.75 18.3895 27.75 18.3754C27.75 18.3613 27.75 18.3472 27.75 18.333C27.75 18.3189 27.75 18.3048 27.75 18.2907C27.75 18.2765 27.75 18.2624 27.75 18.2483C27.75 18.2341 27.75 18.22 27.75 18.2059C27.75 18.1917 27.75 18.1776 27.75 18.1634C27.75 18.1493 27.75 18.1352 27.75 18.121C27.75 18.1069 27.75 18.0927 27.75 18.0786C27.75 18.0644 27.75 18.0503 27.75 18.0361C27.75 18.022 27.75 18.0078 27.75 17.9937C27.75 17.9795 27.75 17.9654 27.75 17.9512C27.75 17.9371 27.75 17.9229 27.75 17.9088C27.75 17.8946 27.75 17.8805 27.75 17.8663C27.75 17.8521 27.75 17.838 27.75 17.8238C27.75 17.8097 27.75 17.7955 27.75 17.7813C27.75 17.7672 27.75 17.753 27.75 17.7388C27.75 17.7247 27.75 17.7105 27.75 17.6963C27.75 17.6822 27.75 17.668 27.75 17.6538C27.75 17.6397 27.75 17.6255 27.75 17.6113C27.75 17.5972 27.75 17.583 27.75 17.5688C27.75 17.5547 27.75 17.5405 27.75 17.5263C27.75 17.5122 27.75 17.498 27.75 17.4838C27.75 17.4697 27.75 17.4555 27.75 17.4413C27.75 17.4271 27.75 17.413 27.75 17.3988C27.75 17.3846 27.75 17.3705 27.75 17.3563C27.75 17.3421 27.75 17.328 27.75 17.3138C27.75 17.2996 27.75 17.2854 27.75 17.2713C27.75 17.2571 27.75 17.2429 27.75 17.2288C27.75 17.2146 27.75 17.2004 27.75 17.1863C27.75 17.1721 27.75 17.1579 27.75 17.1438C27.75 17.1296 27.75 17.1154 27.75 17.1013C27.75 17.0871 27.75 17.073 27.75 17.0588C27.75 17.0446 27.75 17.0305 27.75 17.0163C27.75 17.0022 27.75 16.988 27.75 16.9738C27.75 16.9597 27.75 16.9455 27.75 16.9314C27.75 16.9172 27.75 16.9031 27.75 16.8889C27.75 16.8747 27.75 16.8606 27.75 16.8464C27.75 16.8323 27.75 16.8181 27.75 16.804C27.75 16.7898 27.75 16.7757 27.75 16.7616C27.75 16.7474 27.75 16.7333 27.75 16.7191C27.75 16.705 27.75 16.6908 27.75 16.6767C27.75 16.6626 27.75 16.6484 27.75 16.6343C27.75 16.6202 27.75 16.606 27.75 16.5919C27.75 16.5778 27.75 16.5636 27.75 16.5495C27.75 16.5354 27.75 16.5213 27.75 16.5071C27.75 16.493 27.75 16.4789 27.75 16.4648C27.75 16.4506 27.75 16.4365 27.75 16.4224C27.75 16.4083 27.75 16.3942 27.75 16.3801C27.75 16.366 27.75 16.3519 27.75 16.3378C27.75 16.3237 27.75 16.3096 27.75 16.2955C27.75 16.2814 27.75 16.2673 27.75 16.2532C27.75 16.2391 27.75 16.225 27.75 16.2109C27.75 16.1968 27.75 16.1827 27.75 16.1686C27.75 16.1546 27.75 16.1405 27.75 16.1264C27.75 16.1123 27.75 16.0983 27.75 16.0842C27.75 16.0701 27.75 16.0561 27.75 16.042C27.75 16.0279 27.75 16.0139 27.75 15.9998C27.75 15.9858 27.75 15.9717 27.75 15.9577C27.75 15.9436 27.75 15.9296 27.75 15.9155C27.75 15.9015 27.75 15.8874 27.75 15.8734C27.75 15.8594 27.75 15.8453 27.75 15.8313C27.75 15.8173 27.75 15.8033 27.75 15.7892C27.75 15.7752 27.75 15.7612 27.75 15.7472C27.75 15.7332 27.75 15.7192 27.75 15.7052C27.75 15.6912 27.75 15.6772 27.75 15.6632C27.75 15.6492 27.75 15.6352 27.75 15.6212C27.75 15.6072 27.75 15.5932 27.75 15.5792C27.75 15.5653 27.75 15.5513 27.75 15.5373C27.75 15.5233 27.75 15.5094 27.75 15.4954C27.75 15.4814 27.75 15.4675 27.75 15.4535C27.75 15.4396 27.75 15.4256 27.75 15.4117C27.75 15.3978 27.75 15.3838 27.75 15.3699C27.75 15.356 27.75 15.342 27.75 15.3281C27.75 15.3142 27.75 15.3003 27.75 15.2863C27.75 15.2724 27.75 15.2585 27.75 15.2446C27.75 15.2307 27.75 15.2168 27.75 15.2029C27.75 15.189 27.75 15.1751 27.75 15.1613C27.75 15.1474 27.75 15.1335 27.75 15.1196C27.75 15.1058 27.75 15.0919 27.75 15.078C27.75 15.0642 27.75 15.0503 27.75 15.0365C27.75 15.0226 27.75 15.0088 27.75 14.9949C27.75 14.9811 27.75 14.9673 27.75 14.9535C27.75 14.9396 27.75 14.9258 27.75 14.912C27.75 14.8982 27.75 14.8844 27.75 14.8706C27.75 14.8568 27.75 14.843 27.75 14.8292C27.75 14.8154 27.75 14.8016 27.75 14.7878C27.75 14.7741 27.75 14.7603 27.75 14.7465C27.75 14.7328 27.75 14.719 27.75 14.7052C27.75 14.6915 27.75 14.6777 27.75 14.664C27.75 14.6503 27.75 14.6365 27.75 14.6228C27.75 14.6091 27.75 14.5954 27.75 14.5817C27.75 14.5679 27.75 14.5542 27.75 14.5405C27.75 14.5268 27.75 14.5131 27.75 14.4995C27.75 14.4858 27.75 14.4721 27.75 14.4584C27.75 14.4448 27.75 14.4311 27.75 14.4174C27.75 14.4038 27.75 14.3901 27.75 14.3765C27.75 14.3628 27.75 14.3492 27.75 14.3356C27.75 14.322 27.75 14.3083 27.75 14.2947C27.75 14.2811 27.75 14.2675 27.75 14.2539C27.75 14.2403 27.75 14.2267 27.75 14.2131C27.75 14.1996 27.75 14.186 27.75 14.1724C27.75 14.1588 27.75 14.1453 27.75 14.1317C27.75 14.1182 27.75 14.1046 27.75 14.0911C27.75 14.0776 27.75 14.064 27.75 14.0505C27.75 14.037 27.75 14.0235 27.75 14.01C27.75 13.9965 27.75 13.983 27.75 13.9695C27.75 13.956 27.75 13.9425 27.75 13.9291C27.75 13.9156 27.75 13.9021 27.75 13.8887C27.75 13.8752 27.75 13.8618 27.75 13.8483C27.75 13.8349 27.75 13.8215 27.75 13.8081C27.75 13.7946 27.75 13.7812 27.75 13.7678C27.75 13.7544 27.75 13.741 27.75 13.7276C27.75 13.7143 27.75 13.7009 27.75 13.6875C27.75 13.6742 27.75 13.6608 27.75 13.6474C27.75 13.6341 27.75 13.6208 27.75 13.6074C27.75 13.5941 27.75 13.5808 27.75 13.5675C27.75 13.5542 27.75 13.5408 27.75 13.5276C27.75 13.5143 27.75 13.501 27.75 13.4877C27.75 13.4744 27.75 13.4612 27.75 13.4479C27.75 13.4347 27.75 13.4214 27.75 13.4082C27.75 13.3949 27.75 13.3817 27.75 13.3685C27.75 13.3553 27.75 13.3421 27.75 13.3289C27.75 13.3157 27.75 13.3025 27.75 13.2893C27.75 13.2761 27.75 13.263 27.75 13.2498C27.75 13.2366 27.75 13.2235 27.75 13.2104C27.75 13.1972 27.75 13.1841 27.75 13.171C27.75 13.1579 27.75 13.1448 27.75 13.1317C27.75 13.1186 27.75 13.1055 27.75 13.0924C27.75 13.0793 27.75 13.0663 27.75 13.0532C27.75 13.0402 27.75 13.0271 27.75 13.0141C27.75 13.001 27.75 12.988 27.75 12.975C27.75 12.962 27.75 12.949 27.75 12.936C27.75 12.923 27.75 12.91 27.75 12.8971C27.75 12.8841 27.75 12.8711 27.75 12.8582C27.75 12.8453 27.75 12.8323 27.75 12.8194C27.75 12.8065 27.75 12.7936 27.75 12.7807C27.75 12.7678 27.75 12.7549 27.75 12.742C27.75 12.7291 27.75 12.7162 27.75 12.7034C27.75 12.6905 27.75 12.6777 27.75 12.6648C27.75 12.652 27.75 12.6392 27.75 12.6264C27.75 12.6136 27.75 12.6008 27.75 12.588C27.75 12.5752 27.75 12.5624 27.75 12.5497C27.75 12.5369 27.75 12.5241 27.75 12.5114C27.75 12.4987 27.75 12.4859 27.75 12.4732C27.75 12.4605 27.75 12.4478 27.75 12.4351C27.75 12.4224 27.75 12.4097 27.75 12.3971C27.75 12.3844 27.75 12.3718 27.75 12.3591C27.75 12.3465 27.75 12.3338 27.75 12.3212C27.75 12.3086 27.75 12.296 27.75 12.2834C27.75 12.2708 27.75 12.2582 27.75 12.2457C27.75 12.2331 27.75 12.2205 27.75 12.208C27.75 12.1955 27.75 12.1829 27.75 12.1704C27.75 12.1579 27.75 12.1454 27.75 12.1329C27.75 12.1204 27.75 12.1079 27.75 12.0955C27.75 12.083 27.75 12.0706 27.75 12.0581C27.75 12.0457 27.75 12.0333 27.75 12.0209C27.75 12.0084 27.75 11.996 27.75 11.9837C27.75 11.9713 27.75 11.9589 27.75 11.9465C27.75 11.9342 27.75 11.9218 27.75 11.9095C27.75 11.8972 27.75 11.8849 27.75 11.8726C27.75 11.8602 27.75 11.848 27.75 11.8357C27.75 11.8234 27.75 11.8111 27.75 11.7989C27.75 11.7866 27.75 11.7744 27.75 11.7622C27.75 11.75 27.75 11.7378 27.75 11.7256C27.75 11.7134 27.75 11.7012 27.75 11.689C27.75 11.6769 27.75 11.6647 27.75 11.6526C27.75 11.6404 27.75 11.6283 27.75 11.6162C27.75 11.6041 27.75 11.592 27.75 11.5799C27.75 11.5678 27.75 11.5558 27.75 11.5437C27.75 11.5317 27.75 11.5196 27.75 11.5076C27.75 11.4956 27.75 11.4836 27.75 11.4716C27.75 11.4596 27.75 11.4476 27.75 11.4357C27.75 11.4237 27.75 11.4118 27.75 11.3998C27.75 11.3879 27.75 11.376 27.75 11.3641C27.75 11.3522 27.75 11.3403 27.75 11.3284C27.75 11.3165 27.75 11.3047 27.75 11.2928C27.75 11.281 27.75 11.2692 27.75 11.2574C27.75 11.2456 27.75 11.2338 27.75 11.222C27.75 11.2102 27.75 11.1984 27.75 11.1867C27.75 11.1749 27.75 11.1632 27.75 11.1515C27.75 11.1398 27.75 11.1281 27.75 11.1164C27.75 11.1047 27.75 11.093 27.75 11.0814C27.75 11.0697 27.75 11.0581 27.75 11.0464C27.75 11.0348 27.75 11.0232 27.75 11.0116C27.75 11 27.75 10.9885 27.75 10.9769C27.75 10.9653 27.75 10.9538 27.75 10.9423C27.75 10.9307 27.75 10.9192 27.75 10.9077C27.75 10.8962 27.75 10.8848 27.75 10.8733C27.75 10.8618 27.75 10.8504 27.75 10.839C27.75 10.8275 27.75 10.8161 27.75 10.8047C27.75 10.7933 27.75 10.782 27.75 10.7706C27.75 10.7592 27.75 10.7479 27.75 10.7366C27.75 10.7252 27.75 10.7139 27.75 10.7026C27.75 10.6913 27.75 10.6801 27.75 10.6688C27.75 10.6575 27.75 10.6463 27.75 10.6351C27.75 10.6238 27.75 10.6126 27.75 10.6014C27.75 10.5902 27.75 10.5791 27.75 10.5679C27.75 10.5568 27.75 10.5456 27.75 10.5345C27.75 10.5234 27.75 10.5123 27.75 10.5012C27.75 10.4901 27.75 10.479 27.75 10.468C27.75 10.4569 27.75 10.4459 27.75 10.4349C27.75 10.4239 27.75 10.4129 27.75 10.4019C27.75 10.3909 27.75 10.3799 27.75 10.369C27.75 10.358 27.75 10.3471 27.75 10.3362C27.75 10.3253 27.75 10.3144 27.75 10.3035C27.75 10.2926 27.75 10.2818 27.75 10.271C27.75 10.2601 27.75 10.2493 27.75 10.2385C27.75 10.2277 27.75 10.2169 27.75 10.2062C27.75 10.1954 27.75 10.1846 27.75 10.1739C27.75 10.1632 27.75 10.1525 27.75 10.1418C27.75 10.1311 27.75 10.1204 27.75 10.1098C27.75 10.0991 27.75 10.0885 27.75 10.0779C27.75 10.0673 27.75 10.0567 27.75 10.0461C27.75 10.0355 27.75 10.025 27.75 10.0144C27.75 10.0039 27.75 9.99336 27.75 9.98286C27.75 9.97236 27.75 9.96188 27.75 9.95142C27.75 9.94096 27.75 9.93052 27.75 9.92009C27.75 9.90967 27.75 9.89926 27.75 9.88888C27.75 9.87849 27.75 9.86813 27.75 9.85778C27.75 9.84744 27.75 9.83711 27.75 9.8268C27.75 9.8165 27.75 9.80621 27.75 9.79594C27.75 9.78568 27.75 9.77543 27.75 9.7652C27.75 9.75497 27.75 9.74477 27.75 9.73458C27.75 9.72439 27.75 9.71422 27.75 9.70407C27.75 9.69393 27.75 9.6838 27.75 9.67369C27.75 9.66358 27.75 9.6535 27.75 9.64343C27.75 9.63336 27.75 9.62331 27.75 9.61329C27.75 9.60326 27.75 9.59325 27.75 9.58327C27.75 9.57328 27.75 9.56332 27.75 9.55337C27.75 9.54343 27.75 9.5335 27.75 9.5236C27.75 9.51369 27.75 9.50381 27.75 9.49395C27.75 9.48409 27.75 9.47424 27.75 9.46442C27.75 9.4546 27.75 9.4448 27.75 9.43502C27.75 9.42525 27.75 9.41549 27.75 9.40575C27.75 9.39601 27.75 9.3863 27.75 9.3766C27.75 9.36691 27.75 9.35723 27.75 9.34758C27.75 9.33793 27.75 9.3283 27.75 9.31869C27.75 9.30908 27.75 9.29949 27.75 9.28992C27.75 9.28035 27.75 9.27081 27.75 9.26128C27.75 9.25176 27.75 9.24226 27.75 9.23278C27.75 9.2233 27.75 9.21384 27.75 9.2044C27.75 9.19496 27.75 9.18554 27.75 9.17615C27.75 9.16676 27.75 9.15738 27.75 9.14803C27.75 9.13868 27.75 9.12936 27.75 9.12005C27.75 9.11074 27.75 9.10146 27.75 9.0922C27.75 9.08293 27.75 9.07369 27.75 9.06448C27.75 9.05526 27.75 9.04606 27.75 9.03689C27.75 9.02772 27.75 9.01857 27.75 9.00944C27.75 9.00031 27.75 8.9912 27.75 8.98212C27.75 8.97304 27.75 8.96398 27.75 8.95494C27.75 8.9459 27.75 8.93688 27.75 8.92789C27.75 8.9189 27.75 8.90993 27.75 8.90098C27.75 8.89203 27.75 8.88311 27.75 8.87421C27.75 8.86531 27.75 8.85643 27.75 8.84757C27.75 8.83872 27.75 8.82988 27.75 8.82107C27.75 8.81226 27.75 8.80348 27.75 8.79472C27.75 8.78595 27.75 8.77721 27.75 8.7685C27.75 8.75978 27.75 8.75109 27.75 8.74242C27.75 8.73375 27.75 8.7251 27.75 8.71648C27.75 8.70786 27.75 8.69926 27.75 8.69068C27.75 8.68211 27.75 8.67355 27.75 8.66503C27.75 8.6565 27.75 8.64799 27.75 8.63951C27.75 8.63103 27.75 8.62258 27.75 8.61414C27.75 8.60571 27.75 8.5973 27.75 8.58892C27.75 8.58053 27.75 8.57217 27.75 8.56383C27.75 8.5555 27.75 8.54718 27.75 8.5389C27.75 8.53061 27.75 8.52234 27.75 8.5141C27.75 8.50586 27.75 8.49765 27.75 8.48946C27.75 8.48127 27.75 8.4731 27.75 8.46496C27.75 8.45682 27.75 8.4487 27.75 8.44061C27.75 8.43251 27.75 8.42445 27.75 8.4164C27.75 8.40836 27.75 8.40034 27.75 8.39235C27.75 8.38435 27.75 8.37638 27.75 8.36844C27.75 8.3605 27.75 8.35258 27.75 8.34468C27.75 8.33679 27.75 8.32892 27.75 8.32108C27.75 8.31323 27.75 8.30541 27.75 8.29762C27.75 8.28983 27.75 8.28206 27.75 8.27431C27.75 8.26657 27.75 8.25885 27.75 8.25116C27.75 8.24347 27.75 8.2358 27.75 8.22816C27.75 8.22052 27.75 8.2129 27.75 8.20531C27.75 8.19772 27.75 8.19016 27.75 8.18262C27.75 8.17508 27.75 8.16757 27.75 8.16008C27.75 8.15259 27.75 8.14513 27.75 8.1377C27.75 8.13026 27.75 8.12285 27.75 8.11547C27.75 8.10809 27.75 8.10073 27.75 8.0934C27.75 8.08607 27.75 8.07876 27.75 8.07148C27.75 8.0642 27.75 8.05695 27.75 8.04972C27.75 8.0425 27.75 8.0353 27.75 8.02812C27.75 8.02095 27.75 8.0138 27.75 8.00668C27.75 7.99956 27.75 7.99247 27.75 7.9854C27.75 7.97833 27.75 7.97129 27.75 7.96428C27.75 7.95726 27.75 7.95028 27.75 7.94332C27.75 7.93636 27.75 7.92942 27.75 7.92251C27.75 7.91561 27.75 7.90873 27.75 7.90188C27.75 7.89502 27.75 7.8882 27.75 7.8814C27.75 7.8746 27.75 7.86783 27.75 7.86108C27.75 7.85434 27.75 7.84762 27.75 7.84093C27.75 7.83424 27.75 7.82758 27.75 7.82095C27.75 7.81431 27.75 7.8077 27.75 7.80112C27.75 7.79454 27.75 7.78799 27.75 7.78147C27.75 7.77494 27.75 7.76844 27.75 7.76197C27.75 7.7555 27.75 7.74906 27.75 7.74265C27.75 7.73624 27.75 7.72985 27.75 7.72349C27.75 7.71713 27.75 7.7108 27.75 7.7045C27.75 7.6982 27.75 7.69192 27.75 7.68568C27.75 7.67943 27.75 7.67321 27.75 7.66702C27.75 7.66083 27.75 7.65467 27.75 7.64854C27.75 7.64241 27.75 7.6363 27.75 7.63023C27.75 7.62415 27.75 7.6181 27.75 7.61208C27.75 7.60606 27.75 7.60007 27.75 7.59411C27.75 7.58815 27.75 7.58221 27.75 7.57631C27.75 7.5704 27.75 7.56453 27.75 7.55868C27.75 7.55283 27.75 7.54702 27.75 7.54123C27.75 7.53544 27.75 7.52968 27.75 7.52394C27.75 7.51821 27.75 7.51251 27.75 7.50684C27.75 7.50116 27.75 7.49552 27.75 7.4899C27.75 7.48429 27.75 7.4787 27.75 7.47315C27.75 7.46759 27.75 7.46206 27.75 7.45656C27.75 7.45107 27.75 7.4456 27.75 7.44016C27.75 7.43472 27.75 7.42931 27.75 7.42393C27.75 7.41855 27.75 7.4132 27.75 7.40788C27.75 7.40256 27.75 7.39727 27.75 7.39201C27.75 7.38675 27.75 7.38152 27.75 7.37632C27.75 7.37112 27.75 7.36595 27.75 7.3608C27.75 7.35566 27.75 7.35055 27.75 7.34547C27.75 7.34039 27.75 7.33534 27.75 7.33032C27.75 7.3253 27.75 7.32031 27.75 7.31535C27.75 7.31039 27.75 7.30546 27.75 7.30056C27.75 7.29566 27.75 7.29079 27.75 7.28595C27.75 7.28112 27.75 7.27631 27.75 7.27153C27.75 7.26675 27.75 7.26201 27.75 7.25729C27.75 7.25258 27.75 7.24789 27.75 7.24324C27.75 7.23858 27.75 7.23396 27.75 7.22937C27.75 7.22477 27.75 7.22021 27.75 7.21568C27.75 7.21115 27.75 7.20665 27.75 7.20218C27.75 7.19772 27.75 7.19328 27.75 7.18887C27.75 7.18447 27.75 7.18009 27.75 7.17575C27.75 7.17141 27.75 7.16709 27.75 7.16281C27.75 7.15853 27.75 7.15428 27.75 7.15006C27.75 7.14585 27.75 7.14166 27.75 7.13751C27.75 7.13335 27.75 7.12923 27.75 7.12514C27.75 7.12105 27.75 7.11699 27.75 7.11296C27.75 7.10893 27.75 7.10494 27.75 7.10097C27.75 7.09701 27.75 7.09308 27.75 7.08918C27.75 7.08528 27.75 7.08141 27.75 7.07757C27.75 7.07374 27.75 7.06993 27.75 7.06616C27.75 7.06239 27.75 7.05865 27.75 7.05494C27.75 7.05124 27.75 7.04756 27.75 7.04392C27.75 7.04028 27.75 7.03667 27.75 7.03309C27.75 7.02951 27.75 7.02597 27.75 7.02246C27.75 7.01894 27.75 7.01546 27.75 7.01202C27.75 7.00857 27.75 7.00516 27.75 7.00178C27.75 6.9984 27.75 6.99505 27.75 6.99173C27.75 6.98842 27.75 6.98513 27.75 6.98188C27.75 6.97863 27.75 6.97542 27.75 6.97223C27.75 6.96905 27.75 6.9659 27.75 6.96278C27.75 6.95967 27.75 6.95658 27.75 6.95353C27.75 6.95048 27.75 6.94747 27.75 6.94448C27.75 6.9415 27.75 6.93855 27.75 6.93563C27.75 6.93271 27.75 6.92983 27.75 6.92698C27.75 6.92413 27.75 6.92132 27.75 6.91853C27.75 6.91575 27.75 6.913 27.75 6.91029C27.75 6.90757 27.75 6.90489 27.75 6.90225C27.75 6.8996 27.75 6.89699 27.75 6.89441C27.75 6.89183 27.75 6.88928 27.75 6.88677C27.75 6.88426 27.75 6.88178 27.75 6.87934C27.75 6.8769 27.75 6.87449 27.75 6.87212C27.75 6.86974 27.75 6.8674 27.75 6.8651C27.75 6.86279 27.75 6.86052 27.75 6.85828C27.75 6.85605 27.75 6.85385 27.75 6.85168C27.75 6.84951 27.75 6.84738 27.75 6.84528C27.75 6.84318 27.75 6.84112 27.75 6.83909C27.75 6.83706 27.75 6.83507 27.75 6.83311C27.75 6.83115 27.75 6.82923 27.75 6.82734C27.75 6.82545 27.75 6.8236 27.75 6.82178C27.75 6.81996 27.75 6.81818 27.75 6.81643C27.75 6.81468 27.75 6.81297 27.75 6.81129C27.75 6.80962 27.75 6.80797 27.75 6.80637C27.75 6.80476 27.75 6.80319 27.75 6.80165C27.75 6.80012 27.75 6.79862 27.75 6.79715C27.75 6.79569 27.75 6.79426 27.75 6.79286C27.75 6.79147 27.75 6.79011 27.75 6.78879C27.75 6.78747 27.75 6.78618 27.75 6.78493C27.75 6.78368 27.75 6.78247 27.75 6.78129C27.75 6.78011 27.75 6.77897 27.75 6.77786C27.75 6.77676 27.75 6.77569 27.75 6.77465C27.75 6.77362 27.75 6.77262 27.75 6.77166C27.75 6.7707 27.75 6.76978 27.75 6.76889C27.75 6.768 27.75 6.76715 27.75 6.76633C27.75 6.76552 27.75 6.76474 27.75 6.76399C27.75 6.76325 27.75 6.76255 27.75 6.76188C27.75 6.76121 27.75 6.76058 27.75 6.75998C27.75 6.75938 27.75 6.75883 27.75 6.7583C27.75 6.75778 27.75 6.7573 27.75 6.75685C27.75 6.7564 27.75 6.75599 27.75 6.75562C27.75 6.75524 27.75 6.75491 27.75 6.75461C27.75 6.75431 27.75 6.75405 27.75 6.75382C27.75 6.7536 27.75 6.75341 27.75 6.75326C27.75 6.75311 27.75 6.753 27.75 6.75292C27.75 6.75285 27.75 6.75281 27 6.75281ZM26.25 22.9326C26.25 22.9345 26.25 22.9364 26.25 22.9384C26.25 22.9403 26.25 22.9422 26.25 22.9441C26.25 22.9461 26.25 22.948 26.25 22.9499C26.25 22.9519 26.25 22.9538 26.25 22.9557C26.25 22.9577 26.25 22.9596 26.25 22.9615C26.25 22.9635 26.25 22.9654 26.25 22.9674C26.25 22.9693 26.25 22.9713 26.25 22.9732C26.25 22.9752 26.25 22.9771 26.25 22.9791C26.25 22.981 26.25 22.983 26.25 22.9849C26.25 22.9869 26.25 22.9888 26.25 22.9908C26.25 22.9928 26.25 22.9947 26.25 22.9967C26.25 22.9986 26.25 23.0006 26.25 23.0026C26.25 23.0045 26.25 23.0065 26.25 23.0085C26.25 23.0105 26.25 23.0124 26.25 23.0144C26.25 23.0164 26.25 23.0184 26.25 23.0203C26.25 23.0223 26.25 23.0243 26.25 23.0263C26.25 23.0283 26.25 23.0302 26.25 23.0322C26.25 23.0342 26.25 23.0362 26.25 23.0382C26.25 23.0402 26.25 23.0422 26.25 23.0442C26.25 23.0462 26.25 23.0482 26.25 23.0502C26.25 23.0522 26.25 23.0542 26.25 23.0562C26.25 23.0582 26.25 23.0602 26.25 23.0622C26.25 23.0642 26.25 23.0662 26.25 23.0682C26.25 23.0702 26.25 23.0722 26.25 23.0742C26.25 23.0762 26.25 23.0782 26.25 23.0803C26.25 23.0823 26.25 23.0843 26.25 23.0863C26.25 23.0883 26.25 23.0904 26.25 23.0924C26.25 23.0944 26.25 23.0964 26.25 23.0984C26.25 23.1005 26.25 23.1025 26.25 23.1045C26.25 23.1066 26.25 23.1086 26.25 23.1106C26.25 23.1126 26.25 23.1147 26.25 23.1167C26.25 23.1188 26.25 23.1208 26.25 23.1228C26.25 23.1249 26.25 23.1269 26.25 23.1289C26.25 23.131 26.25 23.133 26.25 23.1351C26.25 23.1371 26.25 23.1392 26.25 23.1412C26.25 23.1433 26.25 23.1453 26.25 23.1474C26.25 23.1494 26.25 23.1515 26.25 23.1535C26.25 23.1556 26.25 23.1576 26.25 23.1597C26.25 23.1617 26.25 23.1638 26.25 23.1659C26.25 23.1679 26.25 23.17 26.25 23.172C26.25 23.1741 26.25 23.1762 26.25 23.1782C26.25 23.1803 26.25 23.1824 26.25 23.1844C26.25 23.1865 26.25 23.1886 26.25 23.1907C26.25 23.1927 26.25 23.1948 26.25 23.1969C26.25 23.1989 26.25 23.201 26.25 23.2031C26.25 23.2052 26.25 23.2073 26.25 23.2093C26.25 23.2114 26.25 23.2135 26.25 23.2156C26.25 23.2177 26.25 23.2197 26.25 23.2218C26.25 23.2239 26.25 23.226 26.25 23.2281C26.25 23.2302 26.25 23.2323 26.25 23.2344C26.25 23.2365 26.25 23.2385 26.25 23.2406C26.25 23.2427 26.25 23.2448 26.25 23.2469C26.25 23.249 26.25 23.2511 26.25 23.2532C26.25 23.2553 26.25 23.2574 26.25 23.2595C26.25 23.2616 26.25 23.2637 26.25 23.2658C26.25 23.2679 26.25 23.27 26.25 23.2721C26.25 23.2743 26.25 23.2764 26.25 23.2785C26.25 23.2806 26.25 23.2827 26.25 23.2848C26.25 23.2869 26.25 23.289 26.25 23.2911C26.25 23.2932 26.25 23.2954 26.25 23.2975C26.25 23.2996 26.25 23.3017 26.25 23.3038C26.25 23.306 26.25 23.3081 26.25 23.3102C26.25 23.3123 26.25 23.3144 26.25 23.3166C26.25 23.3187 26.25 23.3208 26.25 23.3229C26.25 23.3251 26.25 23.3272 26.25 23.3293C26.25 23.3314 26.25 23.3336 26.25 23.3357C26.25 23.3378 26.25 23.34 26.25 23.3421C26.25 23.3442 26.25 23.3463 26.25 23.3485C26.25 23.3506 26.25 23.3528 26.25 23.3549C26.25 23.357 26.25 23.3592 26.25 23.3613C26.25 23.3634 26.25 23.3656 26.25 23.3677C26.25 23.3699 26.25 23.372 26.25 23.3741C26.25 23.3763 26.25 23.3784 26.25 23.3806C26.25 23.3827 26.25 23.3849 26.25 23.387C26.25 23.3891 26.25 23.3913 26.25 23.3934C26.25 23.3956 26.25 23.3977 26.25 23.3999C26.25 23.402 26.25 23.4042 26.25 23.4063C26.25 23.4085 26.25 23.4106 26.25 23.4128C26.25 23.4149 26.25 23.4171 26.25 23.4193C26.25 23.4214 26.25 23.4236 26.25 23.4257C26.25 23.4279 26.25 23.43 26.25 23.4322C26.25 23.4344 26.25 23.4365 26.25 23.4387C26.25 23.4408 26.25 23.443 26.25 23.4452C26.25 23.4473 26.25 23.4495 26.25 23.4516C26.25 23.4538 26.25 23.456 26.25 23.4581C26.25 23.4603 26.25 23.4625 26.25 23.4646C26.25 23.4668 26.25 23.469 26.25 23.4711C26.25 23.4733 26.25 23.4755 26.25 23.4776C26.25 23.4798 26.25 23.482 26.25 23.4842C26.25 23.4863 26.25 23.4885 26.25 23.4907C26.25 23.4928 26.25 23.495 26.25 23.4972C26.25 23.4994 26.25 23.5015 26.25 23.5037C26.25 23.5059 26.25 23.5081 26.25 23.5102C26.25 23.5124 26.25 23.5146 26.25 23.5168C26.25 23.5189 26.25 23.5211 26.25 23.5233C26.25 23.5255 26.25 23.5277 26.25 23.5298C26.25 23.532 26.25 23.5342 26.25 23.5364C26.25 23.5386 26.25 23.5407 26.25 23.5429C26.25 23.5451 26.25 23.5473 26.25 23.5495C26.25 23.5517 26.25 23.5538 26.25 23.556C26.25 23.5582 26.25 23.5604 26.25 23.5626C26.25 23.5648 26.25 23.567 26.25 23.5691C26.25 23.5713 26.25 23.5735 26.25 23.5757C26.25 23.5779 26.25 23.5801 26.25 23.5823C26.25 23.5845 26.25 23.5866 26.25 23.5888C26.25 23.591 26.25 23.5932 26.25 23.5954C26.25 23.5976 26.25 23.5998 26.25 23.602C26.25 23.6042 26.25 23.6064 26.25 23.6086C26.25 23.6108 26.25 23.6129 26.25 23.6151C26.25 23.6173 26.25 23.6195 26.25 23.6217C26.25 23.6239 26.25 23.6261 26.25 23.6283C26.25 23.6305 26.25 23.6327 26.25 23.6349C26.25 23.6371 26.25 23.6393 26.25 23.6415C26.25 23.6437 26.25 23.6459 26.25 23.6481C26.25 23.6503 26.25 23.6525 26.25 23.6547C26.25 23.6569 26.25 23.6591 26.25 23.6613C26.25 23.6635 26.25 23.6657 26.25 23.6679C26.25 23.6701 26.25 23.6723 26.25 23.6745C26.25 23.6766 26.25 23.6788 26.25 23.681C26.25 23.6832 26.25 23.6854 26.25 23.6877C26.25 23.6899 26.25 23.6921 26.25 23.6943C26.25 23.6965 26.25 23.6987 26.25 23.7009C26.25 23.7031 26.25 23.7053 26.25 23.7075C26.25 23.7097 26.25 23.7119 26.25 23.7141C26.25 23.7163 26.25 23.7185 26.25 23.7207C26.25 23.7229 26.25 23.7251 26.25 23.7273C26.25 23.7295 26.25 23.7317 26.25 23.7339C26.25 23.7361 26.25 23.7383 26.25 23.7405C26.25 23.7427 26.25 23.7449 26.25 23.7471C26.25 23.7493 26.25 23.7515 26.25 23.7537C26.25 23.7559 26.25 23.7581 26.25 23.7603C26.25 23.7625 26.25 23.7647 26.25 23.7669C26.25 23.7691 26.25 23.7714 26.25 23.7736C26.25 23.7758 26.25 23.778 26.25 23.7802C26.25 23.7824 26.25 23.7846 26.25 23.7868C26.25 23.789 26.25 23.7912 26.25 23.7934C26.25 23.7956 26.25 23.7978 26.25 23.8C26.25 23.8022 26.25 23.8044 26.25 23.8066C26.25 23.8088 26.25 23.811 26.25 23.8132C26.25 23.8154 26.25 23.8176 26.25 23.8198C26.25 23.822 26.25 23.8243 26.25 23.8265C26.25 23.8287 26.25 23.8309 26.25 23.8331C26.25 23.8353 26.25 23.8375 26.25 23.8397C26.25 23.8419 26.25 23.8441 26.25 23.8463C26.25 23.8485 26.25 23.8507 26.25 23.8529C26.25 23.8551 26.25 23.8573 26.25 23.8595C26.25 23.8617 26.25 23.8639 26.25 23.8661C26.25 23.8683 26.25 23.8705 26.25 23.8727C26.25 23.8749 26.25 23.8771 26.25 23.8793C26.25 23.8815 26.25 23.8837 26.25 23.8859C26.25 23.8881 26.25 23.8903 26.25 23.8925C26.25 23.8947 26.25 23.8969 26.25 23.8991C26.25 23.9013 26.25 23.9035 26.25 23.9057C26.25 23.9079 26.25 23.9101 26.25 23.9123C26.25 23.9145 26.25 23.9167 26.25 23.9189C26.25 23.9211 26.25 23.9233 26.25 23.9255C26.25 23.9277 26.25 23.9299 26.25 23.9321C26.25 23.9343 26.25 23.9365 26.25 23.9387C26.25 23.9409 26.25 23.9431 26.25 23.9453C26.25 23.9475 26.25 23.9497 26.25 23.9519C26.25 23.9541 26.25 23.9563 26.25 23.9584C26.25 23.9606 26.25 23.9628 26.25 23.965C26.25 23.9672 26.25 23.9694 26.25 23.9716C26.25 23.9738 26.25 23.976 26.25 23.9782C26.25 23.9804 26.25 23.9826 26.25 23.9848C26.25 23.9869 26.25 23.9891 26.25 23.9913C26.25 23.9935 26.25 23.9957 26.25 23.9979C26.25 24.0001 26.25 24.0023 26.25 24.0045C26.25 24.0066 26.25 24.0088 26.25 24.011C26.25 24.0132 26.25 24.0154 26.25 24.0176C26.25 24.0198 26.25 24.0219 26.25 24.0241C26.25 24.0263 26.25 24.0285 26.25 24.0307C26.25 24.0329 26.25 24.035 26.25 24.0372C26.25 24.0394 26.25 24.0416 26.25 24.0438C26.25 24.046 26.25 24.0481 26.25 24.0503C26.25 24.0525 26.25 24.0547 26.25 24.0569C26.25 24.059 26.25 24.0612 26.25 24.0634C26.25 24.0656 26.25 24.0677 26.25 24.0699C26.25 24.0721 26.25 24.0743 26.25 24.0764C26.25 24.0786 26.25 24.0808 26.25 24.083C26.25 24.0851 26.25 24.0873 26.25 24.0895C26.25 24.0916 26.25 24.0938 26.25 24.096C26.25 24.0982 26.25 24.1003 26.25 24.1025C26.25 24.1047 26.25 24.1068 26.25 24.109C26.25 24.1112 26.25 24.1133 26.25 24.1155C26.25 24.1177 26.25 24.1198 26.25 24.122C26.25 24.1242 26.25 24.1263 26.25 24.1285C26.25 24.1307 26.25 24.1328 26.25 24.135C26.25 24.1371 26.25 24.1393 26.25 24.1415C26.25 24.1436 26.25 24.1458 26.25 24.1479C26.25 24.1501 26.25 24.1522 26.25 24.1544C26.25 24.1566 26.25 24.1587 26.25 24.1609C26.25 24.163 26.25 24.1652 26.25 24.1673C26.25 24.1695 26.25 24.1716 26.25 24.1738C26.25 24.1759 26.25 24.1781 26.25 24.1802C26.25 24.1824 26.25 24.1845 26.25 24.1867C26.25 24.1888 26.25 24.191 26.25 24.1931C26.25 24.1953 26.25 24.1974 26.25 24.1995C26.25 24.2017 26.25 24.2038 26.25 24.206C26.25 24.2081 26.25 24.2103 26.25 24.2124C26.25 24.2145 26.25 24.2167 26.25 24.2188C26.25 24.2209 26.25 24.2231 26.25 24.2252C26.25 24.2274 26.25 24.2295 26.25 24.2316C26.25 24.2338 26.25 24.2359 26.25 24.238C26.25 24.2401 26.25 24.2423 26.25 24.2444C26.25 24.2465 26.25 24.2487 26.25 24.2508C26.25 24.2529 26.25 24.255 26.25 24.2572C26.25 24.2593 26.25 24.2614 26.25 24.2635C26.25 24.2657 26.25 24.2678 26.25 24.2699C26.25 24.272 26.25 24.2741 26.25 24.2763C26.25 24.2784 26.25 24.2805 26.25 24.2826C26.25 24.2847 26.25 24.2868 26.25 24.2889C26.25 24.2911 26.25 24.2932 26.25 24.2953C26.25 24.2974 26.25 24.2995 26.25 24.3016C26.25 24.3037 26.25 24.3058 26.25 24.3079C26.25 24.31 26.25 24.3121 26.25 24.3142C26.25 24.3163 26.25 24.3184 26.25 24.3205C26.25 24.3226 26.25 24.3247 26.25 24.3268C26.25 24.3289 26.25 24.331 26.25 24.3331C26.25 24.3352 26.25 24.3373 26.25 24.3394C26.25 24.3415 26.25 24.3436 26.25 24.3457C26.25 24.3478 26.25 24.3499 26.25 24.352C26.25 24.354 26.25 24.3561 26.25 24.3582C26.25 24.3603 26.25 24.3624 26.25 24.3645C26.25 24.3665 26.25 24.3686 26.25 24.3707C26.25 24.3728 26.25 24.3749 26.25 24.3769C26.25 24.379 26.25 24.3811 26.25 24.3832C26.25 24.3852 26.25 24.3873 26.25 24.3894C26.25 24.3915 26.25 24.3935 26.25 24.3956C26.25 24.3977 26.25 24.3997 26.25 24.4018C26.25 24.4039 26.25 24.4059 26.25 24.408C26.25 24.41 26.25 24.4121 26.25 24.4142C26.25 24.4162 26.25 24.4183 26.25 24.4203C26.25 24.4224 26.25 24.4244 26.25 24.4265C26.25 24.4285 26.25 24.4306 26.25 24.4326C26.25 24.4347 26.25 24.4367 26.25 24.4388C26.25 24.4408 26.25 24.4429 26.25 24.4449C26.25 24.447 26.25 24.449 26.25 24.4511C26.25 24.4531 26.25 24.4551 26.25 24.4572C26.25 24.4592 26.25 24.4612 26.25 24.4633C26.25 24.4653 26.25 24.4673 26.25 24.4694C26.25 24.4714 26.25 24.4734 26.25 24.4755C26.25 24.4775 26.25 24.4795 26.25 24.4815C26.25 24.4836 26.25 24.4856 26.25 24.4876C26.25 24.4896 26.25 24.4916 26.25 24.4937C26.25 24.4957 26.25 24.4977 26.25 24.4997C26.25 24.5017 26.25 24.5037 26.25 24.5057C26.25 24.5078 26.25 24.5098 26.25 24.5118C26.25 24.5138 26.25 24.5158 26.25 24.5178C26.25 24.5198 26.25 24.5218 26.25 24.5238C26.25 24.5258 26.25 24.5278 26.25 24.5298C26.25 24.5318 26.25 24.5338 26.25 24.5358C26.25 24.5378 26.25 24.5398 26.25 24.5417C26.25 24.5437 26.25 24.5457 26.25 24.5477C26.25 24.5497 26.25 24.5517 26.25 24.5537C26.25 24.5556 26.25 24.5576 26.25 24.5596C26.25 24.5616 26.25 24.5636 26.25 24.5655C26.25 24.5675 26.25 24.5695 26.25 24.5714C26.25 24.5734 26.25 24.5754 26.25 24.5773C26.25 24.5793 26.25 24.5813 26.25 24.5832C26.25 24.5852 26.25 24.5872 26.25 24.5891C26.25 24.5911 26.25 24.593 26.25 24.595C26.25 24.5969 26.25 24.5989 26.25 24.6009C26.25 24.6028 26.25 24.6048 26.25 24.6067C26.25 24.6086 26.25 24.6106 26.25 24.6125C26.25 24.6145 26.25 24.6164 26.25 24.6184C26.25 24.6203 26.25 24.6222 26.25 24.6242C26.25 24.6261 26.25 24.628 26.25 24.63C26.25 24.6319 26.25 24.6338 26.25 24.6358C26.25 24.6377 26.25 24.6396 26.25 24.6415C26.25 24.6434 26.25 24.6454 26.25 24.6473C26.25 24.6492 26.25 24.6511 26.25 24.653C26.25 24.6549 26.25 24.6569 26.25 24.6588C26.25 24.6607 26.25 24.6626 26.25 24.6645C26.25 24.6664 26.25 24.6683 26.25 24.6702C26.25 24.6721 26.25 24.674 26.25 24.6759C26.25 24.6778 26.25 24.6797 26.25 24.6816C26.25 24.6835 26.25 24.6854 26.25 24.6873C26.25 24.6891 26.25 24.691 26.25 24.6929C26.25 24.6948 26.25 24.6967 26.25 24.6986C26.25 24.7004 26.25 24.7023 26.25 24.7042C26.25 24.7061 26.25 24.7079 26.25 24.7098C26.25 24.7117 26.25 24.7135 26.25 24.7154C26.25 24.7173 26.25 24.7191 26.25 24.721C26.25 24.7229 26.25 24.7247 26.25 24.7266C26.25 24.7284 26.25 24.7303 26.25 24.7321C26.25 24.734 26.25 24.7358 26.25 24.7377C26.25 24.7395 26.25 24.7414 26.25 24.7432C26.25 24.7451 26.25 24.7469 26.25 24.7487C26.25 24.7506 26.25 24.7524 26.25 24.7542C26.25 24.7561 26.25 24.7579 26.25 24.7597C26.25 24.7616 26.25 24.7634 26.25 24.7652C26.25 24.767 26.25 24.7688 26.25 24.7707C26.25 24.7725 26.25 24.7743 26.25 24.7761C26.25 24.7779 26.25 24.7797 26.25 24.7815C26.25 24.7833 26.25 24.7852 26.25 24.787C26.25 24.7888 26.25 24.7906 26.25 24.7924C26.25 24.7942 26.25 24.796 26.25 24.7977C26.25 24.7995 26.25 24.8013 26.25 24.8031C26.25 24.8049 26.25 24.8067 26.25 24.8085C26.25 24.8103 26.25 24.812 26.25 24.8138C26.25 24.8156 26.25 24.8174 26.25 24.8191C26.25 24.8209 26.25 24.8227 26.25 24.8244C26.25 24.8262 26.25 24.828 26.25 24.8297C26.25 24.8315 26.25 24.8333 26.25 24.835C26.25 24.8368 26.25 24.8385 26.25 24.8403C26.25 24.842 26.25 24.8438 26.25 24.8455C26.25 24.8473 26.25 24.849 26.25 24.8508C26.25 24.8525 26.25 24.8542 26.25 24.856C26.25 24.8577 26.25 24.8594 26.25 24.8612C26.25 24.8629 26.25 24.8646 26.25 24.8664C26.25 24.8681 26.25 24.8698 26.25 24.8715C26.25 24.8732 26.25 24.875 26.25 24.8767C26.25 24.8784 26.25 24.8801 26.25 24.8818C26.25 24.8835 26.25 24.8852 26.25 24.8869C26.25 24.8886 26.25 24.8903 26.25 24.892C26.25 24.8937 26.25 24.8954 26.25 24.8971C26.25 24.8988 26.25 24.9005 26.25 24.9022C26.25 24.9039 26.25 24.9055 26.25 24.9072C26.25 24.9089 26.25 24.9106 26.25 24.9123C26.25 24.9139 26.25 24.9156 26.25 24.9173C26.25 24.9189 26.25 24.9206 26.25 24.9223C26.25 24.9239 26.25 24.9256 26.25 24.9272C26.25 24.9289 26.25 24.9306 26.25 24.9322C26.25 24.9339 26.25 24.9355 26.25 24.9371C26.25 24.9388 26.25 24.9404 26.25 24.9421C26.25 24.9437 26.25 24.9454 26.25 24.947C26.25 24.9486 26.25 24.9502 26.25 24.9519C26.25 24.9535 26.25 24.9551 26.25 24.9567C26.25 24.9584 26.25 24.96 26.25 24.9616C26.25 24.9632 26.25 24.9648 26.25 24.9664C26.25 24.9681 26.25 24.9697 26.25 24.9713C26.25 24.9729 26.25 24.9745 26.25 24.9761C26.25 24.9777 26.25 24.9793 26.25 24.9808C26.25 24.9824 26.25 24.984 26.25 24.9856C26.25 24.9872 26.25 24.9888 26.25 24.9904C26.25 24.9919 26.25 24.9935 26.25 24.9951C26.25 24.9967 26.25 24.9982 26.25 24.9998C26.25 25.0014 26.25 25.0029 26.25 25.0045C26.25 25.006 26.25 25.0076 26.25 25.0091C26.25 25.0107 26.25 25.0122 26.25 25.0138C26.25 25.0153 26.25 25.0169 26.25 25.0184C26.25 25.02 26.25 25.0215 26.25 25.023C26.25 25.0246 26.25 25.0261 26.25 25.0276C26.25 25.0292 26.25 25.0307 26.25 25.0322C26.25 25.0337 26.25 25.0352 26.25 25.0368C26.25 25.0383 26.25 25.0398 26.25 25.0413C26.25 25.0428 26.25 25.0443 26.25 25.0458C26.25 25.0473 26.25 25.0488 26.25 25.0503C26.25 25.0518 26.25 25.0533 26.25 25.0548C26.25 25.0563 26.25 25.0577 26.25 25.0592C26.25 25.0607 26.25 25.0622 26.25 25.0637C26.25 25.0651 26.25 25.0666 26.25 25.0681C26.25 25.0695 26.25 25.071 26.25 25.0725C26.25 25.0739 26.25 25.0754 26.25 25.0768C26.25 25.0783 26.25 25.0798 26.25 25.0812C26.25 25.0826 26.25 25.0841 26.25 25.0855C26.25 25.087 26.25 25.0884 26.25 25.0898C26.25 25.0913 26.25 25.0927 26.25 25.0941C26.25 25.0956 26.25 25.097 26.25 25.0984C26.25 25.0998 26.25 25.1012 26.25 25.1027C26.25 25.1041 26.25 25.1055 26.25 25.1069C26.25 25.1083 26.25 25.1097 26.25 25.1111C26.25 25.1125 26.25 25.1139 26.25 25.1153C26.25 25.1167 26.25 25.1181 26.25 25.1194C26.25 25.1208 26.25 25.1222 26.25 25.1236C26.25 25.125 26.25 25.1263 26.25 25.1277C26.25 25.1291 26.25 25.1304 26.25 25.1318C26.25 25.1332 26.25 25.1345 26.25 25.1359C26.25 25.1372 26.25 25.1386 26.25 25.1399C26.25 25.1413 26.25 25.1426 26.25 25.144C26.25 25.1453 26.25 25.1467 26.25 25.148C26.25 25.1493 26.25 25.1507 26.25 25.152C26.25 25.1533 26.25 25.1546 26.25 25.156C26.25 25.1573 26.25 25.1586 26.25 25.1599C26.25 25.1612 26.25 25.1625 26.25 25.1638C26.25 25.1651 26.25 25.1664 26.25 25.1677C26.25 25.169 26.25 25.1703 26.25 25.1716C26.25 25.1729 26.25 25.1742 26.25 25.1755C26.25 25.1767 26.25 25.178 26.25 25.1793C26.25 25.1806 26.25 25.1818 26.25 25.1831C26.25 25.1844 26.25 25.1856 26.25 25.1869C26.25 25.1882 26.25 25.1894 26.25 25.1907C26.25 25.1919 26.25 25.1932 26.25 25.1944C26.25 25.1956 26.25 25.1969 26.25 25.1981C26.25 25.1994 26.25 25.2006 26.25 25.2018C26.25 25.203 26.25 25.2043 26.25 25.2055C26.25 25.2067 26.25 25.2079 26.25 25.2091C26.25 25.2103 26.25 25.2116 26.25 25.2128C26.25 25.214 26.25 25.2152 26.25 25.2164C26.25 25.2176 26.25 25.2188 26.25 25.2199C26.25 25.2211 26.25 25.2223 26.25 25.2235C26.25 25.2247 26.25 25.2259 26.25 25.227C26.25 25.2282 26.25 25.2294 26.25 25.2305C26.25 25.2317 26.25 25.2329 26.25 25.234C26.25 25.2352 26.25 25.2363 26.25 25.2375C26.25 25.2386 26.25 25.2398 26.25 25.2409C26.25 25.242 26.25 25.2432 26.25 25.2443C26.25 25.2454 26.25 25.2466 26.25 25.2477C26.25 25.2488 26.25 25.2499 26.25 25.2511C26.25 25.2522 26.25 25.2533 26.25 25.2544C26.25 25.2555 26.25 25.2566 26.25 25.2577C26.25 25.2588 26.25 25.2599 26.25 25.261C26.25 25.2621 26.25 25.2632 26.25 25.2642C26.25 25.2653 26.25 25.2664 26.25 25.2675C26.25 25.2686 26.25 25.2696 26.25 25.2707C26.25 25.2718 26.25 25.2728 26.25 25.2739C26.25 25.2749 26.25 25.276 26.25 25.277C26.25 25.2781 26.25 25.2791 26.25 25.2802C26.25 25.2812 26.25 25.2823 26.25 25.2833C26.25 25.2843 26.25 25.2853 26.25 25.2864C26.25 25.2874 26.25 25.2884 26.25 25.2894C26.25 25.2904 26.25 25.2915 26.25 25.2925C26.25 25.2935 26.25 25.2945 26.25 25.2955C26.25 25.2965 26.25 25.2975 26.25 25.2984C26.25 25.2994 26.25 25.3004 26.25 25.3014C26.25 25.3024 26.25 25.3034 26.25 25.3043C26.25 25.3053 26.25 25.3063 26.25 25.3072C26.25 25.3082 26.25 25.3091 26.25 25.3101C26.25 25.3111 26.25 25.312 26.25 25.313C26.25 25.3139 26.25 25.3148 26.25 25.3158C26.25 25.3167 26.25 25.3176 26.25 25.3186C26.25 25.3195 26.25 25.3204 26.25 25.3213C26.25 25.3223 26.25 25.3232 26.25 25.3241C26.25 25.325 26.25 25.3259 26.25 25.3268C26.25 25.3277 26.25 25.3286 26.25 25.3295C26.25 25.3304 26.25 25.3313 26.25 25.3321C26.25 25.333 26.25 25.3339 26.25 25.3348C26.25 25.3357 26.25 25.3365 26.25 25.3374C26.25 25.3383 26.25 25.3391 26.25 25.34C26.25 25.3408 26.25 25.3417 26.25 25.3425C26.25 25.3434 26.25 25.3442 26.25 25.345C26.25 25.3459 26.25 25.3467 26.25 25.3475C26.25 25.3484 26.25 25.3492 26.25 25.35C26.25 25.3508 26.25 25.3516 26.25 25.3524C26.25 25.3533 26.25 25.3541 26.25 25.3549C26.25 25.3557 26.25 25.3565 26.25 25.3572C26.25 25.358 26.25 25.3588 26.25 25.3596C26.25 25.3604 26.25 25.3612 26.25 25.3619C26.25 25.3627 26.25 25.3635 26.25 25.3642C26.25 25.365 26.25 25.3658 26.25 25.3665C26.25 25.3673 26.25 25.368 26.25 25.3687C26.25 25.3695 26.25 25.3702 26.25 25.371C26.25 25.3717 26.25 25.3724 26.25 25.3731C26.25 25.3739 26.25 25.3746 26.25 25.3753C26.25 25.376 26.25 25.3767 26.25 25.3774C26.25 25.3781 26.25 25.3788 26.25 25.3795C26.25 25.3802 26.25 25.3809 26.25 25.3816C26.25 25.3823 26.25 25.383 26.25 25.3836C26.25 25.3843 26.25 25.385 26.25 25.3857C26.25 25.3863 26.25 25.387 26.25 25.3876C26.25 25.3883 26.25 25.389 26.25 25.3896C26.25 25.3902 26.25 25.3909 26.25 25.3915C26.25 25.3922 26.25 25.3928 26.25 25.3934C26.25 25.394 26.25 25.3947 26.25 25.3953C26.25 25.3959 26.25 25.3965 26.25 25.3971C26.25 25.3977 26.25 25.3983 26.25 25.3989C26.25 25.3995 26.25 25.4001 26.25 25.4007C26.25 25.4013 26.25 25.4019 26.25 25.4024C26.25 25.403 26.25 25.4036 26.25 25.4042C26.25 25.4047 26.25 25.4053 26.25 25.4058C26.25 25.4064 26.25 25.4069 26.25 25.4075C26.25 25.408 26.25 25.4086 26.25 25.4091C26.25 25.4097 26.25 25.4102 26.25 25.4107C26.25 25.4112 26.25 25.4118 26.25 25.4123C26.25 25.4128 26.25 25.4133 26.25 25.4138C26.25 25.4143 26.25 25.4148 26.25 25.4153C26.25 25.4158 26.25 25.4163 26.25 25.4168C26.25 25.4173 26.25 25.4177 26.25 25.4182C26.25 25.4187 26.25 25.4192 26.25 25.4196C26.25 25.4201 26.25 25.4205 26.25 25.421C26.25 25.4215 26.25 25.4219 26.25 25.4223C26.25 25.4228 26.25 25.4232 26.25 25.4237C26.25 25.4241 26.25 25.4245 26.25 25.4249C26.25 25.4254 26.25 25.4258 26.25 25.4262C26.25 25.4266 26.25 25.427 26.25 25.4274C26.25 25.4278 26.25 25.4282 26.25 25.4286C26.25 25.429 26.25 25.4294 26.25 25.4298C26.25 25.4301 26.25 25.4305 26.25 25.4309C26.25 25.4312 26.25 25.4316 26.25 25.432C26.25 25.4323 26.25 25.4327 26.25 25.433C26.25 25.4334 26.25 25.4337 26.25 25.4341C26.25 25.4344 26.25 25.4347 26.25 25.4351C26.25 25.4354 26.25 25.4357 26.25 25.436C26.25 25.4363 26.25 25.4366 26.25 25.4369C26.25 25.4373 26.25 25.4376 26.25 25.4378C26.25 25.4381 26.25 25.4384 26.25 25.4387C26.25 25.439 26.25 25.4393 26.25 25.4395C26.25 25.4398 26.25 25.4401 26.25 25.4403C26.25 25.4406 26.25 25.4409 26.25 25.4411C26.25 25.4414 26.25 25.4416 26.25 25.4418C26.25 25.4421 26.25 25.4423 26.25 25.4425C26.25 25.4428 26.25 25.443 26.25 25.4432C26.25 25.4434 26.25 25.4436 26.25 25.4438C26.25 25.444 26.25 25.4442 26.25 25.4444C26.25 25.4446 26.25 25.4448 26.25 25.445C26.25 25.4452 26.25 25.4454 26.25 25.4455C26.25 25.4457 26.25 25.4459 26.25 25.446C26.25 25.4462 26.25 25.4464 26.25 25.4465C26.25 25.4467 26.25 25.4468 26.25 25.4469C26.25 25.4471 26.25 25.4472 26.25 25.4473C26.25 25.4475 26.25 25.4476 26.25 25.4477C26.25 25.4478 26.25 25.4479 26.25 25.448C26.25 25.4481 26.25 25.4482 26.25 25.4483C26.25 25.4484 26.25 25.4485 26.25 25.4486C26.25 25.4487 26.25 25.4487 26.25 25.4488C26.25 25.4489 26.25 25.4489 26.25 25.449C26.25 25.4491 26.25 25.4491 26.25 25.4492C26.25 25.4492 26.25 25.4492 26.25 25.4493C26.25 25.4493 26.25 25.4493 26.25 25.4494C26.25 25.4494 26.25 25.4494 26.25 25.4494C26.25 25.4494 26.25 25.4494 27 25.4494C27.75 25.4494 27.75 25.4494 27.75 25.4494C27.75 25.4494 27.75 25.4494 27.75 25.4494C27.75 25.4493 27.75 25.4493 27.75 25.4493C27.75 25.4492 27.75 25.4492 27.75 25.4492C27.75 25.4491 27.75 25.4491 27.75 25.449C27.75 25.4489 27.75 25.4489 27.75 25.4488C27.75 25.4487 27.75 25.4487 27.75 25.4486C27.75 25.4485 27.75 25.4484 27.75 25.4483C27.75 25.4482 27.75 25.4481 27.75 25.448C27.75 25.4479 27.75 25.4478 27.75 25.4477C27.75 25.4476 27.75 25.4475 27.75 25.4473C27.75 25.4472 27.75 25.4471 27.75 25.4469C27.75 25.4468 27.75 25.4467 27.75 25.4465C27.75 25.4464 27.75 25.4462 27.75 25.446C27.75 25.4459 27.75 25.4457 27.75 25.4455C27.75 25.4454 27.75 25.4452 27.75 25.445C27.75 25.4448 27.75 25.4446 27.75 25.4444C27.75 25.4442 27.75 25.444 27.75 25.4438C27.75 25.4436 27.75 25.4434 27.75 25.4432C27.75 25.443 27.75 25.4428 27.75 25.4425C27.75 25.4423 27.75 25.4421 27.75 25.4418C27.75 25.4416 27.75 25.4414 27.75 25.4411C27.75 25.4409 27.75 25.4406 27.75 25.4403C27.75 25.4401 27.75 25.4398 27.75 25.4395C27.75 25.4393 27.75 25.439 27.75 25.4387C27.75 25.4384 27.75 25.4381 27.75 25.4378C27.75 25.4376 27.75 25.4373 27.75 25.4369C27.75 25.4366 27.75 25.4363 27.75 25.436C27.75 25.4357 27.75 25.4354 27.75 25.4351C27.75 25.4347 27.75 25.4344 27.75 25.4341C27.75 25.4337 27.75 25.4334 27.75 25.433C27.75 25.4327 27.75 25.4323 27.75 25.432C27.75 25.4316 27.75 25.4312 27.75 25.4309C27.75 25.4305 27.75 25.4301 27.75 25.4298C27.75 25.4294 27.75 25.429 27.75 25.4286C27.75 25.4282 27.75 25.4278 27.75 25.4274C27.75 25.427 27.75 25.4266 27.75 25.4262C27.75 25.4258 27.75 25.4254 27.75 25.4249C27.75 25.4245 27.75 25.4241 27.75 25.4237C27.75 25.4232 27.75 25.4228 27.75 25.4223C27.75 25.4219 27.75 25.4215 27.75 25.421C27.75 25.4205 27.75 25.4201 27.75 25.4196C27.75 25.4192 27.75 25.4187 27.75 25.4182C27.75 25.4177 27.75 25.4173 27.75 25.4168C27.75 25.4163 27.75 25.4158 27.75 25.4153C27.75 25.4148 27.75 25.4143 27.75 25.4138C27.75 25.4133 27.75 25.4128 27.75 25.4123C27.75 25.4118 27.75 25.4112 27.75 25.4107C27.75 25.4102 27.75 25.4097 27.75 25.4091C27.75 25.4086 27.75 25.408 27.75 25.4075C27.75 25.4069 27.75 25.4064 27.75 25.4058C27.75 25.4053 27.75 25.4047 27.75 25.4042C27.75 25.4036 27.75 25.403 27.75 25.4024C27.75 25.4019 27.75 25.4013 27.75 25.4007C27.75 25.4001 27.75 25.3995 27.75 25.3989C27.75 25.3983 27.75 25.3977 27.75 25.3971C27.75 25.3965 27.75 25.3959 27.75 25.3953C27.75 25.3947 27.75 25.394 27.75 25.3934C27.75 25.3928 27.75 25.3922 27.75 25.3915C27.75 25.3909 27.75 25.3902 27.75 25.3896C27.75 25.389 27.75 25.3883 27.75 25.3876C27.75 25.387 27.75 25.3863 27.75 25.3857C27.75 25.385 27.75 25.3843 27.75 25.3836C27.75 25.383 27.75 25.3823 27.75 25.3816C27.75 25.3809 27.75 25.3802 27.75 25.3795C27.75 25.3788 27.75 25.3781 27.75 25.3774C27.75 25.3767 27.75 25.376 27.75 25.3753C27.75 25.3746 27.75 25.3739 27.75 25.3731C27.75 25.3724 27.75 25.3717 27.75 25.371C27.75 25.3702 27.75 25.3695 27.75 25.3687C27.75 25.368 27.75 25.3673 27.75 25.3665C27.75 25.3658 27.75 25.365 27.75 25.3642C27.75 25.3635 27.75 25.3627 27.75 25.3619C27.75 25.3612 27.75 25.3604 27.75 25.3596C27.75 25.3588 27.75 25.358 27.75 25.3572C27.75 25.3565 27.75 25.3557 27.75 25.3549C27.75 25.3541 27.75 25.3533 27.75 25.3524C27.75 25.3516 27.75 25.3508 27.75 25.35C27.75 25.3492 27.75 25.3484 27.75 25.3475C27.75 25.3467 27.75 25.3459 27.75 25.345C27.75 25.3442 27.75 25.3434 27.75 25.3425C27.75 25.3417 27.75 25.3408 27.75 25.34C27.75 25.3391 27.75 25.3383 27.75 25.3374C27.75 25.3365 27.75 25.3357 27.75 25.3348C27.75 25.3339 27.75 25.333 27.75 25.3321C27.75 25.3313 27.75 25.3304 27.75 25.3295C27.75 25.3286 27.75 25.3277 27.75 25.3268C27.75 25.3259 27.75 25.325 27.75 25.3241C27.75 25.3232 27.75 25.3223 27.75 25.3213C27.75 25.3204 27.75 25.3195 27.75 25.3186C27.75 25.3176 27.75 25.3167 27.75 25.3158C27.75 25.3148 27.75 25.3139 27.75 25.313C27.75 25.312 27.75 25.3111 27.75 25.3101C27.75 25.3091 27.75 25.3082 27.75 25.3072C27.75 25.3063 27.75 25.3053 27.75 25.3043C27.75 25.3034 27.75 25.3024 27.75 25.3014C27.75 25.3004 27.75 25.2994 27.75 25.2984C27.75 25.2975 27.75 25.2965 27.75 25.2955C27.75 25.2945 27.75 25.2935 27.75 25.2925C27.75 25.2915 27.75 25.2904 27.75 25.2894C27.75 25.2884 27.75 25.2874 27.75 25.2864C27.75 25.2853 27.75 25.2843 27.75 25.2833C27.75 25.2823 27.75 25.2812 27.75 25.2802C27.75 25.2791 27.75 25.2781 27.75 25.277C27.75 25.276 27.75 25.2749 27.75 25.2739C27.75 25.2728 27.75 25.2718 27.75 25.2707C27.75 25.2696 27.75 25.2686 27.75 25.2675C27.75 25.2664 27.75 25.2653 27.75 25.2642C27.75 25.2632 27.75 25.2621 27.75 25.261C27.75 25.2599 27.75 25.2588 27.75 25.2577C27.75 25.2566 27.75 25.2555 27.75 25.2544C27.75 25.2533 27.75 25.2522 27.75 25.2511C27.75 25.2499 27.75 25.2488 27.75 25.2477C27.75 25.2466 27.75 25.2454 27.75 25.2443C27.75 25.2432 27.75 25.242 27.75 25.2409C27.75 25.2398 27.75 25.2386 27.75 25.2375C27.75 25.2363 27.75 25.2352 27.75 25.234C27.75 25.2329 27.75 25.2317 27.75 25.2305C27.75 25.2294 27.75 25.2282 27.75 25.227C27.75 25.2259 27.75 25.2247 27.75 25.2235C27.75 25.2223 27.75 25.2211 27.75 25.2199C27.75 25.2188 27.75 25.2176 27.75 25.2164C27.75 25.2152 27.75 25.214 27.75 25.2128C27.75 25.2116 27.75 25.2103 27.75 25.2091C27.75 25.2079 27.75 25.2067 27.75 25.2055C27.75 25.2043 27.75 25.203 27.75 25.2018C27.75 25.2006 27.75 25.1994 27.75 25.1981C27.75 25.1969 27.75 25.1956 27.75 25.1944C27.75 25.1932 27.75 25.1919 27.75 25.1907C27.75 25.1894 27.75 25.1882 27.75 25.1869C27.75 25.1856 27.75 25.1844 27.75 25.1831C27.75 25.1818 27.75 25.1806 27.75 25.1793C27.75 25.178 27.75 25.1767 27.75 25.1755C27.75 25.1742 27.75 25.1729 27.75 25.1716C27.75 25.1703 27.75 25.169 27.75 25.1677C27.75 25.1664 27.75 25.1651 27.75 25.1638C27.75 25.1625 27.75 25.1612 27.75 25.1599C27.75 25.1586 27.75 25.1573 27.75 25.156C27.75 25.1546 27.75 25.1533 27.75 25.152C27.75 25.1507 27.75 25.1493 27.75 25.148C27.75 25.1467 27.75 25.1453 27.75 25.144C27.75 25.1426 27.75 25.1413 27.75 25.1399C27.75 25.1386 27.75 25.1372 27.75 25.1359C27.75 25.1345 27.75 25.1332 27.75 25.1318C27.75 25.1304 27.75 25.1291 27.75 25.1277C27.75 25.1263 27.75 25.125 27.75 25.1236C27.75 25.1222 27.75 25.1208 27.75 25.1194C27.75 25.1181 27.75 25.1167 27.75 25.1153C27.75 25.1139 27.75 25.1125 27.75 25.1111C27.75 25.1097 27.75 25.1083 27.75 25.1069C27.75 25.1055 27.75 25.1041 27.75 25.1027C27.75 25.1012 27.75 25.0998 27.75 25.0984C27.75 25.097 27.75 25.0956 27.75 25.0941C27.75 25.0927 27.75 25.0913 27.75 25.0898C27.75 25.0884 27.75 25.087 27.75 25.0855C27.75 25.0841 27.75 25.0826 27.75 25.0812C27.75 25.0798 27.75 25.0783 27.75 25.0768C27.75 25.0754 27.75 25.0739 27.75 25.0725C27.75 25.071 27.75 25.0695 27.75 25.0681C27.75 25.0666 27.75 25.0651 27.75 25.0637C27.75 25.0622 27.75 25.0607 27.75 25.0592C27.75 25.0577 27.75 25.0563 27.75 25.0548C27.75 25.0533 27.75 25.0518 27.75 25.0503C27.75 25.0488 27.75 25.0473 27.75 25.0458C27.75 25.0443 27.75 25.0428 27.75 25.0413C27.75 25.0398 27.75 25.0383 27.75 25.0368C27.75 25.0352 27.75 25.0337 27.75 25.0322C27.75 25.0307 27.75 25.0292 27.75 25.0276C27.75 25.0261 27.75 25.0246 27.75 25.023C27.75 25.0215 27.75 25.02 27.75 25.0184C27.75 25.0169 27.75 25.0153 27.75 25.0138C27.75 25.0122 27.75 25.0107 27.75 25.0091C27.75 25.0076 27.75 25.006 27.75 25.0045C27.75 25.0029 27.75 25.0014 27.75 24.9998C27.75 24.9982 27.75 24.9967 27.75 24.9951C27.75 24.9935 27.75 24.9919 27.75 24.9904C27.75 24.9888 27.75 24.9872 27.75 24.9856C27.75 24.984 27.75 24.9824 27.75 24.9808C27.75 24.9793 27.75 24.9777 27.75 24.9761C27.75 24.9745 27.75 24.9729 27.75 24.9713C27.75 24.9697 27.75 24.9681 27.75 24.9664C27.75 24.9648 27.75 24.9632 27.75 24.9616C27.75 24.96 27.75 24.9584 27.75 24.9567C27.75 24.9551 27.75 24.9535 27.75 24.9519C27.75 24.9502 27.75 24.9486 27.75 24.947C27.75 24.9454 27.75 24.9437 27.75 24.9421C27.75 24.9404 27.75 24.9388 27.75 24.9371C27.75 24.9355 27.75 24.9339 27.75 24.9322C27.75 24.9306 27.75 24.9289 27.75 24.9272C27.75 24.9256 27.75 24.9239 27.75 24.9223C27.75 24.9206 27.75 24.9189 27.75 24.9173C27.75 24.9156 27.75 24.9139 27.75 24.9123C27.75 24.9106 27.75 24.9089 27.75 24.9072C27.75 24.9055 27.75 24.9039 27.75 24.9022C27.75 24.9005 27.75 24.8988 27.75 24.8971C27.75 24.8954 27.75 24.8937 27.75 24.892C27.75 24.8903 27.75 24.8886 27.75 24.8869C27.75 24.8852 27.75 24.8835 27.75 24.8818C27.75 24.8801 27.75 24.8784 27.75 24.8767C27.75 24.875 27.75 24.8732 27.75 24.8715C27.75 24.8698 27.75 24.8681 27.75 24.8664C27.75 24.8646 27.75 24.8629 27.75 24.8612C27.75 24.8594 27.75 24.8577 27.75 24.856C27.75 24.8542 27.75 24.8525 27.75 24.8508C27.75 24.849 27.75 24.8473 27.75 24.8455C27.75 24.8438 27.75 24.842 27.75 24.8403C27.75 24.8385 27.75 24.8368 27.75 24.835C27.75 24.8333 27.75 24.8315 27.75 24.8297C27.75 24.828 27.75 24.8262 27.75 24.8244C27.75 24.8227 27.75 24.8209 27.75 24.8191C27.75 24.8174 27.75 24.8156 27.75 24.8138C27.75 24.812 27.75 24.8103 27.75 24.8085C27.75 24.8067 27.75 24.8049 27.75 24.8031C27.75 24.8013 27.75 24.7995 27.75 24.7977C27.75 24.796 27.75 24.7942 27.75 24.7924C27.75 24.7906 27.75 24.7888 27.75 24.787C27.75 24.7852 27.75 24.7833 27.75 24.7815C27.75 24.7797 27.75 24.7779 27.75 24.7761C27.75 24.7743 27.75 24.7725 27.75 24.7707C27.75 24.7688 27.75 24.767 27.75 24.7652C27.75 24.7634 27.75 24.7616 27.75 24.7597C27.75 24.7579 27.75 24.7561 27.75 24.7542C27.75 24.7524 27.75 24.7506 27.75 24.7487C27.75 24.7469 27.75 24.7451 27.75 24.7432C27.75 24.7414 27.75 24.7395 27.75 24.7377C27.75 24.7358 27.75 24.734 27.75 24.7321C27.75 24.7303 27.75 24.7284 27.75 24.7266C27.75 24.7247 27.75 24.7229 27.75 24.721C27.75 24.7191 27.75 24.7173 27.75 24.7154C27.75 24.7135 27.75 24.7117 27.75 24.7098C27.75 24.7079 27.75 24.7061 27.75 24.7042C27.75 24.7023 27.75 24.7004 27.75 24.6986C27.75 24.6967 27.75 24.6948 27.75 24.6929C27.75 24.691 27.75 24.6891 27.75 24.6873C27.75 24.6854 27.75 24.6835 27.75 24.6816C27.75 24.6797 27.75 24.6778 27.75 24.6759C27.75 24.674 27.75 24.6721 27.75 24.6702C27.75 24.6683 27.75 24.6664 27.75 24.6645C27.75 24.6626 27.75 24.6607 27.75 24.6588C27.75 24.6569 27.75 24.6549 27.75 24.653C27.75 24.6511 27.75 24.6492 27.75 24.6473C27.75 24.6454 27.75 24.6434 27.75 24.6415C27.75 24.6396 27.75 24.6377 27.75 24.6358C27.75 24.6338 27.75 24.6319 27.75 24.63C27.75 24.628 27.75 24.6261 27.75 24.6242C27.75 24.6222 27.75 24.6203 27.75 24.6184C27.75 24.6164 27.75 24.6145 27.75 24.6125C27.75 24.6106 27.75 24.6086 27.75 24.6067C27.75 24.6048 27.75 24.6028 27.75 24.6009C27.75 24.5989 27.75 24.5969 27.75 24.595C27.75 24.593 27.75 24.5911 27.75 24.5891C27.75 24.5872 27.75 24.5852 27.75 24.5832C27.75 24.5813 27.75 24.5793 27.75 24.5773C27.75 24.5754 27.75 24.5734 27.75 24.5714C27.75 24.5695 27.75 24.5675 27.75 24.5655C27.75 24.5636 27.75 24.5616 27.75 24.5596C27.75 24.5576 27.75 24.5556 27.75 24.5537C27.75 24.5517 27.75 24.5497 27.75 24.5477C27.75 24.5457 27.75 24.5437 27.75 24.5417C27.75 24.5398 27.75 24.5378 27.75 24.5358C27.75 24.5338 27.75 24.5318 27.75 24.5298C27.75 24.5278 27.75 24.5258 27.75 24.5238C27.75 24.5218 27.75 24.5198 27.75 24.5178C27.75 24.5158 27.75 24.5138 27.75 24.5118C27.75 24.5098 27.75 24.5078 27.75 24.5057C27.75 24.5037 27.75 24.5017 27.75 24.4997C27.75 24.4977 27.75 24.4957 27.75 24.4937C27.75 24.4916 27.75 24.4896 27.75 24.4876C27.75 24.4856 27.75 24.4836 27.75 24.4815C27.75 24.4795 27.75 24.4775 27.75 24.4755C27.75 24.4734 27.75 24.4714 27.75 24.4694C27.75 24.4673 27.75 24.4653 27.75 24.4633C27.75 24.4612 27.75 24.4592 27.75 24.4572C27.75 24.4551 27.75 24.4531 27.75 24.4511C27.75 24.449 27.75 24.447 27.75 24.4449C27.75 24.4429 27.75 24.4408 27.75 24.4388C27.75 24.4367 27.75 24.4347 27.75 24.4326C27.75 24.4306 27.75 24.4285 27.75 24.4265C27.75 24.4244 27.75 24.4224 27.75 24.4203C27.75 24.4183 27.75 24.4162 27.75 24.4142C27.75 24.4121 27.75 24.41 27.75 24.408C27.75 24.4059 27.75 24.4039 27.75 24.4018C27.75 24.3997 27.75 24.3977 27.75 24.3956C27.75 24.3935 27.75 24.3915 27.75 24.3894C27.75 24.3873 27.75 24.3852 27.75 24.3832C27.75 24.3811 27.75 24.379 27.75 24.3769C27.75 24.3749 27.75 24.3728 27.75 24.3707C27.75 24.3686 27.75 24.3665 27.75 24.3645C27.75 24.3624 27.75 24.3603 27.75 24.3582C27.75 24.3561 27.75 24.354 27.75 24.352C27.75 24.3499 27.75 24.3478 27.75 24.3457C27.75 24.3436 27.75 24.3415 27.75 24.3394C27.75 24.3373 27.75 24.3352 27.75 24.3331C27.75 24.331 27.75 24.3289 27.75 24.3268C27.75 24.3247 27.75 24.3226 27.75 24.3205C27.75 24.3184 27.75 24.3163 27.75 24.3142C27.75 24.3121 27.75 24.31 27.75 24.3079C27.75 24.3058 27.75 24.3037 27.75 24.3016C27.75 24.2995 27.75 24.2974 27.75 24.2953C27.75 24.2932 27.75 24.2911 27.75 24.2889C27.75 24.2868 27.75 24.2847 27.75 24.2826C27.75 24.2805 27.75 24.2784 27.75 24.2763C27.75 24.2741 27.75 24.272 27.75 24.2699C27.75 24.2678 27.75 24.2657 27.75 24.2635C27.75 24.2614 27.75 24.2593 27.75 24.2572C27.75 24.255 27.75 24.2529 27.75 24.2508C27.75 24.2487 27.75 24.2465 27.75 24.2444C27.75 24.2423 27.75 24.2401 27.75 24.238C27.75 24.2359 27.75 24.2338 27.75 24.2316C27.75 24.2295 27.75 24.2274 27.75 24.2252C27.75 24.2231 27.75 24.2209 27.75 24.2188C27.75 24.2167 27.75 24.2145 27.75 24.2124C27.75 24.2103 27.75 24.2081 27.75 24.206C27.75 24.2038 27.75 24.2017 27.75 24.1995C27.75 24.1974 27.75 24.1953 27.75 24.1931C27.75 24.191 27.75 24.1888 27.75 24.1867C27.75 24.1845 27.75 24.1824 27.75 24.1802C27.75 24.1781 27.75 24.1759 27.75 24.1738C27.75 24.1716 27.75 24.1695 27.75 24.1673C27.75 24.1652 27.75 24.163 27.75 24.1609C27.75 24.1587 27.75 24.1566 27.75 24.1544C27.75 24.1522 27.75 24.1501 27.75 24.1479C27.75 24.1458 27.75 24.1436 27.75 24.1415C27.75 24.1393 27.75 24.1371 27.75 24.135C27.75 24.1328 27.75 24.1307 27.75 24.1285C27.75 24.1263 27.75 24.1242 27.75 24.122C27.75 24.1198 27.75 24.1177 27.75 24.1155C27.75 24.1133 27.75 24.1112 27.75 24.109C27.75 24.1068 27.75 24.1047 27.75 24.1025C27.75 24.1003 27.75 24.0982 27.75 24.096C27.75 24.0938 27.75 24.0916 27.75 24.0895C27.75 24.0873 27.75 24.0851 27.75 24.083C27.75 24.0808 27.75 24.0786 27.75 24.0764C27.75 24.0743 27.75 24.0721 27.75 24.0699C27.75 24.0677 27.75 24.0656 27.75 24.0634C27.75 24.0612 27.75 24.059 27.75 24.0569C27.75 24.0547 27.75 24.0525 27.75 24.0503C27.75 24.0481 27.75 24.046 27.75 24.0438C27.75 24.0416 27.75 24.0394 27.75 24.0372C27.75 24.035 27.75 24.0329 27.75 24.0307C27.75 24.0285 27.75 24.0263 27.75 24.0241C27.75 24.0219 27.75 24.0198 27.75 24.0176C27.75 24.0154 27.75 24.0132 27.75 24.011C27.75 24.0088 27.75 24.0066 27.75 24.0045C27.75 24.0023 27.75 24.0001 27.75 23.9979C27.75 23.9957 27.75 23.9935 27.75 23.9913C27.75 23.9891 27.75 23.9869 27.75 23.9848C27.75 23.9826 27.75 23.9804 27.75 23.9782C27.75 23.976 27.75 23.9738 27.75 23.9716C27.75 23.9694 27.75 23.9672 27.75 23.965C27.75 23.9628 27.75 23.9606 27.75 23.9584C27.75 23.9563 27.75 23.9541 27.75 23.9519C27.75 23.9497 27.75 23.9475 27.75 23.9453C27.75 23.9431 27.75 23.9409 27.75 23.9387C27.75 23.9365 27.75 23.9343 27.75 23.9321C27.75 23.9299 27.75 23.9277 27.75 23.9255C27.75 23.9233 27.75 23.9211 27.75 23.9189C27.75 23.9167 27.75 23.9145 27.75 23.9123C27.75 23.9101 27.75 23.9079 27.75 23.9057C27.75 23.9035 27.75 23.9013 27.75 23.8991C27.75 23.8969 27.75 23.8947 27.75 23.8925C27.75 23.8903 27.75 23.8881 27.75 23.8859C27.75 23.8837 27.75 23.8815 27.75 23.8793C27.75 23.8771 27.75 23.8749 27.75 23.8727C27.75 23.8705 27.75 23.8683 27.75 23.8661C27.75 23.8639 27.75 23.8617 27.75 23.8595C27.75 23.8573 27.75 23.8551 27.75 23.8529C27.75 23.8507 27.75 23.8485 27.75 23.8463C27.75 23.8441 27.75 23.8419 27.75 23.8397C27.75 23.8375 27.75 23.8353 27.75 23.8331C27.75 23.8309 27.75 23.8287 27.75 23.8265C27.75 23.8243 27.75 23.822 27.75 23.8198C27.75 23.8176 27.75 23.8154 27.75 23.8132C27.75 23.811 27.75 23.8088 27.75 23.8066C27.75 23.8044 27.75 23.8022 27.75 23.8C27.75 23.7978 27.75 23.7956 27.75 23.7934C27.75 23.7912 27.75 23.789 27.75 23.7868C27.75 23.7846 27.75 23.7824 27.75 23.7802C27.75 23.778 27.75 23.7758 27.75 23.7736C27.75 23.7714 27.75 23.7691 27.75 23.7669C27.75 23.7647 27.75 23.7625 27.75 23.7603C27.75 23.7581 27.75 23.7559 27.75 23.7537C27.75 23.7515 27.75 23.7493 27.75 23.7471C27.75 23.7449 27.75 23.7427 27.75 23.7405C27.75 23.7383 27.75 23.7361 27.75 23.7339C27.75 23.7317 27.75 23.7295 27.75 23.7273C27.75 23.7251 27.75 23.7229 27.75 23.7207C27.75 23.7185 27.75 23.7163 27.75 23.7141C27.75 23.7119 27.75 23.7097 27.75 23.7075C27.75 23.7053 27.75 23.7031 27.75 23.7009C27.75 23.6987 27.75 23.6965 27.75 23.6943C27.75 23.6921 27.75 23.6899 27.75 23.6877C27.75 23.6854 27.75 23.6832 27.75 23.681C27.75 23.6788 27.75 23.6766 27.75 23.6745C27.75 23.6723 27.75 23.6701 27.75 23.6679C27.75 23.6657 27.75 23.6635 27.75 23.6613C27.75 23.6591 27.75 23.6569 27.75 23.6547C27.75 23.6525 27.75 23.6503 27.75 23.6481C27.75 23.6459 27.75 23.6437 27.75 23.6415C27.75 23.6393 27.75 23.6371 27.75 23.6349C27.75 23.6327 27.75 23.6305 27.75 23.6283C27.75 23.6261 27.75 23.6239 27.75 23.6217C27.75 23.6195 27.75 23.6173 27.75 23.6151C27.75 23.6129 27.75 23.6108 27.75 23.6086C27.75 23.6064 27.75 23.6042 27.75 23.602C27.75 23.5998 27.75 23.5976 27.75 23.5954C27.75 23.5932 27.75 23.591 27.75 23.5888C27.75 23.5866 27.75 23.5845 27.75 23.5823C27.75 23.5801 27.75 23.5779 27.75 23.5757C27.75 23.5735 27.75 23.5713 27.75 23.5691C27.75 23.567 27.75 23.5648 27.75 23.5626C27.75 23.5604 27.75 23.5582 27.75 23.556C27.75 23.5538 27.75 23.5517 27.75 23.5495C27.75 23.5473 27.75 23.5451 27.75 23.5429C27.75 23.5407 27.75 23.5386 27.75 23.5364C27.75 23.5342 27.75 23.532 27.75 23.5298C27.75 23.5277 27.75 23.5255 27.75 23.5233C27.75 23.5211 27.75 23.5189 27.75 23.5168C27.75 23.5146 27.75 23.5124 27.75 23.5102C27.75 23.5081 27.75 23.5059 27.75 23.5037C27.75 23.5015 27.75 23.4994 27.75 23.4972C27.75 23.495 27.75 23.4928 27.75 23.4907C27.75 23.4885 27.75 23.4863 27.75 23.4842C27.75 23.482 27.75 23.4798 27.75 23.4776C27.75 23.4755 27.75 23.4733 27.75 23.4711C27.75 23.469 27.75 23.4668 27.75 23.4646C27.75 23.4625 27.75 23.4603 27.75 23.4581C27.75 23.456 27.75 23.4538 27.75 23.4516C27.75 23.4495 27.75 23.4473 27.75 23.4452C27.75 23.443 27.75 23.4408 27.75 23.4387C27.75 23.4365 27.75 23.4344 27.75 23.4322C27.75 23.43 27.75 23.4279 27.75 23.4257C27.75 23.4236 27.75 23.4214 27.75 23.4193C27.75 23.4171 27.75 23.4149 27.75 23.4128C27.75 23.4106 27.75 23.4085 27.75 23.4063C27.75 23.4042 27.75 23.402 27.75 23.3999C27.75 23.3977 27.75 23.3956 27.75 23.3934C27.75 23.3913 27.75 23.3891 27.75 23.387C27.75 23.3849 27.75 23.3827 27.75 23.3806C27.75 23.3784 27.75 23.3763 27.75 23.3741C27.75 23.372 27.75 23.3699 27.75 23.3677C27.75 23.3656 27.75 23.3634 27.75 23.3613C27.75 23.3592 27.75 23.357 27.75 23.3549C27.75 23.3528 27.75 23.3506 27.75 23.3485C27.75 23.3463 27.75 23.3442 27.75 23.3421C27.75 23.34 27.75 23.3378 27.75 23.3357C27.75 23.3336 27.75 23.3314 27.75 23.3293C27.75 23.3272 27.75 23.3251 27.75 23.3229C27.75 23.3208 27.75 23.3187 27.75 23.3166C27.75 23.3144 27.75 23.3123 27.75 23.3102C27.75 23.3081 27.75 23.306 27.75 23.3038C27.75 23.3017 27.75 23.2996 27.75 23.2975C27.75 23.2954 27.75 23.2932 27.75 23.2911C27.75 23.289 27.75 23.2869 27.75 23.2848C27.75 23.2827 27.75 23.2806 27.75 23.2785C27.75 23.2764 27.75 23.2743 27.75 23.2721C27.75 23.27 27.75 23.2679 27.75 23.2658C27.75 23.2637 27.75 23.2616 27.75 23.2595C27.75 23.2574 27.75 23.2553 27.75 23.2532C27.75 23.2511 27.75 23.249 27.75 23.2469C27.75 23.2448 27.75 23.2427 27.75 23.2406C27.75 23.2385 27.75 23.2365 27.75 23.2344C27.75 23.2323 27.75 23.2302 27.75 23.2281C27.75 23.226 27.75 23.2239 27.75 23.2218C27.75 23.2197 27.75 23.2177 27.75 23.2156C27.75 23.2135 27.75 23.2114 27.75 23.2093C27.75 23.2073 27.75 23.2052 27.75 23.2031C27.75 23.201 27.75 23.1989 27.75 23.1969C27.75 23.1948 27.75 23.1927 27.75 23.1907C27.75 23.1886 27.75 23.1865 27.75 23.1844C27.75 23.1824 27.75 23.1803 27.75 23.1782C27.75 23.1762 27.75 23.1741 27.75 23.172C27.75 23.17 27.75 23.1679 27.75 23.1659C27.75 23.1638 27.75 23.1617 27.75 23.1597C27.75 23.1576 27.75 23.1556 27.75 23.1535C27.75 23.1515 27.75 23.1494 27.75 23.1474C27.75 23.1453 27.75 23.1433 27.75 23.1412C27.75 23.1392 27.75 23.1371 27.75 23.1351C27.75 23.133 27.75 23.131 27.75 23.1289C27.75 23.1269 27.75 23.1249 27.75 23.1228C27.75 23.1208 27.75 23.1188 27.75 23.1167C27.75 23.1147 27.75 23.1126 27.75 23.1106C27.75 23.1086 27.75 23.1066 27.75 23.1045C27.75 23.1025 27.75 23.1005 27.75 23.0984C27.75 23.0964 27.75 23.0944 27.75 23.0924C27.75 23.0904 27.75 23.0883 27.75 23.0863C27.75 23.0843 27.75 23.0823 27.75 23.0803C27.75 23.0782 27.75 23.0762 27.75 23.0742C27.75 23.0722 27.75 23.0702 27.75 23.0682C27.75 23.0662 27.75 23.0642 27.75 23.0622C27.75 23.0602 27.75 23.0582 27.75 23.0562C27.75 23.0542 27.75 23.0522 27.75 23.0502C27.75 23.0482 27.75 23.0462 27.75 23.0442C27.75 23.0422 27.75 23.0402 27.75 23.0382C27.75 23.0362 27.75 23.0342 27.75 23.0322C27.75 23.0302 27.75 23.0283 27.75 23.0263C27.75 23.0243 27.75 23.0223 27.75 23.0203C27.75 23.0184 27.75 23.0164 27.75 23.0144C27.75 23.0124 27.75 23.0105 27.75 23.0085C27.75 23.0065 27.75 23.0045 27.75 23.0026C27.75 23.0006 27.75 22.9986 27.75 22.9967C27.75 22.9947 27.75 22.9928 27.75 22.9908C27.75 22.9888 27.75 22.9869 27.75 22.9849C27.75 22.983 27.75 22.981 27.75 22.9791C27.75 22.9771 27.75 22.9752 27.75 22.9732C27.75 22.9713 27.75 22.9693 27.75 22.9674C27.75 22.9654 27.75 22.9635 27.75 22.9615C27.75 22.9596 27.75 22.9577 27.75 22.9557C27.75 22.9538 27.75 22.9519 27.75 22.9499C27.75 22.948 27.75 22.9461 27.75 22.9441C27.75 22.9422 27.75 22.9403 27.75 22.9384C27.75 22.9364 27.75 22.9345 27.75 22.9326H26.25ZM27 25.4494C26.404 24.9942 26.4043 24.9938 26.4046 24.9934C26.4046 24.9933 26.4049 24.993 26.4051 24.9927C26.4054 24.9923 26.4058 24.9918 26.4061 24.9914C26.4067 24.9906 26.4073 24.9899 26.4078 24.9892C26.4089 24.9879 26.4096 24.9869 26.4102 24.9862C26.4112 24.9849 26.4113 24.9848 26.4103 24.986C26.4084 24.9883 26.4024 24.9954 26.3922 25.0066C26.3717 25.0292 26.3344 25.0681 26.2789 25.1184C26.168 25.2189 25.9845 25.3646 25.7175 25.5145C25.1884 25.8113 24.3077 26.1376 22.9718 26.1376V27.6376C24.5656 27.6376 25.6989 27.2448 26.4515 26.8226C26.8253 26.6129 27.0996 26.3991 27.2862 26.2299C27.3795 26.1453 27.4509 26.072 27.502 26.0158C27.5275 25.9877 27.548 25.964 27.5636 25.9452C27.5714 25.9358 27.578 25.9277 27.5833 25.9209C27.586 25.9175 27.5885 25.9145 27.5906 25.9118C27.5916 25.9104 27.5926 25.9091 27.5935 25.908C27.594 25.9074 27.5944 25.9068 27.5948 25.9063C27.595 25.906 27.5953 25.9056 27.5954 25.9055C27.5957 25.9051 27.596 25.9047 27 25.4494ZM22.6056 4.59551C22.6056 5.34551 22.6055 5.34551 22.6055 5.34551C22.6054 5.34551 22.6053 5.34551 22.6053 5.34551C22.6052 5.34551 22.6051 5.34551 22.6051 5.34551C22.605 5.34551 22.605 5.34551 22.605 5.34551C22.6051 5.34551 22.6055 5.34551 22.6063 5.34551C22.6077 5.34552 22.6104 5.34553 22.6143 5.34556C22.6221 5.34563 22.6346 5.34578 22.6516 5.34608C22.6854 5.3467 22.7368 5.34796 22.8029 5.35055C22.9354 5.35573 23.1255 5.36619 23.3511 5.38721C23.8077 5.42976 24.3853 5.51344 24.9176 5.67335L25.3492 4.23677C24.6846 4.03712 23.9983 3.94102 23.4903 3.89368C23.2335 3.86976 23.0162 3.85775 22.8616 3.8517C22.7843 3.84867 22.7223 3.84712 22.6788 3.84633C22.657 3.84594 22.6397 3.84573 22.6274 3.84562C22.6213 3.84557 22.6164 3.84554 22.6127 3.84552C22.6109 3.84552 22.6094 3.84551 22.6082 3.84551C22.6076 3.84551 22.6071 3.84551 22.6067 3.84551C22.6065 3.84551 22.6063 3.84551 22.6061 3.84551C22.606 3.84551 22.6059 3.84551 22.6058 3.84551C22.6057 3.84551 22.6056 3.84551 22.6056 4.59551ZM24.9176 5.67335C25.3599 5.80621 25.7161 5.97573 25.949 6.17283C26.162 6.35313 26.25 6.53267 26.25 6.75281H27.75C27.75 6.00285 27.3937 5.43042 26.9179 5.02781C26.4621 4.642 25.8849 4.3977 25.3492 4.23677L24.9176 5.67335ZM22.9718 10.7079C23.1164 11.4438 23.1174 11.4436 23.1184 11.4434C23.1187 11.4433 23.1198 11.4431 23.1205 11.443C23.1219 11.4427 23.1233 11.4424 23.1248 11.4421C23.1277 11.4415 23.1307 11.4408 23.1339 11.4402C23.1402 11.4388 23.147 11.4372 23.1543 11.4354C23.1688 11.4319 23.1852 11.4276 23.2032 11.4223C23.2393 11.4117 23.2821 11.3973 23.3306 11.3779C23.428 11.3388 23.5468 11.2798 23.6794 11.1913C23.9465 11.0131 24.2557 10.7246 24.5566 10.2641C25.1529 9.35111 25.7123 7.76946 25.882 5.00094L24.3848 4.90917C24.2239 7.53391 23.7025 8.82867 23.3007 9.44378C23.1025 9.7473 22.9334 9.88581 22.8468 9.94354C22.8026 9.97304 22.7758 9.98425 22.7717 9.98591C22.7695 9.98679 22.7726 9.9854 22.7817 9.98273C22.7863 9.9814 22.7923 9.97975 22.7999 9.97791C22.8037 9.97699 22.8078 9.97602 22.8124 9.97501C22.8147 9.97451 22.8171 9.974 22.8196 9.97349C22.8208 9.97323 22.8221 9.97297 22.8234 9.97271C22.824 9.97258 22.825 9.97238 22.8253 9.97232C22.8263 9.97212 22.8273 9.97192 22.9718 10.7079ZM23.7218 26.8876V24.3708H22.2218V26.8876H23.7218ZM23.7218 24.3708V10.7079H22.2218V24.3708H23.7218ZM26.6515 22.2685C25.3149 22.9698 24.508 23.2725 22.8138 23.6376L23.1298 25.104C24.9522 24.7112 25.8877 24.3632 27.3485 23.5967L26.6515 22.2685ZM22.2218 26.8876V32.2809H23.7218V26.8876H22.2218ZM20.0599 33V32.2809H18.5599V33H20.0599ZM20.0599 32.2809V8.19101H18.5599V32.2809H20.0599ZM22.9718 31.5309H19.3099V33.0309H22.9718V31.5309ZM5.82501 10.0938C5.84364 10.1069 5.78836 10.066 5.66827 9.88071C5.56175 9.71636 5.43936 9.49433 5.30576 9.22394C5.03928 8.68464 4.75457 8.00708 4.49059 7.33319C4.22773 6.66216 3.99051 6.00787 3.81872 5.52039C3.73293 5.27695 3.6637 5.07581 3.61603 4.93585C3.5922 4.86589 3.57377 4.81125 3.56137 4.77431C3.55516 4.75585 3.55047 4.7418 3.54736 4.73249C3.5458 4.72783 3.54465 4.72435 3.54389 4.72209C3.54352 4.72096 3.54324 4.72013 3.54307 4.71961C3.54299 4.71936 3.54293 4.71917 3.54289 4.71907C3.54288 4.71902 3.54287 4.719 3.54286 4.71898C3.54286 4.71898 3.54287 4.719 2.83099 4.95506C2.1191 5.19112 2.11912 5.19118 2.11915 5.19126C2.11917 5.19131 2.1192 5.19141 2.11924 5.19151C2.11931 5.19172 2.1194 5.19201 2.11952 5.19238C2.11977 5.19311 2.12011 5.19415 2.12056 5.1955C2.12146 5.1982 2.12276 5.20212 2.12447 5.20723C2.12788 5.21745 2.13288 5.23242 2.13941 5.25184C2.15245 5.29069 2.17157 5.34736 2.19614 5.41949C2.24526 5.56371 2.31622 5.76987 2.40399 6.01894C2.57933 6.51648 2.82274 7.18803 3.09392 7.8803C3.36398 8.5697 3.6667 9.29289 3.96097 9.88842C4.10773 10.1854 4.25904 10.4644 4.40953 10.6965C4.54644 10.9078 4.73147 11.159 4.96373 11.3219L5.82501 10.0938ZM11.9859 0.25H9.78873V1.75H11.9859V0.25ZM9.78873 1C9.03873 1 9.03873 0.999565 9.03873 0.999144C9.03873 0.999022 9.03873 0.998613 9.03874 0.998367C9.03874 0.997875 9.03874 0.997435 9.03874 0.997046C9.03874 0.996269 9.03875 0.995699 9.03875 0.995331C9.03876 0.994597 9.03876 0.994673 9.03875 0.995533C9.03871 0.997255 9.0386 1.0021 9.03828 1.00985C9.03765 1.02538 9.03621 1.05241 9.03299 1.08927C9.02653 1.16326 9.01305 1.27517 8.98516 1.4121C8.92885 1.68854 8.81717 2.05042 8.59947 2.40667C8.19338 3.07121 7.34391 3.84551 5.39437 3.84551V5.34551C7.83919 5.34551 9.18691 4.32205 9.8794 3.18883C10.211 2.64621 10.374 2.10921 10.455 1.7115C10.4958 1.51134 10.5166 1.34236 10.5273 1.21972C10.5327 1.15827 10.5355 1.10805 10.537 1.07091C10.5378 1.05233 10.5382 1.03698 10.5385 1.0251C10.5386 1.01915 10.5386 1.01407 10.5387 1.00988C10.5387 1.00778 10.5387 1.00591 10.5387 1.00426C10.5387 1.00344 10.5387 1.00267 10.5387 1.00196C10.5387 1.00161 10.5387 1.00112 10.5387 1.00094C10.5387 1.00046 10.5387 1 9.78873 1ZM5.29019 3.85278L2.72681 4.21233L2.93516 5.69779L5.49855 5.33824L5.29019 3.85278ZM2.83099 4.95506C2.83099 4.20506 2.83053 4.20506 2.83007 4.20506C2.82991 4.20506 2.82944 4.20506 2.82912 4.20506C2.82847 4.20506 2.82779 4.20506 2.8271 4.20507C2.82571 4.20507 2.82422 4.20508 2.82263 4.2051C2.81946 4.20513 2.81591 4.20518 2.81199 4.20526C2.80414 4.20541 2.7948 4.20568 2.78404 4.20611C2.76254 4.20698 2.73529 4.20855 2.70297 4.21133C2.63851 4.21689 2.55288 4.22737 2.45187 4.2472C2.25117 4.28661 1.98081 4.36473 1.69367 4.52136C1.09275 4.84914 0.49349 5.48185 0.265092 6.60311L1.73491 6.90251C1.87271 6.22602 2.18894 5.95985 2.41196 5.83819C2.53679 5.7701 2.65552 5.73586 2.74091 5.71909C2.78295 5.71083 2.81461 5.70727 2.83169 5.7058C2.84014 5.70507 2.84471 5.70488 2.84485 5.70488C2.84491 5.70488 2.84384 5.70492 2.84156 5.70497C2.84042 5.70499 2.83897 5.70501 2.83721 5.70503C2.83633 5.70504 2.83538 5.70504 2.83434 5.70505C2.83382 5.70505 2.83328 5.70505 2.83272 5.70505C2.83244 5.70505 2.83201 5.70506 2.83187 5.70506C2.83143 5.70506 2.83099 5.70506 2.83099 4.95506ZM0.25 6.75281V22.9326H1.75V6.75281H0.25ZM0.25 22.9326V25.4494H1.75V22.9326H0.25ZM6.14437 33V26.8876H4.64437V33H6.14437ZM0.623824 26.0983C2.36497 27.1077 3.43428 27.423 5.31097 27.633L5.47776 26.1423C3.7921 25.9537 2.92465 25.6984 1.37618 24.8006L0.623824 26.0983ZM6.14437 26.8876V24.3708H4.64437V26.8876H6.14437ZM6.14437 24.3708V10.7079H4.64437V24.3708H6.14437ZM5.49948 23.6282C4.00153 23.4162 3.11786 23.1366 1.33045 22.2593L0.669549 23.6059C2.56653 24.5369 3.60258 24.8746 5.28925 25.1134L5.49948 23.6282ZM10.8873 23.6826H12.3521V22.1826H10.8873V23.6826ZM11.6021 22.9326V24.7303H13.1021V22.9326H11.6021ZM12.3521 23.9803H10.8873V25.4803H12.3521V23.9803ZM11.6373 24.7303V22.9326H10.1373V24.7303H11.6373ZM11.6373 19.3371V17.5393H10.1373V19.3371H11.6373ZM10.8873 18.2893H12.3521V16.7893H10.8873V18.2893ZM11.6021 17.5393V18.9775H13.1021V17.5393H11.6021ZM11.6021 18.9775V19.3371H13.1021V18.9775H11.6021ZM12.3521 18.5871H10.8873V20.0871H12.3521V18.5871ZM11.6373 14.3034V12.5056H10.1373V14.3034H11.6373ZM10.8873 13.2556H12.3521V11.7556H10.8873V13.2556ZM11.6021 12.5056V14.3034H13.1021V12.5056H11.6021ZM12.3521 13.5534H10.8873V15.0534H12.3521V13.5534ZM15.2817 13.2556H16.7465V11.7556H15.2817V13.2556ZM15.9965 12.5056V14.3034H17.4965V12.5056H15.9965ZM16.7465 13.5534H15.2817V15.0534H16.7465V13.5534ZM16.0317 14.3034V12.5056H14.5317V14.3034H16.0317ZM15.2817 18.2893H16.7465V16.7893H15.2817V18.2893ZM15.9965 17.5393V19.3371H17.4965V17.5393H15.9965ZM16.7465 18.5871H15.2817V20.0871H16.7465V18.5871ZM16.0317 19.3371V17.5393H14.5317V19.3371H16.0317ZM15.2817 23.6826H16.7465V22.1826H15.2817V23.6826ZM15.9965 22.9326V24.7303H17.4965V22.9326H15.9965ZM16.7465 23.9803H15.2817V25.4803H16.7465V23.9803ZM16.0317 24.7303V22.9326H14.5317V24.7303H16.0317Z" fill="white"/>
</svg>
