<svg width="27" height="47" viewBox="0 0 27 47" fill="none" xmlns="http://www.w3.org/2000/svg">
<path d="M1 1V0.25C0.585786 0.25 0.25 0.585786 0.25 1L1 1ZM26 1H26.75C26.75 0.585786 26.4142 0.25 26 0.25V1ZM1 46H0.25C0.25 46.4142 0.585786 46.75 1 46.75L1 46ZM26 46V46.75C26.4142 46.75 26.75 46.4142 26.75 46H26ZM11.5 42.75C11.0858 42.75 10.75 43.0858 10.75 43.5C10.75 43.9142 11.0858 44.25 11.5 44.25V42.75ZM16 44.25C16.4142 44.25 16.75 43.9142 16.75 43.5C16.75 43.0858 16.4142 42.75 16 42.75V44.25ZM16 2.75C15.5858 2.75 15.25 3.08579 15.25 3.5C15.25 3.91421 15.5858 4.25 16 4.25V2.75ZM17 4.25C17.4142 4.25 17.75 3.91421 17.75 3.5C17.75 3.08579 17.4142 2.75 17 2.75V4.25ZM9 2.75C8.58579 2.75 8.25 3.08579 8.25 3.5C8.25 3.91421 8.58579 4.25 9 4.25V2.75ZM13 4.25C13.4142 4.25 13.75 3.91421 13.75 3.5C13.75 3.08579 13.4142 2.75 13 2.75V4.25ZM0.25 6V41H1.75V6H0.25ZM1 41.75H26V40.25H1V41.75ZM26.75 41V6H25.25V41H26.75ZM26 5.25H1V6.75H26V5.25ZM1.75 6V1H0.25V6H1.75ZM1 1.75H26V0.25H1V1.75ZM25.25 1V6H26.75V1H25.25ZM0.25 41V46H1.75V41H0.25ZM1 46.75H26V45.25H1V46.75ZM26.75 46V41H25.25V46H26.75ZM11.5 44.25H16V42.75H11.5V44.25ZM16 4.25H17V2.75H16V4.25ZM5.25 23.2581C5.25 27.4704 8.51649 31.75 13.5 31.75V30.25C9.48351 30.25 6.75 26.7877 6.75 23.2581H5.25ZM13.5 31.75C18.4835 31.75 21.75 27.4704 21.75 23.2581H20.25C20.25 26.7877 17.5165 30.25 13.5 30.25V31.75ZM21.75 23.2581C21.75 18.9826 18.4239 15.25 13.5 15.25V16.75C17.5761 16.75 20.25 19.7916 20.25 23.2581H21.75ZM6.75 23.2581C6.75 19.7916 9.42389 16.75 13.5 16.75V15.25C8.57611 15.25 5.25 18.9826 5.25 23.2581H6.75ZM10.25 22C10.25 22.4224 10.3875 22.7928 10.6332 23.0945C10.8665 23.3812 11.1706 23.5739 11.4641 23.7109C12.0319 23.9759 12.7567 24.1162 13.3529 24.2354C14.0067 24.3662 14.5319 24.4759 14.9016 24.6484C15.0769 24.7302 15.1634 24.8031 15.2035 24.8524C15.2313 24.8865 15.25 24.9224 15.25 25H16.75C16.75 24.5776 16.6125 24.2072 16.3668 23.9055C16.1335 23.6188 15.8294 23.4261 15.5359 23.2891C14.9681 23.0241 14.2433 22.8838 13.6471 22.7646C12.9933 22.6338 12.4681 22.5241 12.0984 22.3516C11.9231 22.2698 11.8366 22.1969 11.7965 22.1476C11.7687 22.1135 11.75 22.0776 11.75 22H10.25ZM15.25 25C15.25 25.5121 15.2492 25.9067 15.215 26.2348C15.1809 26.5616 15.12 26.7428 15.0515 26.8525C14.9605 26.9981 14.7065 27.25 13.5 27.25V28.75C14.7935 28.75 15.7895 28.5019 16.3235 27.6475C16.5675 27.2572 16.6628 26.8134 16.7069 26.3902C16.7508 25.9683 16.75 25.4879 16.75 25H15.25ZM13.5 27.25C12.3005 27.25 11.9766 27.0003 11.8887 26.8949C11.7807 26.7653 11.75 26.5659 11.75 26H10.25C10.25 26.4341 10.2193 27.2347 10.7363 27.8551C11.2734 28.4997 12.1995 28.75 13.5 28.75V27.25ZM11.75 22C11.75 21.4879 11.7508 21.0933 11.785 20.7652C11.8191 20.4384 11.88 20.2572 11.9485 20.1475C12.0395 20.0019 12.2935 19.75 13.5 19.75V18.25C12.2065 18.25 11.2105 18.4981 10.6765 19.3525C10.4325 19.7428 10.3372 20.1866 10.2931 20.6098C10.2492 21.0317 10.25 21.5121 10.25 22H11.75ZM13.5 19.75C14.6995 19.75 15.0234 19.9997 15.1113 20.1051C15.2193 20.2347 15.25 20.4341 15.25 21H16.75C16.75 20.5659 16.7807 19.7653 16.2637 19.1449C15.7266 18.5003 14.8005 18.25 13.5 18.25V19.75ZM14.25 19V18H12.75V19H14.25ZM12.75 28V29H14.25V28H12.75ZM9 4.25H13V2.75H9V4.25Z" fill="black"/>
</svg>
