<svg width="26" height="38" viewBox="0 0 26 38" fill="none" xmlns="http://www.w3.org/2000/svg">
<path d="M1 36.2258H0.25C0.25 36.5619 0.47353 36.8569 0.797038 36.9478L1 36.2258ZM8.08197 37V37.75C8.45726 37.75 8.77478 37.4726 8.82517 37.1007L8.08197 37ZM12.8033 13.7742L13.4981 14.0567L13.5533 13.9208V13.7742H12.8033ZM12.8033 1H13.5533V0.25H12.8033V1ZM6.11475 1V0.25C5.74888 0.25 5.4364 0.513999 5.37529 0.874735L6.11475 1ZM25 36.2258L25.203 36.9478C25.5265 36.8569 25.75 36.5619 25.75 36.2258H25ZM17.918 37L17.1748 37.1007C17.2252 37.4726 17.5427 37.75 17.918 37.75V37ZM13.1967 13.7742H12.4467V13.9208L12.5019 14.0567L13.1967 13.7742ZM13.1967 1V0.25H12.4467V1H13.1967ZM19.8852 1L20.6247 0.874735C20.5636 0.513999 20.2511 0.25 19.8852 0.25V1ZM17.1311 2.54839L17.1666 1.79922L17.1489 1.79839H17.1311V2.54839ZM4.70446 9.51613L3.96414 9.39603L4.70446 9.51613ZM4.83028 8.74194L4.09003 8.62141L4.83028 8.74194ZM0.797038 36.9478C1.78672 37.226 4.55713 37.75 8.08197 37.75V36.25C4.68222 36.25 2.04934 35.7417 1.20296 35.5038L0.797038 36.9478ZM8.82517 37.1007C9.21725 34.2076 9.9235 29.5753 10.7666 25.0902C11.6144 20.5798 12.5866 16.2985 13.4981 14.0567L12.1085 13.4917C11.1314 15.895 10.1364 20.3234 9.29242 24.8131C8.44372 29.3279 7.73357 33.986 7.33876 36.8993L8.82517 37.1007ZM12.8033 0.25H6.11475V1.75H12.8033V0.25ZM24.797 35.5038C23.9507 35.7417 21.3178 36.25 17.918 36.25V37.75C21.4429 37.75 24.2133 37.226 25.203 36.9478L24.797 35.5038ZM18.6612 36.8993C18.2664 33.986 17.5563 29.3279 16.7076 24.8131C15.8636 20.3234 14.8686 15.895 13.8915 13.4917L12.5019 14.0567C13.4134 16.2985 14.3856 20.5798 15.2334 25.0902C16.0765 29.5753 16.7828 34.2076 17.1748 37.1007L18.6612 36.8993ZM13.1967 1.75H19.8852V0.25H13.1967V1.75ZM5.37529 0.874735C5.31215 1.24745 5.24668 1.63531 5.17914 2.03689L6.65836 2.28569C6.72581 1.88466 6.79118 1.49738 6.85422 1.12526L5.37529 0.874735ZM8.47541 1.79839C8.15841 1.79839 7.58252 1.7147 7.03411 1.61657C6.77109 1.5695 6.53135 1.52231 6.35723 1.48686C6.27031 1.46916 6.20007 1.45445 6.15187 1.44423C6.12778 1.43912 6.10921 1.43514 6.09684 1.43247C6.09065 1.43114 6.08602 1.43014 6.08302 1.42948C6.08152 1.42916 6.08043 1.42892 6.07975 1.42877C6.07942 1.4287 6.07919 1.42865 6.07906 1.42862C6.079 1.42861 6.07896 1.4286 6.07895 1.4286C6.07895 1.4286 6.07896 1.4286 6.07896 1.4286C6.07898 1.42861 6.07901 1.42861 5.91875 2.16129C5.75849 2.89397 5.75853 2.89398 5.75858 2.89399C5.75861 2.89399 5.75866 2.894 5.75871 2.89402C5.75881 2.89404 5.75893 2.89406 5.75908 2.8941C5.75939 2.89416 5.7598 2.89425 5.76032 2.89437C5.76135 2.89459 5.76281 2.89491 5.76468 2.89532C5.76843 2.89613 5.77383 2.8973 5.7808 2.8988C5.79473 2.90181 5.81496 2.90614 5.84079 2.91162C5.89245 2.92257 5.96663 2.9381 6.05792 2.95669C6.24022 2.99382 6.4921 3.0434 6.76989 3.09311C7.30308 3.18852 8.00553 3.29839 8.47541 3.29839V1.79839ZM13.5533 13.7742V2.54839H12.0533V13.7742H13.5533ZM13.5533 2.54839V1H12.0533V2.54839H13.5533ZM8.47541 3.29839H12.8033V1.79839H8.47541V3.29839ZM13.9467 2.54839V1H12.4467V2.54839H13.9467ZM19.1458 1.12526C19.1541 1.17443 19.153 1.19202 19.153 1.19207C19.1528 1.19594 19.153 1.19812 19.144 1.2516C19.1352 1.30401 19.1193 1.39706 19.1159 1.51506C19.1126 1.63349 19.122 1.75803 19.1456 1.89859L20.6249 1.6498C20.6148 1.58971 20.6152 1.5637 20.6153 1.55753C20.6155 1.55094 20.6157 1.54535 20.6232 1.50093C20.6305 1.45757 20.6473 1.36473 20.6518 1.25122C20.6564 1.1339 20.6479 1.01178 20.6247 0.874735L19.1458 1.12526ZM17.0957 3.29755C17.5064 3.31698 18.1624 3.31928 18.7877 3.20257C19.1006 3.14416 19.4375 3.05034 19.7416 2.8933C20.0459 2.73614 20.3618 2.49198 20.5539 2.11398L19.2166 1.43441C19.212 1.4435 19.1817 1.49423 19.0533 1.56051C18.9247 1.62692 18.7424 1.68511 18.5124 1.72804C18.0519 1.814 17.5276 1.8163 17.1666 1.79922L17.0957 3.29755ZM19.1456 1.89859C19.3098 2.87438 19.5352 4.02637 19.7659 5.22169C19.9976 6.42217 20.2356 7.672 20.4295 8.86246L21.91 8.62141C21.7122 7.40677 21.4703 6.13728 21.2387 4.93745C21.0062 3.73246 20.7852 2.60313 20.6249 1.6498L19.1456 1.89859ZM20.4295 8.86246C21.2933 14.1682 22.2501 20.244 22.9907 25.3864C23.7358 30.5604 24.25 34.7126 24.25 36.2258H25.75C25.75 34.5783 25.2133 30.2964 24.4754 25.1726C23.7329 20.0172 22.7745 13.9314 21.91 8.62141L20.4295 8.86246ZM16.5029 2.95804L20.5415 9.15159L21.798 8.33228L17.7594 2.13874L16.5029 2.95804ZM3.96414 9.39603C3.11237 14.6468 2.18543 20.5582 1.47123 25.5445C0.761463 30.4998 0.25 34.617 0.25 36.2258H1.75C1.75 34.7502 2.23933 30.7612 2.95608 25.7572C3.66839 20.784 4.59368 14.8828 5.44478 9.63622L3.96414 9.39603ZM5.17914 2.03689C4.85446 3.96731 4.48182 6.21501 4.09003 8.62141L5.57053 8.86246C5.96191 6.45864 6.33412 4.21352 6.65836 2.28569L5.17914 2.03689ZM4.09003 8.62141C4.04827 8.87788 4.00629 9.13615 3.96414 9.39603L5.44478 9.63622C5.48689 9.37663 5.52882 9.11864 5.57053 8.86246L4.09003 8.62141ZM7.82904 2.16798L4.18391 8.36153L5.47664 9.12235L9.12178 2.9288L7.82904 2.16798ZM13.9467 13.7742V11.4516H12.4467V13.7742H13.9467ZM13.9467 11.4516V2.54839H12.4467V11.4516H13.9467ZM17.1311 1.79839H15.5574V3.29839H17.1311V1.79839ZM15.5574 1.79839H13.1967V3.29839H15.5574V1.79839ZM13.038 12.1846C13.7971 12.349 14.5045 12.1936 15.0584 11.6625C15.5634 11.1783 15.8628 10.454 16.0522 9.6407C16.4331 8.00498 16.4644 5.56371 16.3064 2.50962L14.8084 2.58715C14.9666 5.64437 14.919 7.89318 14.5913 9.30047C14.4263 10.0087 14.2139 10.3942 14.0203 10.5797C13.8757 10.7184 13.6978 10.7927 13.3554 10.7186L13.038 12.1846Z" fill="white"/>
</svg>
