<svg width="138" height="88" viewBox="0 0 138 88" fill="none" xmlns="http://www.w3.org/2000/svg">
<path d="M69.5 69C88.0015 69 103 54.0015 103 35.5C103 16.9985 88.0015 2 69.5 2C50.9985 2 36 16.9985 36 35.5C36 54.0015 50.9985 69 69.5 69Z" stroke="#919191" stroke-width="2.5"/>
<path d="M64.1321 61.4939C65.8908 61.8185 67.6801 61.9872 69.5 62C84.1355 62 96 50.1355 96 35.5C96 20.8645 84.1355 9 69.5 9C65.7404 9 62.1636 9.78293 58.9238 11.1946C53.2938 13.6479 48.6816 17.9999 45.896 23.4419C44.0445 27.0589 43 31.1575 43 35.5C43 39.44 43.8599 43.1792 45.4021 46.5401C46.5032 48.9396 47.9521 51.1463 49.6843 53.0956" stroke="#919191" stroke-width="2.5" stroke-linecap="round"/>
<path d="M52.7974 56.0747C54.9455 57.8207 57.3723 59.237 60.0008 60.2466" stroke="#919191" stroke-width="2.5" stroke-linecap="round"/>
<path d="M97 62L103 68" stroke="#919191" stroke-width="2.5"/>
<path fill-rule="evenodd" clip-rule="evenodd" d="M102.03 67.0303C100.138 68.923 100.138 71.9917 102.03 73.8844L113.116 84.9697C115.008 86.8624 118.077 86.8624 119.97 84.9697C121.863 83.077 121.863 80.0083 119.97 78.1156L108.885 67.0303C106.992 65.1376 103.923 65.1376 102.03 67.0303Z" fill="#919191" stroke="#919191" stroke-width="2.5"/>
<path d="M107 69L118 80" stroke="#EBEBEB" stroke-width="2.5" stroke-linecap="round"/>
<path fill-rule="evenodd" clip-rule="evenodd" d="M63 24C63 35.598 72.4021 45 84 45C86.2784 45 88.472 44.6372 90.5262 43.9662C87.1732 52.2871 79.0225 58.1607 69.5 58.1607C56.9849 58.1607 46.8394 48.0152 46.8394 35.5C46.8394 24.1596 55.1697 14.7648 66.045 13.1011C64.113 16.2793 63 20.0097 63 24Z" fill="#919191"/>
<path d="M70 17C68.7266 17 67.4825 17.1253 66.2793 17.3642M62.6447 18.4761C55.8039 21.3508 51 28.1144 51 36" stroke="#919191" stroke-width="2.5" stroke-linecap="round"/>
<path d="M123.176 35.7773H115M129.5 28H112.324H129.5ZM136.5 28H134.279H136.5Z" stroke="#919191" stroke-width="2.5" stroke-linecap="round" stroke-linejoin="round"/>
<path d="M33.1758 57.7773H25M28.5 49H11.3242H28.5ZM5.5 49H1.27881H5.5Z" stroke="#919191" stroke-width="2.5" stroke-linecap="round" stroke-linejoin="round"/>
</svg>
