<svg width="34" height="31" viewBox="0 0 34 31" fill="none" xmlns="http://www.w3.org/2000/svg">
<path d="M8.5102 14.3617H9.2602C9.2602 13.9928 8.99192 13.6787 8.62756 13.6209C8.2632 13.5632 7.91096 13.779 7.79693 14.1299L8.5102 14.3617ZM8.5102 28.3383L9.2602 28.3383V28.3383H8.5102ZM6.87755 5.91075L6.57809 5.22313C6.37241 5.3127 6.21762 5.48965 6.1562 5.70543L6.87755 5.91075ZM13.7347 8.18601L13.4005 8.85744L14.041 9.1762L14.3896 8.55152L13.7347 8.18601ZM1 25.738L0.470883 25.2064C0.329489 25.3472 0.25 25.5385 0.25 25.738H1ZM1 28.3383H0.25C0.25 28.7525 0.585786 29.0883 1 29.0883L1 28.3383ZM5.2449 28.3383V29.0883C5.65911 29.0883 5.9949 28.7525 5.9949 28.3383H5.2449ZM5.2449 25.738H5.9949C5.9949 25.5385 5.91541 25.3472 5.77401 25.2064L5.2449 25.738ZM25.4898 14.3617L26.2031 14.1299C26.089 13.779 25.7368 13.5632 25.3724 13.6209C25.0081 13.6787 24.7398 13.9928 24.7398 14.3617H25.4898ZM25.4898 28.3383L26.2295 28.4621L26.2398 28.4006V28.3383H25.4898ZM27.1224 5.91075L27.8438 5.70543C27.7824 5.48965 27.6276 5.3127 27.4219 5.22313L27.1224 5.91075ZM20.2653 8.18601L19.6104 8.55152L19.959 9.1762L20.5995 8.85744L20.2653 8.18601ZM33 25.738H33.75C33.75 25.5385 33.6705 25.3472 33.5291 25.2064L33 25.738ZM33 28.3383V29.0883C33.4142 29.0883 33.75 28.7525 33.75 28.3383H33ZM28.7551 28.3383H28.0051C28.0051 28.7525 28.3409 29.0883 28.7551 29.0883V28.3383ZM28.7551 25.738L28.226 25.2064C28.0846 25.3472 28.0051 25.5385 28.0051 25.738H28.7551ZM19.3827 11.8917C19.3827 11.4775 19.0469 11.1417 18.6327 11.1417C18.2184 11.1417 17.8827 11.4775 17.8827 11.8917H19.3827ZM17.8827 12.5502C17.8827 12.9644 18.2184 13.3002 18.6327 13.3002C19.0469 13.3002 19.3827 12.9644 19.3827 12.5502H17.8827ZM19.3827 15.8426C19.3827 15.4284 19.0469 15.0926 18.6327 15.0926C18.2184 15.0926 17.8827 15.4284 17.8827 15.8426H19.3827ZM17.8827 16.5011C17.8827 16.9153 18.2184 17.2511 18.6327 17.2511C19.0469 17.2511 19.3827 16.9153 19.3827 16.5011H17.8827ZM19.3827 19.7935C19.3827 19.3793 19.0469 19.0435 18.6327 19.0435C18.2184 19.0435 17.8827 19.3793 17.8827 19.7935H19.3827ZM17.8827 20.452C17.8827 20.8662 18.2184 21.202 18.6327 21.202C19.0469 21.202 19.3827 20.8662 19.3827 20.452H17.8827ZM19.3827 23.7444C19.3827 23.3302 19.0469 22.9944 18.6327 22.9944C18.2184 22.9944 17.8827 23.3302 17.8827 23.7444H19.3827ZM17.8827 24.4029C17.8827 24.8171 18.2184 25.1529 18.6327 25.1529C19.0469 25.1529 19.3827 24.8171 19.3827 24.4029H17.8827ZM1.32653 26.1629H4.91837V24.6629H1.32653V26.1629ZM5.63164 25.6448L9.22348 14.5935L7.79693 14.1299L4.20509 25.1811L5.63164 25.6448ZM7.7602 14.3617V28.3383H9.2602V14.3617H7.7602ZM8.5102 28.3383C7.7602 28.3383 7.76021 28.3398 7.76021 28.3414C7.76021 28.3419 7.76022 28.3435 7.76023 28.3445C7.76025 28.3466 7.76027 28.3488 7.76031 28.351C7.76038 28.3554 7.76049 28.3599 7.76065 28.3646C7.76096 28.374 7.76145 28.384 7.76217 28.3945C7.76359 28.4156 7.76591 28.4389 7.76947 28.4643C7.77661 28.5152 7.78867 28.5738 7.80829 28.6387C7.84792 28.7696 7.91631 28.919 8.0284 29.0752C8.25319 29.3884 8.62929 29.6968 9.22972 29.9598C10.4084 30.476 12.5876 30.8767 16.7033 30.7129L16.6436 29.2141C12.5961 29.3752 10.6936 28.9634 9.83151 28.5858C9.41153 28.4018 9.27742 28.2429 9.24711 28.2007C9.23165 28.1791 9.23626 28.1786 9.244 28.2042C9.24768 28.2164 9.25177 28.2334 9.25492 28.2559C9.25649 28.2671 9.25781 28.2795 9.25874 28.2932C9.2592 28.3001 9.25957 28.3072 9.25982 28.3148C9.25995 28.3185 9.26004 28.3223 9.26011 28.3263C9.26014 28.3282 9.26016 28.3302 9.26018 28.3322C9.26019 28.3332 9.2602 28.3347 9.2602 28.3352C9.2602 28.3367 9.2602 28.3383 8.5102 28.3383ZM2.04788 25.6183L7.5989 6.11607L6.1562 5.70543L0.60518 25.2076L2.04788 25.6183ZM7.17701 6.59837L12.4015 4.32312L11.8026 2.94787L6.57809 5.22313L7.17701 6.59837ZM12.102 3.63549C11.3547 3.69806 11.3547 3.69819 11.3547 3.69834C11.3547 3.69841 11.3547 3.69857 11.3547 3.69871C11.3547 3.69898 11.3548 3.69932 11.3548 3.69971C11.3549 3.7005 11.3549 3.70152 11.3551 3.70278C11.3553 3.7053 11.3556 3.70874 11.356 3.7131C11.3567 3.72181 11.3579 3.73416 11.3593 3.74991C11.3623 3.78141 11.3668 3.82659 11.3728 3.88369C11.385 3.99781 11.4037 4.15997 11.4303 4.35599C11.4833 4.74652 11.5687 5.27864 11.6979 5.83635C11.826 6.38882 12.0035 6.99443 12.2495 7.5191C12.4825 8.01605 12.8393 8.57812 13.4005 8.85744L14.0689 7.51457C13.977 7.46886 13.8032 7.2996 13.6076 6.88238C13.425 6.49289 13.276 6.0015 13.1592 5.49759C13.0436 4.99894 12.9657 4.51532 12.9167 4.1542C12.8922 3.9744 12.8752 3.82676 12.8644 3.72503C12.859 3.67421 12.8552 3.63495 12.8527 3.609C12.8515 3.59603 12.8506 3.58639 12.8501 3.58031C12.8498 3.57726 12.8496 3.57511 12.8495 3.57387C12.8495 3.57325 12.8494 3.57286 12.8494 3.5727C12.8494 3.57262 12.8494 3.5726 12.8494 3.57264C12.8494 3.57266 12.8494 3.57273 12.8494 3.57274C12.8494 3.57282 12.8494 3.57293 12.102 3.63549ZM14.3896 8.55152L16.0223 5.62619L14.7124 4.89517L13.0798 7.8205L14.3896 8.55152ZM16.0251 4.90027L14.0659 1.32486L12.7504 2.04568L14.7096 5.62109L16.0251 4.90027ZM13.4082 1.68527C13.227 0.957472 13.2266 0.957577 13.2262 0.957684C13.226 0.957721 13.2256 0.95783 13.2253 0.957905C13.2247 0.958055 13.2241 0.958212 13.2235 0.958374C13.2222 0.9587 13.2208 0.95905 13.2194 0.959425C13.2165 0.960177 13.2132 0.96103 13.2096 0.961989C13.2025 0.963907 13.1941 0.966253 13.1844 0.969064C13.165 0.974679 13.1407 0.982175 13.1121 0.991846C13.0549 1.01114 12.9798 1.03939 12.8928 1.07912C12.7199 1.15801 12.4916 1.28584 12.2625 1.48539C11.7846 1.90161 11.352 2.59037 11.352 3.63549H12.852C12.852 3.05544 13.0725 2.76909 13.2477 2.61649C13.3451 2.53164 13.4434 2.47663 13.5154 2.44379C13.5508 2.42766 13.5777 2.41782 13.592 2.41298C13.5991 2.41059 13.6028 2.40952 13.6026 2.40958C13.6025 2.40961 13.6014 2.40993 13.5992 2.41052C13.5981 2.41082 13.5967 2.41118 13.5951 2.41161C13.5943 2.41182 13.5934 2.41205 13.5924 2.41229C13.5919 2.41242 13.5914 2.41254 13.5909 2.41267C13.5906 2.41274 13.5902 2.41284 13.5901 2.41287C13.5897 2.41297 13.5893 2.41308 13.4082 1.68527ZM14.758 5.69793L16.3906 7.97319L17.6094 7.09868L15.9767 4.82342L14.758 5.69793ZM0.797411 24.8814L0.470883 25.2064L1.52912 26.2695L1.85564 25.9445L0.797411 24.8814ZM0.25 25.738V28.3383H1.75V25.738H0.25ZM1 29.0883H5.2449V27.5883H1V29.0883ZM5.9949 28.3383V25.738H4.4949V28.3383H5.9949ZM5.77401 25.2064L5.44748 24.8814L4.38925 25.9445L4.71578 26.2695L5.77401 25.2064ZM32.6735 24.6629H29.0816V26.1629H32.6735V24.6629ZM29.7949 25.1811L26.2031 14.1299L24.7765 14.5935L28.3684 25.6448L29.7949 25.1811ZM24.7398 14.3617V28.3383H26.2398V14.3617H24.7398ZM25.4898 28.3383C24.7501 28.2144 24.7503 28.2129 24.7506 28.2115C24.7507 28.211 24.7509 28.2095 24.7511 28.2086C24.7514 28.2067 24.7518 28.2048 24.7521 28.2029C24.7528 28.1991 24.7535 28.1955 24.7542 28.1919C24.7556 28.1849 24.7571 28.1782 24.7586 28.1719C24.7616 28.1593 24.7646 28.1483 24.7675 28.1389C24.7734 28.1199 24.7786 28.1076 24.7816 28.1013C24.7879 28.0878 24.7834 28.1029 24.7509 28.1394C24.6859 28.2124 24.4946 28.387 24.0243 28.5777C23.0679 28.9656 21.0707 29.3749 17.0298 29.2141L16.9702 30.7129C21.0926 30.877 23.3403 30.4738 24.588 29.9678C25.2197 29.7116 25.6202 29.419 25.8715 29.1365C25.9972 28.9952 26.082 28.8604 26.1381 28.7416C26.1659 28.6826 26.1862 28.6287 26.2008 28.5813C26.2081 28.5577 26.2139 28.5358 26.2186 28.5158C26.221 28.5059 26.223 28.4964 26.2248 28.4874C26.2257 28.4829 26.2266 28.4786 26.2273 28.4744C26.2277 28.4723 26.2281 28.4702 26.2285 28.4681C26.2286 28.4671 26.2289 28.4656 26.229 28.4651C26.2292 28.4636 26.2295 28.4621 25.4898 28.3383ZM33.3948 25.2076L27.8438 5.70543L26.4011 6.11607L31.9521 25.6183L33.3948 25.2076ZM27.4219 5.22313L22.1974 2.94787L21.5985 4.32312L26.823 6.59837L27.4219 5.22313ZM21.898 3.63549C21.1506 3.57293 21.1506 3.57282 21.1506 3.57274C21.1506 3.57273 21.1506 3.57266 21.1506 3.57264C21.1506 3.5726 21.1506 3.57262 21.1506 3.5727C21.1506 3.57286 21.1505 3.57325 21.1505 3.57387C21.1504 3.57511 21.1502 3.57726 21.1499 3.58031C21.1494 3.58639 21.1485 3.59603 21.1473 3.609C21.1448 3.63496 21.141 3.67421 21.1356 3.72503C21.1248 3.82676 21.1078 3.9744 21.0833 4.1542C21.0343 4.51532 20.9564 4.99894 20.8408 5.49759C20.724 6.0015 20.575 6.49289 20.3924 6.88238C20.1968 7.2996 20.023 7.46885 19.9311 7.51457L20.5995 8.85744C21.1607 8.57812 21.5175 8.01605 21.7505 7.5191C21.9965 6.99443 22.174 6.38882 22.3021 5.83635C22.4313 5.27864 22.5167 4.74652 22.5697 4.35599C22.5963 4.15997 22.615 3.99781 22.6272 3.88369C22.6332 3.82659 22.6377 3.78141 22.6407 3.74991C22.6421 3.73416 22.6433 3.72181 22.644 3.7131C22.6444 3.70874 22.6447 3.70529 22.6449 3.70278C22.6451 3.70152 22.6451 3.7005 22.6452 3.69971C22.6452 3.69932 22.6453 3.69898 22.6453 3.69871C22.6453 3.69857 22.6453 3.69841 22.6453 3.69834C22.6453 3.69819 22.6453 3.69806 21.898 3.63549ZM20.9202 7.8205L19.2876 4.89517L17.9777 5.62619L19.6104 8.55152L20.9202 7.8205ZM18.6327 5.26068C19.2958 5.61107 19.2958 5.61107 19.2958 5.61106C19.2958 5.61104 19.2958 5.61102 19.2958 5.61098C19.2959 5.61091 19.2959 5.6108 19.296 5.61066C19.2961 5.61036 19.2964 5.60991 19.2967 5.6093C19.2973 5.60809 19.2983 5.60627 19.2996 5.60384C19.3022 5.59899 19.306 5.59175 19.311 5.58223C19.3211 5.5632 19.336 5.53509 19.3552 5.49893C19.3935 5.4266 19.449 5.32207 19.5175 5.1935C19.6545 4.93632 19.8432 4.58326 20.0503 4.19961C20.4675 3.4266 20.9494 2.54773 21.2352 2.07076L19.9485 1.29978C19.6424 1.81054 19.1447 2.71938 18.7303 3.48714C18.5216 3.87387 18.3315 4.22946 18.1936 4.48833C18.1246 4.6178 18.0687 4.72315 18.03 4.79619C18.0106 4.83271 17.9955 4.86116 17.9853 4.88052C17.9802 4.8902 17.9762 4.8976 17.9736 4.9026C17.9723 4.90511 17.9713 4.90701 17.9706 4.90829C17.9703 4.90893 17.97 4.90942 17.9698 4.90975C17.9697 4.90992 17.9697 4.91005 17.9696 4.91014C17.9696 4.91018 17.9696 4.91022 17.9696 4.91024C17.9695 4.91027 17.9695 4.91028 18.6327 5.26068ZM20.5918 1.68527C20.4107 2.41308 20.4103 2.41297 20.4099 2.41287C20.4098 2.41284 20.4094 2.41274 20.4091 2.41267C20.4086 2.41254 20.4081 2.41242 20.4076 2.41229C20.4066 2.41205 20.4057 2.41182 20.4049 2.41161C20.4033 2.41118 20.4019 2.41082 20.4008 2.41052C20.3986 2.40993 20.3975 2.40961 20.3974 2.40958C20.3972 2.40952 20.4009 2.41059 20.408 2.41298C20.4223 2.41782 20.4492 2.42766 20.4846 2.44379C20.5566 2.47663 20.6549 2.53164 20.7523 2.61649C20.9275 2.76909 21.148 3.05544 21.148 3.63549H22.648C22.648 2.59037 22.2154 1.90161 21.7375 1.48539C21.5084 1.28584 21.2802 1.15801 21.1072 1.07912C21.0202 1.03939 20.9451 1.01114 20.8879 0.991846C20.8593 0.982175 20.835 0.974679 20.8156 0.969064C20.8059 0.966254 20.7975 0.963907 20.7904 0.961989C20.7868 0.96103 20.7836 0.960177 20.7806 0.959425C20.7792 0.95905 20.7778 0.9587 20.7765 0.958374C20.7759 0.958212 20.7753 0.958055 20.7747 0.957905C20.7744 0.95783 20.774 0.957721 20.7738 0.957684C20.7734 0.957577 20.773 0.957472 20.5918 1.68527ZM18.0233 4.82342L16.3906 7.09868L17.6094 7.97319L19.242 5.69793L18.0233 4.82342ZM32.1444 25.9445L32.4709 26.2695L33.5291 25.2064L33.2026 24.8814L32.1444 25.9445ZM32.25 25.738V28.3383H33.75V25.738H32.25ZM33 27.5883H28.7551V29.0883H33V27.5883ZM29.5051 28.3383V25.738H28.0051V28.3383H29.5051ZM29.2842 26.2695L29.6107 25.9445L28.5525 24.8814L28.226 25.2064L29.2842 26.2695ZM17 29.2135H15.6667V30.7135H17V29.2135ZM17.6055 7.09335L16.9388 6.1813L15.7278 7.06648L16.3945 7.97852L17.6055 7.09335ZM13.5967 2.41119C14.8277 2.09145 15.5851 1.82962 16.5326 1.76457C17.4467 1.70182 18.5601 1.82868 20.3655 2.40029L20.8182 0.970258C18.9052 0.364557 17.5943 0.188151 16.4299 0.268094C15.2989 0.345739 14.3237 0.672568 13.2196 0.959363L13.5967 2.41119ZM16.25 7.53593V29.9635H17.75V7.53593H16.25ZM17.8827 11.8917V12.5502H19.3827V11.8917H17.8827ZM17.8827 15.8426V16.5011H19.3827V15.8426H17.8827ZM17.8827 19.7935V20.452H19.3827V19.7935H17.8827ZM17.8827 23.7444V24.4029H19.3827V23.7444H17.8827Z" fill="white"/>
</svg>
