<svg width="41" height="19" viewBox="0 0 41 19" fill="none" xmlns="http://www.w3.org/2000/svg">
<path d="M40 14.6831V18H10.75C5.49764 16.9141 4.1792 15.6886 1.84783 13.4943M40 14.6831H31.9457M40 14.6831V7.21951M6.51087 8.04878C6.51087 8.04878 1.42391 8.04878 1 11.7805C1.22261 12.5064 1.45352 13.0591 1.84783 13.4943M6.51087 8.04878C8.76586 10.6088 11.5693 11.3774 18.8043 11.7805M6.51087 8.04878L11.5978 6.12639M1.84783 13.4943C2.34021 14.0377 3.08737 14.3978 4.3913 14.6831H23.8913M28.5543 4.37165C30.7172 5.56098 32.7935 5.56098 32.7935 5.56098C37.0326 5.97561 37.0326 2.24403 37.0326 2.24403C38.3043 0.170856 40 2.24403 40 2.24403V7.21951M28.5543 4.37165C27.3318 3.69937 26.0816 2.64709 25.163 1L20.5 2.7622M28.5543 4.37165L18.8043 11.7805M18.8043 11.7805L23.8913 14.6831M23.8913 14.6831H31.9457M31.9457 14.6831C33.1163 9.98787 34.5167 8.02723 40 7.21951M11.5978 6.12639L13.2935 8.46341M11.5978 6.12639L14.5652 5.00499M14.5652 5.00499L16.6848 7.63415M14.5652 5.00499L17.4827 3.90244M17.4827 3.90244L19.6522 6.39024M17.4827 3.90244L20.5 2.7622M20.5 2.7622L22.6196 5.14634" stroke="white" stroke-width="1.5"/>
</svg>
